#VRML V2.0 utf8
# 3D model generated by easyeda2kicad.py (https://github.com/uPesy/easyeda2kicad.py)

Shape{
    appearance Appearance {
        material  Material 	{
            diffuseColor 0.35294117647058826 0.7019607843137254 0.35294117647058826
            specularColor 0.023529411764705882 0.050980392156862744 0.023529411764705882
            ambientIntensity 0.7943
            transparency 0.0
            shininess 0.5
        }
    }
    geometry IndexedFaceSet {
        ccw TRUE
        solid FALSE
        coord DEF co Coordinate {
            point [
                1.8937 -2.0866 2.2244, 2.0 -2.0866 0.1969, 2.0 -2.0866 5.4331, -0.0 -2.0866 0.1969, 0.0039 -2.0866 2.2244, -0.0 -2.0866 5.4331, 0.0039 -2.0866 4.311, 1.8937 -2.0866 4.311, 0.0197 -0.6102 4.0158, -0.0 -0.5905 4.0158, 0.0197 -1.3583 4.0158, -0.0 -1.378 4.0158, 0.3346 -1.3583 4.0158, 0.3543 -1.378 4.0158, 0.3346 -0.6102 4.0158, 0.3543 -0.5905 4.0158, -0.0 2.0079 5.2756, -0.0 2.0079 0.1969, -0.0 -1.9699 5.5852, -0.0 -1.9291 5.5906, -0.0 -1.378 5.5906, -0.0 1.9868 5.3543, -0.0 2.0025 5.3164, -0.0 1.8504 0.0394, -0.0 -1.9291 0.0394, -0.0 -1.9699 0.0447, -0.0 -0.5905 5.5906, -0.0 -0.3937 5.5906, -0.0 -0.3529 5.5852, -0.0 -2.0812 5.4738, -0.0 -2.0655 5.5118, -0.0 -2.0079 5.5695, -0.0 -2.0405 5.5444, -0.0 -2.0079 0.0605, -0.0 -2.0405 0.0855, -0.0 -2.0655 0.1181, -0.0 -2.0812 0.1561, -0.0 2.0025 0.1561, -0.0 1.9868 0.1181, -0.0 1.9618 0.0855, -0.0 -0.315 5.5695, -0.0 -0.2823 5.5444, -0.0 1.9291 0.0605, -0.0 1.8912 0.0447, -0.0 -0.2573 5.5118, -0.0 -0.2416 5.4738, -0.0 -0.2362 5.4331, -0.0 1.8504 5.4331, -0.0 1.8912 5.4277, -0.0 1.9291 5.412, -0.0 1.9618 5.3869, 0.8031 -1.3976 0.0394, 0.8031 -1.5945 0.0394, 1.1969 1.4055 0.0394, 1.1969 1.6024 0.0394, 2.0 1.8504 0.0394, 0.8031 1.6024 0.0394, 0.8031 1.4055 0.0394, 2.0 -1.9291 0.0394, 1.1969 -1.5945 0.0394, 1.1969 -1.3976 0.0394, 2.0 1.8504 5.4331, 2.0 -0.2362 5.4331, 2.0 2.0079 5.2756, 2.0 2.0079 0.1969, 2.0 -0.2823 5.5444, 2.0 -0.315 5.5695, 2.0 -0.3529 5.5852, 2.0 -0.3937 5.5906, 2.0 -2.0812 0.1561, 2.0 -2.0655 0.1181, 2.0 -2.0405 0.0855, 2.0 -2.0079 0.0605, 2.0 -1.9699 0.0447, 2.0 1.8912 0.0447, 2.0 -0.2573 5.5118, 2.0 1.9868 5.3543, 2.0 1.9618 5.3869, 2.0 2.0025 5.3164, 2.0 1.9291 5.412, 2.0 1.8912 5.4277, 2.0 -0.2416 5.4738, 2.0 -2.0405 5.5444, 2.0 -2.0655 5.5118, 2.0 -2.0079 5.5695, 2.0 -1.9699 5.5852, 2.0 -1.9291 5.5906, 2.0 -2.0812 5.4738, 2.0 1.9291 0.0605, 2.0 1.9618 0.0855, 2.0 2.0025 0.1561, 2.0 1.9868 0.1181, 0.3543 -0.5905 5.5906, 1.724 -1.4764 5.5906, 1.6302 -1.5987 5.5906, 1.5079 -1.6925 5.5906, 0.9173 -1.6925 5.5906, 1.3654 -1.7515 5.5906, 1.2126 -1.7717 5.5906, 1.0598 -1.7515 5.5906, 0.9173 -0.6697 5.5906, 0.795 -0.7635 5.5906, 0.7012 -0.8858 5.5906, 0.7012 -1.4764 5.5906, 0.6422 -1.3339 5.5906, 0.3543 -1.378 5.5906, 0.622 -1.1811 5.5906, 0.6422 -1.0283 5.5906, 0.795 -1.5987 5.5906, 1.5079 -0.6697 5.5906, 1.6302 -0.7635 5.5906, 1.724 -0.8858 5.5906, 1.783 -1.0283 5.5906, 1.8031 -1.1811 5.5906, 1.783 -1.3339 5.5906, 1.0598 -0.6107 5.5906, 1.2126 -0.5905 5.5906, 1.3654 -0.6107 5.5906, 1.2126 -0.5905 4.9606, 1.0598 -0.6107 4.9606, 0.9173 -0.6697 4.9606, 0.795 -0.7635 4.9606, 0.7012 -0.8858 4.9606, 0.6422 -1.0283 4.9606, 0.622 -1.1811 4.9606, 0.6422 -1.3339 4.9606, 0.7012 -1.4764 4.9606, 0.795 -1.5987 4.9606, 0.9173 -1.6925 4.9606, 1.0598 -1.7515 4.9606, 1.2126 -1.7717 4.9606, 1.3654 -1.7515 4.9606, 1.5079 -1.6925 4.9606, 1.6302 -1.5987 4.9606, 1.724 -1.4764 4.9606, 1.783 -1.3339 4.9606, 1.8031 -1.1811 4.9606, 1.783 -1.0283 4.9606, 1.724 -0.8858 4.9606, 1.6302 -0.7635 4.9606, 1.5079 -0.6697 4.9606, 1.3654 -0.6107 4.9606, 1.2126 -0.748 1.6535, 1.2126 -0.748 4.8032, 1.1005 -0.7628 1.6535, 1.1005 -0.7628 4.8032, 0.9961 -0.8061 1.6535, 0.9961 -0.8061 4.8032, 0.9064 -0.8749 1.6535, 0.9064 -0.8749 4.8032, 0.8375 -0.9646 1.6535, 0.8375 -0.9646 4.8032, 0.7943 -1.069 1.6535, 0.7943 -1.069 4.8032, 0.7795 -1.1811 1.6535, 0.7795 -1.1811 4.8032, 0.7943 -1.2932 1.6535, 0.7943 -1.2932 4.8032, 0.8375 -1.3976 1.6535, 0.8375 -1.3976 4.8032, 0.9064 -1.4873 1.6535, 0.9064 -1.4873 4.8032, 0.9961 -1.5562 1.6535, 0.9961 -1.5562 4.8032, 1.1005 -1.5994 1.6535, 1.1005 -1.5994 4.8032, 1.2126 -1.6142 1.6535, 1.2126 -1.6142 4.8032, 1.3247 -1.5994 1.6535, 1.3247 -1.5994 4.8032, 1.4291 -1.5562 1.6535, 1.4291 -1.5562 4.8032, 1.5188 -1.4873 1.6535, 1.5188 -1.4873 4.8032, 1.5876 -1.3976 1.6535, 1.5876 -1.3976 4.8032, 1.6309 -1.2932 1.6535, 1.6309 -1.2932 4.8032, 1.6457 -1.1811 1.6535, 1.6457 -1.1811 4.8032, 1.6309 -1.069 1.6535, 1.6309 -1.069 4.8032, 1.5876 -0.9646 1.6535, 1.5876 -0.9646 4.8032, 1.5188 -0.8749 1.6535, 1.5188 -0.8749 4.8032, 1.4291 -0.8061 1.6535, 1.4291 -0.8061 4.8032, 1.3247 -0.7628 1.6535, 1.3247 -0.7628 4.8032, 1.2126 -1.1811 1.6535
            ]
        }
        coordIndex [
            0,1,2,-1,1,0,3,-1,3,0,4,-1,3,4,5,-1,5,4,6,-1,5,6,2,-1,2,6,7,-1,2,7,0,-1,8,9,10,-1,10,9,11,-1,10,11,12,-1,12,11,13,-1,12,13,14,-1,14,13,15,-1,14,15,8,-1,8,15,9,-1,16,17,9,-1,18,19,5,-1,5,19,20,-1,5,20,11,-1,21,22,16,-1,9,23,11,-1,11,23,24,-1,11,24,25,-1,26,27,9,-1,9,27,28,-1,5,29,18,-1,18,29,30,-1,18,30,31,-1,31,30,32,-1,25,33,11,-1,11,33,34,-1,11,34,35,-1,35,36,11,-1,11,36,3,-1,11,3,5,-1,17,37,9,-1,9,37,38,-1,9,38,39,-1,28,40,41,-1,39,42,9,-1,9,42,43,-1,9,43,23,-1,41,44,28,-1,28,44,45,-1,28,45,9,-1,9,45,46,-1,9,46,16,-1,16,46,47,-1,16,47,48,-1,48,49,16,-1,16,49,50,-1,16,50,21,-1,51,52,24,-1,53,54,55,-1,55,54,56,-1,55,56,23,-1,23,56,57,-1,24,52,58,-1,58,52,59,-1,58,59,60,-1,55,58,53,-1,53,58,60,-1,53,60,57,-1,57,60,51,-1,57,51,23,-1,23,51,24,-1,61,62,63,-1,63,62,64,-1,65,66,67,-1,68,2,62,-1,62,2,1,-1,62,1,69,-1,69,70,62,-1,62,70,71,-1,62,71,72,-1,72,73,62,-1,62,73,58,-1,62,58,64,-1,64,58,55,-1,64,55,74,-1,65,67,75,-1,76,77,78,-1,78,77,79,-1,78,79,63,-1,63,79,80,-1,63,80,61,-1,68,62,67,-1,67,62,81,-1,67,81,75,-1,82,83,84,-1,84,83,85,-1,68,86,2,-1,2,86,85,-1,2,85,87,-1,87,85,83,-1,74,88,64,-1,64,88,89,-1,64,89,90,-1,90,89,91,-1,68,27,92,-1,92,27,26,-1,93,94,86,-1,86,94,95,-1,20,19,96,-1,95,97,86,-1,86,97,98,-1,86,98,19,-1,19,98,99,-1,19,99,96,-1,100,92,101,-1,101,92,102,-1,103,104,105,-1,105,104,106,-1,105,106,92,-1,92,106,107,-1,92,107,102,-1,20,96,105,-1,105,96,108,-1,105,108,103,-1,109,110,68,-1,68,110,111,-1,111,112,68,-1,68,112,113,-1,68,113,86,-1,86,113,114,-1,86,114,93,-1,100,115,92,-1,92,115,116,-1,92,116,68,-1,68,116,117,-1,68,117,109,-1,17,16,64,-1,64,16,63,-1,118,116,119,-1,119,116,115,-1,119,115,120,-1,120,115,100,-1,120,100,121,-1,121,100,101,-1,121,101,122,-1,122,101,102,-1,122,102,123,-1,123,102,107,-1,123,107,124,-1,124,107,106,-1,124,106,125,-1,125,106,104,-1,125,104,126,-1,126,104,103,-1,126,103,127,-1,127,103,108,-1,127,108,128,-1,128,108,96,-1,128,96,129,-1,129,96,99,-1,129,99,130,-1,130,99,98,-1,130,98,131,-1,131,98,97,-1,131,97,132,-1,132,97,95,-1,132,95,133,-1,133,95,94,-1,133,94,134,-1,134,94,93,-1,134,93,135,-1,135,93,114,-1,135,114,136,-1,136,114,113,-1,136,113,137,-1,137,113,112,-1,137,112,138,-1,138,112,111,-1,138,111,139,-1,139,111,110,-1,139,110,140,-1,140,110,109,-1,140,109,141,-1,141,109,117,-1,141,117,118,-1,118,117,116,-1,142,143,144,-1,144,143,145,-1,144,145,146,-1,146,145,147,-1,146,147,148,-1,148,147,149,-1,148,149,150,-1,150,149,151,-1,150,151,152,-1,152,151,153,-1,152,153,154,-1,154,153,155,-1,154,155,156,-1,156,155,157,-1,156,157,158,-1,158,157,159,-1,158,159,160,-1,160,159,161,-1,160,161,162,-1,162,161,163,-1,162,163,164,-1,164,163,165,-1,164,165,166,-1,166,165,167,-1,166,167,168,-1,168,167,169,-1,168,169,170,-1,170,169,171,-1,170,171,172,-1,172,171,173,-1,172,173,174,-1,174,173,175,-1,174,175,176,-1,176,175,177,-1,176,177,178,-1,178,177,179,-1,178,179,180,-1,180,179,181,-1,180,181,182,-1,182,181,183,-1,182,183,184,-1,184,183,185,-1,184,185,186,-1,186,185,187,-1,186,187,188,-1,188,187,189,-1,188,189,142,-1,142,189,143,-1,186,188,190,-1,190,188,142,-1,190,142,144,-1,180,182,190,-1,190,182,184,-1,190,184,186,-1,174,176,190,-1,190,176,178,-1,190,178,180,-1,168,170,190,-1,190,170,172,-1,190,172,174,-1,162,164,190,-1,190,164,166,-1,190,166,168,-1,156,158,190,-1,190,158,160,-1,190,160,162,-1,150,152,190,-1,190,152,154,-1,190,154,156,-1,144,146,190,-1,190,146,148,-1,190,148,150,-1,145,119,147,-1,147,119,120,-1,147,120,149,-1,149,120,121,-1,149,121,151,-1,151,121,122,-1,151,122,153,-1,153,122,123,-1,153,123,155,-1,155,123,124,-1,155,124,157,-1,157,124,125,-1,157,125,159,-1,159,125,126,-1,159,126,161,-1,161,126,127,-1,161,127,163,-1,163,127,128,-1,163,128,165,-1,165,128,129,-1,165,129,167,-1,167,129,130,-1,167,130,169,-1,169,130,131,-1,169,131,171,-1,171,131,132,-1,171,132,173,-1,173,132,133,-1,173,133,175,-1,175,133,134,-1,175,134,177,-1,177,134,135,-1,177,135,179,-1,179,135,136,-1,179,136,181,-1,181,136,137,-1,181,137,183,-1,183,137,138,-1,183,138,185,-1,185,138,139,-1,185,139,187,-1,187,139,140,-1,187,140,189,-1,189,140,141,-1,189,141,143,-1,143,141,118,-1,143,118,145,-1,145,118,119,-1,13,11,105,-1,105,11,20,-1,92,26,15,-1,15,26,9,-1,15,13,92,-1,92,13,105,-1,
        ]
    }
}
Shape{
    appearance Appearance {
        material  Material 	{
            diffuseColor 0.6352941176470588 0.30980392156862746 0.023529411764705882
            specularColor 0.047058823529411764 0.023529411764705882 0.0
            ambientIntensity 0.5357
            transparency 0.0
            shininess 0.5
        }
    }
    geometry IndexedFaceSet {
        ccw TRUE
        solid FALSE
        coord DEF co Coordinate {
            point [
                0.0197 -0.6102 5.3937, 0.3346 -0.6102 5.3937, 0.0197 -0.6102 4.0158, 0.3346 -0.6102 4.0158, 0.0197 -1.3583 5.3937, 0.0197 -1.3583 4.0158, 0.3346 -1.3583 5.3937, 0.3346 -1.3583 4.0158
            ]
        }
        coordIndex [
            0,1,2,-1,2,1,3,-1,4,0,5,-1,5,0,2,-1,6,4,7,-1,7,4,5,-1,1,6,3,-1,3,6,7,-1,4,6,0,-1,0,6,1,-1,
        ]
    }
}
Shape{
    appearance Appearance {
        material  Material 	{
            diffuseColor 0.35294117647058826 0.7019607843137254 0.35294117647058826
            specularColor 0.023529411764705882 0.050980392156862744 0.023529411764705882
            ambientIntensity 0.7943
            transparency 0.0
            shininess 0.5
        }
    }
    geometry IndexedFaceSet {
        ccw TRUE
        solid FALSE
        coord DEF co Coordinate {
            point [
                -0.0 1.8504 5.4331, -0.0 -0.2362 5.4331, 2.0 1.8504 5.4331, 2.0 -0.2362 5.4331, -0.0 -1.9291 0.0394, 2.0 -1.9291 0.0394, 2.0 -1.9699 0.0447, -0.0 -1.9699 0.0447, 2.0 -2.0079 0.0605, -0.0 -2.0079 0.0605, 2.0 -2.0405 0.0855, -0.0 -2.0405 0.0855, 2.0 -2.0655 0.1181, -0.0 -2.0655 0.1181, 2.0 -2.0812 0.1561, -0.0 -2.0812 0.1561, 2.0 -2.0866 0.1969, -0.0 -2.0866 0.1969, 2.0 1.8504 0.0394, -0.0 1.8504 0.0394, -0.0 1.8912 0.0447, 2.0 1.8912 0.0447, -0.0 1.9291 0.0605, 2.0 1.9291 0.0605, -0.0 1.9618 0.0855, 2.0 1.9618 0.0855, -0.0 1.9868 0.1181, 2.0 1.9868 0.1181, -0.0 2.0025 0.1561, 2.0 2.0025 0.1561, -0.0 2.0079 0.1969, 2.0 2.0079 0.1969, 2.0 1.8912 5.4277, -0.0 1.8912 5.4277, 2.0 1.9291 5.412, -0.0 1.9291 5.412, 2.0 1.9618 5.3869, -0.0 1.9618 5.3869, 2.0 1.9868 5.3543, -0.0 1.9868 5.3543, 2.0 2.0025 5.3164, -0.0 2.0025 5.3164, 2.0 2.0079 5.2756, -0.0 2.0079 5.2756, -0.0 -0.3937 5.5906, 2.0 -0.3937 5.5906, 2.0 -0.3529 5.5852, -0.0 -0.3529 5.5852, 2.0 -0.315 5.5695, -0.0 -0.315 5.5695, 2.0 -0.2823 5.5444, -0.0 -0.2823 5.5444, 2.0 -0.2573 5.5118, -0.0 -0.2573 5.5118, 2.0 -0.2416 5.4738, -0.0 -0.2416 5.4738, 2.0 -1.9291 5.5906, -0.0 -1.9291 5.5906, -0.0 -1.9699 5.5852, 2.0 -1.9699 5.5852, -0.0 -2.0079 5.5695, 2.0 -2.0079 5.5695, -0.0 -2.0405 5.5444, 2.0 -2.0405 5.5444, -0.0 -2.0655 5.5118, 2.0 -2.0655 5.5118, -0.0 -2.0812 5.4738, 2.0 -2.0812 5.4738, -0.0 -2.0866 5.4331, 2.0 -2.0866 5.4331
            ]
        }
        coordIndex [
            0,1,2,-1,2,1,3,-1,4,5,6,-1,4,6,7,-1,7,6,8,-1,7,8,9,-1,9,8,10,-1,9,10,11,-1,11,10,12,-1,11,12,13,-1,13,12,14,-1,13,14,15,-1,15,14,16,-1,15,16,17,-1,18,19,20,-1,18,20,21,-1,21,20,22,-1,21,22,23,-1,23,22,24,-1,23,24,25,-1,25,24,26,-1,25,26,27,-1,27,26,28,-1,27,28,29,-1,29,28,30,-1,29,30,31,-1,0,2,32,-1,0,32,33,-1,33,32,34,-1,33,34,35,-1,35,34,36,-1,35,36,37,-1,37,36,38,-1,37,38,39,-1,39,38,40,-1,39,40,41,-1,41,40,42,-1,41,42,43,-1,44,45,46,-1,44,46,47,-1,47,46,48,-1,47,48,49,-1,49,48,50,-1,49,50,51,-1,51,50,52,-1,51,52,53,-1,53,52,54,-1,53,54,55,-1,55,54,3,-1,55,3,1,-1,56,57,58,-1,56,58,59,-1,59,58,60,-1,59,60,61,-1,61,60,62,-1,61,62,63,-1,63,62,64,-1,63,64,65,-1,65,64,66,-1,65,66,67,-1,67,66,68,-1,67,68,69,-1,
        ]
    }
}
Shape{
    appearance Appearance {
        material  Material 	{
            diffuseColor 0.6352941176470588 0.30980392156862746 0.023529411764705882
            specularColor 0.047058823529411764 0.023529411764705882 0.0
            ambientIntensity 0.5357
            transparency 0.0
            shininess 0.5
        }
    }
    geometry IndexedFaceSet {
        ccw TRUE
        solid FALSE
        coord DEF co Coordinate {
            point [
                1.8937 -2.1654 4.311, 1.8937 -2.0866 4.311, 0.0039 -2.1654 4.311, 0.0039 -2.0866 4.311, 1.8937 -2.1654 5.4921, 0.0039 -2.1654 5.4921, 1.8937 -2.4409 5.4921, 0.3583 -2.4409 5.4921, 0.3583 -2.9134 5.4921, 0.0039 -3.189 5.4921, 1.8937 -2.9134 5.4921, 1.8937 -3.189 5.4921, 1.8937 -3.189 2.584, 0.0039 -3.189 2.584, 0.0039 -3.1837 2.5386, 1.8937 -3.1837 2.5386, 0.0039 -3.168 2.4956, 1.8937 -3.168 2.4956, 0.0039 -3.1429 2.4574, 1.8937 -3.1429 2.4574, 0.0039 -3.1097 2.4261, 1.8937 -3.1097 2.4261, 0.0039 -3.0701 2.4032, 1.8937 -3.0701 2.4032, 0.0039 -3.0263 2.3901, 1.8937 -3.0263 2.3901, 1.8937 -2.0866 2.2244, 0.0039 -2.0866 2.2244, 1.8937 -2.9134 4.8622, 1.8937 -2.4409 4.8622, 0.3583 -2.9134 4.8622, 0.3583 -2.4409 4.8622
            ]
        }
        coordIndex [
            0,1,2,-1,2,1,3,-1,4,0,5,-1,5,0,2,-1,6,4,7,-1,7,4,5,-1,7,5,8,-1,8,5,9,-1,8,9,10,-1,10,9,11,-1,12,11,13,-1,13,11,9,-1,12,13,14,-1,12,14,15,-1,15,14,16,-1,15,16,17,-1,17,16,18,-1,17,18,19,-1,19,18,20,-1,19,20,21,-1,21,20,22,-1,21,22,23,-1,23,22,24,-1,23,24,25,-1,26,25,27,-1,27,25,24,-1,0,12,15,-1,10,11,28,-1,28,11,12,-1,28,12,29,-1,29,12,0,-1,29,0,6,-1,6,0,4,-1,15,17,0,-1,0,17,19,-1,0,19,21,-1,26,1,25,-1,25,1,0,-1,25,0,23,-1,23,0,21,-1,9,5,13,-1,13,5,2,-1,13,2,14,-1,2,3,27,-1,27,24,2,-1,2,24,22,-1,2,22,20,-1,20,18,2,-1,2,18,16,-1,2,16,14,-1,28,30,10,-1,10,30,8,-1,30,31,8,-1,8,31,7,-1,31,29,7,-1,7,29,6,-1,31,30,29,-1,29,30,28,-1,
        ]
    }
}
Shape{
    appearance Appearance {
        material  Material 	{
            diffuseColor 0.6666666666666666 0.6666666666666666 0.6666666666666666
            specularColor 0.4666666666666667 0.4666666666666667 0.4666666666666667
            ambientIntensity 0.6667
            transparency 0.0
            shininess 0.5
        }
    }
    geometry IndexedFaceSet {
        ccw TRUE
        solid FALSE
        coord DEF co Coordinate {
            point [
                0.8031 -1.5945 -1.0141, 0.8031 -1.5945 0.0394, 0.8031 -1.3976 -1.0141, 0.8031 -1.3976 0.0394, 1.1969 -1.3976 0.0394, 1.1969 -1.3976 -1.0141, 0.9213 -1.3976 -1.3386, 1.0787 -1.3976 -1.3386, 1.1969 -1.5945 -1.0141, 1.1969 -1.5945 0.0394, 0.9213 -1.5945 -1.3386, 1.0787 -1.5945 -1.3386, 0.8031 1.4055 -1.0141, 0.8031 1.4055 0.0394, 0.8031 1.6024 -1.0141, 0.8031 1.6024 0.0394, 1.1969 1.6024 0.0394, 1.1969 1.6024 -1.0141, 0.9213 1.6024 -1.3386, 1.0787 1.6024 -1.3386, 1.1969 1.4055 -1.0141, 1.1969 1.4055 0.0394, 0.9213 1.4055 -1.3386, 1.0787 1.4055 -1.3386
            ]
        }
        coordIndex [
            0,1,2,-1,2,1,3,-1,3,4,2,-1,2,4,5,-1,2,5,6,-1,6,5,7,-1,5,4,8,-1,8,4,9,-1,10,11,0,-1,0,11,8,-1,0,8,1,-1,1,8,9,-1,6,7,10,-1,10,7,11,-1,10,0,6,-1,6,0,2,-1,7,5,11,-1,11,5,8,-1,12,13,14,-1,14,13,15,-1,15,16,14,-1,14,16,17,-1,14,17,18,-1,18,17,19,-1,17,16,20,-1,20,16,21,-1,22,23,12,-1,12,23,20,-1,12,20,13,-1,13,20,21,-1,18,19,22,-1,22,19,23,-1,22,12,18,-1,18,12,14,-1,19,17,23,-1,23,17,20,-1,
        ]
    }
}
Shape{
    appearance Appearance {
        material  Material 	{
            diffuseColor 0.35294117647058826 0.7019607843137254 0.35294117647058826
            specularColor 0.023529411764705882 0.050980392156862744 0.023529411764705882
            ambientIntensity 0.7943
            transparency 0.0
            shininess 0.5
        }
    }
    geometry IndexedFaceSet {
        ccw TRUE
        solid FALSE
        coord DEF co Coordinate {
            point [
                -0.1063 -2.0866 2.2244, -0.0 -2.0866 0.1969, -0.0 -2.0866 5.4331, -2.0 -2.0866 0.1969, -1.9961 -2.0866 2.2244, -2.0 -2.0866 5.4331, -1.9961 -2.0866 4.311, -0.1063 -2.0866 4.311, -1.9803 -0.6102 4.0158, -2.0 -0.5905 4.0158, -1.9803 -1.3583 4.0158, -2.0 -1.378 4.0158, -1.6654 -1.3583 4.0158, -1.6457 -1.378 4.0158, -1.6654 -0.6102 4.0158, -1.6457 -0.5905 4.0158, -2.0 -1.9699 5.5852, -2.0 -1.9291 5.5906, -2.0 -1.378 5.5906, -2.0 1.9291 0.0605, -2.0 1.8912 0.0447, -2.0 1.8504 0.0394, -2.0 -1.9291 0.0394, -2.0 -1.9699 0.0447, -2.0 -0.5905 5.5906, -2.0 -0.3937 5.5906, -2.0 -0.3529 5.5852, -2.0 -2.0812 5.4738, -2.0 -2.0655 5.5118, -2.0 -2.0079 5.5695, -2.0 -2.0405 5.5444, -2.0 -2.0079 0.0605, -2.0 -2.0405 0.0855, -2.0 -2.0655 0.1181, -2.0 -2.0812 0.1561, -2.0 2.0079 5.2756, -2.0 2.0079 0.1969, -2.0 2.0025 0.1561, -2.0 -0.315 5.5695, -2.0 -0.2823 5.5444, -2.0 1.9868 0.1181, -2.0 1.9618 0.0855, -2.0 1.8504 5.4331, -2.0 -0.2362 5.4331, -2.0 -0.2416 5.4738, -2.0 -0.2573 5.5118, -2.0 1.8912 5.4277, -2.0 1.9291 5.412, -2.0 2.0025 5.3164, -2.0 1.9618 5.3869, -2.0 1.9868 5.3543, -1.1969 -1.3976 0.0394, -1.1969 -1.5945 0.0394, -0.8031 1.4055 0.0394, -0.8031 1.6024 0.0394, -0.0 1.8504 0.0394, -1.1969 1.6024 0.0394, -1.1969 1.4055 0.0394, -0.0 -1.9291 0.0394, -0.8031 -1.5945 0.0394, -0.8031 -1.3976 0.0394, -0.0 1.8504 5.4331, -0.0 -0.2362 5.4331, -0.0 2.0079 5.2756, -0.0 -1.9699 0.0447, -0.0 2.0079 0.1969, -0.0 -0.2823 5.5444, -0.0 -0.315 5.5695, -0.0 -0.3529 5.5852, -0.0 -0.3937 5.5906, -0.0 -2.0812 0.1561, -0.0 -2.0655 0.1181, -0.0 -2.0405 0.0855, -0.0 -2.0079 0.0605, -0.0 1.9618 5.3869, -0.0 1.9868 5.3543, -0.0 2.0025 5.3164, -0.0 -0.2573 5.5118, -0.0 1.9868 0.1181, -0.0 1.8912 0.0447, -0.0 1.9618 0.0855, -0.0 1.9291 0.0605, -0.0 2.0025 0.1561, -0.0 1.9291 5.412, -0.0 1.8912 5.4277, -0.0 -0.2416 5.4738, -0.0 -2.0405 5.5444, -0.0 -2.0655 5.5118, -0.0 -2.0079 5.5695, -0.0 -1.9699 5.5852, -0.0 -1.9291 5.5906, -0.0 -2.0812 5.4738, -0.6346 -1.7515 5.5906, -0.7874 -1.7717 5.5906, -1.6457 -0.5905 5.5906, -0.9402 -1.7515 5.5906, -1.0827 -1.6925 5.5906, -1.6457 -1.378 5.5906, -1.205 -1.5987 5.5906, -1.2988 -1.4764 5.5906, -1.0827 -0.6697 5.5906, -1.205 -0.7635 5.5906, -1.2988 -0.8858 5.5906, -1.3578 -1.3339 5.5906, -1.378 -1.1811 5.5906, -1.3578 -1.0283 5.5906, -0.4921 -0.6697 5.5906, -0.3698 -0.7635 5.5906, -0.276 -0.8858 5.5906, -0.276 -1.4764 5.5906, -0.3698 -1.5987 5.5906, -0.4921 -1.6925 5.5906, -0.9402 -0.6107 5.5906, -0.7874 -0.5905 5.5906, -0.6346 -0.6107 5.5906, -0.217 -1.0283 5.5906, -0.1969 -1.1811 5.5906, -0.217 -1.3339 5.5906, -0.7874 -0.5905 4.9606, -0.9402 -0.6107 4.9606, -1.0827 -0.6697 4.9606, -1.205 -0.7635 4.9606, -1.2988 -0.8858 4.9606, -1.3578 -1.0283 4.9606, -1.378 -1.1811 4.9606, -1.3578 -1.3339 4.9606, -1.2988 -1.4764 4.9606, -1.205 -1.5987 4.9606, -1.0827 -1.6925 4.9606, -0.9402 -1.7515 4.9606, -0.7874 -1.7717 4.9606, -0.6346 -1.7515 4.9606, -0.4921 -1.6925 4.9606, -0.3698 -1.5987 4.9606, -0.276 -1.4764 4.9606, -0.217 -1.3339 4.9606, -0.1969 -1.1811 4.9606, -0.217 -1.0283 4.9606, -0.276 -0.8858 4.9606, -0.3698 -0.7635 4.9606, -0.4921 -0.6697 4.9606, -0.6346 -0.6107 4.9606, -0.7874 -0.748 1.6535, -0.7874 -0.748 4.8032, -0.8995 -0.7628 1.6535, -0.8995 -0.7628 4.8032, -1.0039 -0.8061 1.6535, -1.0039 -0.8061 4.8032, -1.0936 -0.8749 1.6535, -1.0936 -0.8749 4.8032, -1.1625 -0.9646 1.6535, -1.1625 -0.9646 4.8032, -1.2057 -1.069 1.6535, -1.2057 -1.069 4.8032, -1.2205 -1.1811 1.6535, -1.2205 -1.1811 4.8032, -1.2057 -1.2932 1.6535, -1.2057 -1.2932 4.8032, -1.1625 -1.3976 1.6535, -1.1625 -1.3976 4.8032, -1.0936 -1.4873 1.6535, -1.0936 -1.4873 4.8032, -1.0039 -1.5562 1.6535, -1.0039 -1.5562 4.8032, -0.8995 -1.5994 1.6535, -0.8995 -1.5994 4.8032, -0.7874 -1.6142 1.6535, -0.7874 -1.6142 4.8032, -0.6753 -1.5994 1.6535, -0.6753 -1.5994 4.8032, -0.5709 -1.5562 1.6535, -0.5709 -1.5562 4.8032, -0.4812 -1.4873 1.6535, -0.4812 -1.4873 4.8032, -0.4124 -1.3976 1.6535, -0.4124 -1.3976 4.8032, -0.3691 -1.2932 1.6535, -0.3691 -1.2932 4.8032, -0.3543 -1.1811 1.6535, -0.3543 -1.1811 4.8032, -0.3691 -1.069 1.6535, -0.3691 -1.069 4.8032, -0.4124 -0.9646 1.6535, -0.4124 -0.9646 4.8032, -0.4812 -0.8749 1.6535, -0.4812 -0.8749 4.8032, -0.5709 -0.8061 1.6535, -0.5709 -0.8061 4.8032, -0.6753 -0.7628 1.6535, -0.6753 -0.7628 4.8032, -0.7874 -1.1811 1.6535
            ]
        }
        coordIndex [
            0,1,2,-1,1,0,3,-1,3,0,4,-1,3,4,5,-1,5,4,6,-1,5,6,2,-1,2,6,7,-1,2,7,0,-1,8,9,10,-1,10,9,11,-1,10,11,12,-1,12,11,13,-1,12,13,14,-1,14,13,15,-1,14,15,8,-1,8,15,9,-1,16,17,5,-1,5,17,18,-1,5,18,11,-1,19,20,9,-1,9,20,21,-1,9,21,11,-1,11,21,22,-1,11,22,23,-1,24,25,9,-1,9,25,26,-1,5,27,16,-1,16,27,28,-1,16,28,29,-1,29,28,30,-1,23,31,11,-1,11,31,32,-1,11,32,33,-1,33,34,11,-1,11,34,3,-1,11,3,5,-1,35,36,9,-1,9,36,37,-1,26,38,39,-1,37,40,9,-1,9,40,41,-1,9,41,19,-1,42,35,43,-1,43,35,9,-1,43,9,44,-1,44,9,26,-1,44,26,45,-1,45,26,39,-1,42,46,35,-1,35,46,47,-1,35,47,48,-1,48,47,49,-1,48,49,50,-1,51,52,22,-1,53,54,55,-1,55,54,56,-1,55,56,21,-1,21,56,57,-1,22,52,58,-1,58,52,59,-1,58,59,60,-1,55,58,53,-1,53,58,60,-1,53,60,57,-1,57,60,51,-1,57,51,21,-1,21,51,22,-1,61,62,63,-1,64,58,1,-1,63,62,65,-1,66,67,68,-1,58,65,1,-1,1,65,62,-1,1,62,2,-1,2,62,69,-1,1,70,71,-1,71,72,1,-1,1,72,73,-1,1,73,64,-1,74,63,75,-1,75,63,76,-1,66,68,77,-1,78,79,80,-1,80,79,81,-1,58,55,65,-1,65,55,79,-1,65,79,82,-1,82,79,78,-1,74,83,63,-1,63,83,84,-1,63,84,61,-1,69,62,68,-1,68,62,85,-1,68,85,77,-1,86,87,88,-1,88,87,89,-1,69,90,2,-1,2,90,89,-1,2,89,91,-1,91,89,87,-1,92,93,90,-1,69,25,94,-1,94,25,24,-1,90,93,17,-1,93,95,17,-1,17,95,96,-1,17,96,18,-1,18,96,97,-1,97,96,98,-1,97,98,99,-1,100,94,101,-1,101,94,102,-1,99,103,97,-1,97,103,104,-1,97,104,94,-1,94,104,105,-1,94,105,102,-1,106,107,69,-1,69,107,108,-1,109,110,90,-1,90,110,111,-1,90,111,92,-1,100,112,94,-1,94,112,113,-1,94,113,69,-1,69,113,114,-1,69,114,106,-1,108,115,69,-1,69,115,116,-1,69,116,90,-1,90,116,117,-1,90,117,109,-1,36,35,65,-1,65,35,63,-1,118,113,119,-1,119,113,112,-1,119,112,120,-1,120,112,100,-1,120,100,121,-1,121,100,101,-1,121,101,122,-1,122,101,102,-1,122,102,123,-1,123,102,105,-1,123,105,124,-1,124,105,104,-1,124,104,125,-1,125,104,103,-1,125,103,126,-1,126,103,99,-1,126,99,127,-1,127,99,98,-1,127,98,128,-1,128,98,96,-1,128,96,129,-1,129,96,95,-1,129,95,130,-1,130,95,93,-1,130,93,131,-1,131,93,92,-1,131,92,132,-1,132,92,111,-1,132,111,133,-1,133,111,110,-1,133,110,134,-1,134,110,109,-1,134,109,135,-1,135,109,117,-1,135,117,136,-1,136,117,116,-1,136,116,137,-1,137,116,115,-1,137,115,138,-1,138,115,108,-1,138,108,139,-1,139,108,107,-1,139,107,140,-1,140,107,106,-1,140,106,141,-1,141,106,114,-1,141,114,118,-1,118,114,113,-1,142,143,144,-1,144,143,145,-1,144,145,146,-1,146,145,147,-1,146,147,148,-1,148,147,149,-1,148,149,150,-1,150,149,151,-1,150,151,152,-1,152,151,153,-1,152,153,154,-1,154,153,155,-1,154,155,156,-1,156,155,157,-1,156,157,158,-1,158,157,159,-1,158,159,160,-1,160,159,161,-1,160,161,162,-1,162,161,163,-1,162,163,164,-1,164,163,165,-1,164,165,166,-1,166,165,167,-1,166,167,168,-1,168,167,169,-1,168,169,170,-1,170,169,171,-1,170,171,172,-1,172,171,173,-1,172,173,174,-1,174,173,175,-1,174,175,176,-1,176,175,177,-1,176,177,178,-1,178,177,179,-1,178,179,180,-1,180,179,181,-1,180,181,182,-1,182,181,183,-1,182,183,184,-1,184,183,185,-1,184,185,186,-1,186,185,187,-1,186,187,188,-1,188,187,189,-1,188,189,142,-1,142,189,143,-1,186,188,190,-1,190,188,142,-1,190,142,144,-1,180,182,190,-1,190,182,184,-1,190,184,186,-1,174,176,190,-1,190,176,178,-1,190,178,180,-1,168,170,190,-1,190,170,172,-1,190,172,174,-1,162,164,190,-1,190,164,166,-1,190,166,168,-1,156,158,190,-1,190,158,160,-1,190,160,162,-1,150,152,190,-1,190,152,154,-1,190,154,156,-1,144,146,190,-1,190,146,148,-1,190,148,150,-1,145,119,147,-1,147,119,120,-1,147,120,149,-1,149,120,121,-1,149,121,151,-1,151,121,122,-1,151,122,153,-1,153,122,123,-1,153,123,155,-1,155,123,124,-1,155,124,157,-1,157,124,125,-1,157,125,159,-1,159,125,126,-1,159,126,161,-1,161,126,127,-1,161,127,163,-1,163,127,128,-1,163,128,165,-1,165,128,129,-1,165,129,167,-1,167,129,130,-1,167,130,169,-1,169,130,131,-1,169,131,171,-1,171,131,132,-1,171,132,173,-1,173,132,133,-1,173,133,175,-1,175,133,134,-1,175,134,177,-1,177,134,135,-1,177,135,179,-1,179,135,136,-1,179,136,181,-1,181,136,137,-1,181,137,183,-1,183,137,138,-1,183,138,185,-1,185,138,139,-1,185,139,187,-1,187,139,140,-1,187,140,189,-1,189,140,141,-1,189,141,143,-1,143,141,118,-1,143,118,145,-1,145,118,119,-1,13,11,97,-1,97,11,18,-1,94,24,15,-1,15,24,9,-1,15,13,94,-1,94,13,97,-1,
        ]
    }
}
Shape{
    appearance Appearance {
        material  Material 	{
            diffuseColor 0.6352941176470588 0.30980392156862746 0.023529411764705882
            specularColor 0.047058823529411764 0.023529411764705882 0.0
            ambientIntensity 0.5357
            transparency 0.0
            shininess 0.5
        }
    }
    geometry IndexedFaceSet {
        ccw TRUE
        solid FALSE
        coord DEF co Coordinate {
            point [
                -1.9803 -0.6102 5.3937, -1.6654 -0.6102 5.3937, -1.9803 -0.6102 4.0158, -1.6654 -0.6102 4.0158, -1.9803 -1.3583 5.3937, -1.9803 -1.3583 4.0158, -1.6654 -1.3583 5.3937, -1.6654 -1.3583 4.0158
            ]
        }
        coordIndex [
            0,1,2,-1,2,1,3,-1,4,0,5,-1,5,0,2,-1,6,4,7,-1,7,4,5,-1,1,6,3,-1,3,6,7,-1,4,6,0,-1,0,6,1,-1,
        ]
    }
}
Shape{
    appearance Appearance {
        material  Material 	{
            diffuseColor 0.35294117647058826 0.7019607843137254 0.35294117647058826
            specularColor 0.023529411764705882 0.050980392156862744 0.023529411764705882
            ambientIntensity 0.7943
            transparency 0.0
            shininess 0.5
        }
    }
    geometry IndexedFaceSet {
        ccw TRUE
        solid FALSE
        coord DEF co Coordinate {
            point [
                -2.0 1.8504 5.4331, -2.0 -0.2362 5.4331, -0.0 1.8504 5.4331, -0.0 -0.2362 5.4331, -2.0 -1.9291 0.0394, -0.0 -1.9291 0.0394, -0.0 -1.9699 0.0447, -2.0 -1.9699 0.0447, -0.0 -2.0079 0.0605, -2.0 -2.0079 0.0605, -0.0 -2.0405 0.0855, -2.0 -2.0405 0.0855, -0.0 -2.0655 0.1181, -2.0 -2.0655 0.1181, -0.0 -2.0812 0.1561, -2.0 -2.0812 0.1561, -0.0 -2.0866 0.1969, -2.0 -2.0866 0.1969, -0.0 1.8504 0.0394, -2.0 1.8504 0.0394, -2.0 1.8912 0.0447, -0.0 1.8912 0.0447, -2.0 1.9291 0.0605, -0.0 1.9291 0.0605, -2.0 1.9618 0.0855, -0.0 1.9618 0.0855, -2.0 1.9868 0.1181, -0.0 1.9868 0.1181, -2.0 2.0025 0.1561, -0.0 2.0025 0.1561, -2.0 2.0079 0.1969, -0.0 2.0079 0.1969, -0.0 1.8912 5.4277, -2.0 1.8912 5.4277, -0.0 1.9291 5.412, -2.0 1.9291 5.412, -0.0 1.9618 5.3869, -2.0 1.9618 5.3869, -0.0 1.9868 5.3543, -2.0 1.9868 5.3543, -0.0 2.0025 5.3164, -2.0 2.0025 5.3164, -0.0 2.0079 5.2756, -2.0 2.0079 5.2756, -2.0 -0.3937 5.5906, -0.0 -0.3937 5.5906, -0.0 -0.3529 5.5852, -2.0 -0.3529 5.5852, -0.0 -0.315 5.5695, -2.0 -0.315 5.5695, -0.0 -0.2823 5.5444, -2.0 -0.2823 5.5444, -0.0 -0.2573 5.5118, -2.0 -0.2573 5.5118, -0.0 -0.2416 5.4738, -2.0 -0.2416 5.4738, -0.0 -1.9291 5.5906, -2.0 -1.9291 5.5906, -2.0 -1.9699 5.5852, -0.0 -1.9699 5.5852, -2.0 -2.0079 5.5695, -0.0 -2.0079 5.5695, -2.0 -2.0405 5.5444, -0.0 -2.0405 5.5444, -2.0 -2.0655 5.5118, -0.0 -2.0655 5.5118, -2.0 -2.0812 5.4738, -0.0 -2.0812 5.4738, -2.0 -2.0866 5.4331, -0.0 -2.0866 5.4331
            ]
        }
        coordIndex [
            0,1,2,-1,2,1,3,-1,4,5,6,-1,4,6,7,-1,7,6,8,-1,7,8,9,-1,9,8,10,-1,9,10,11,-1,11,10,12,-1,11,12,13,-1,13,12,14,-1,13,14,15,-1,15,14,16,-1,15,16,17,-1,18,19,20,-1,18,20,21,-1,21,20,22,-1,21,22,23,-1,23,22,24,-1,23,24,25,-1,25,24,26,-1,25,26,27,-1,27,26,28,-1,27,28,29,-1,29,28,30,-1,29,30,31,-1,0,2,32,-1,0,32,33,-1,33,32,34,-1,33,34,35,-1,35,34,36,-1,35,36,37,-1,37,36,38,-1,37,38,39,-1,39,38,40,-1,39,40,41,-1,41,40,42,-1,41,42,43,-1,44,45,46,-1,44,46,47,-1,47,46,48,-1,47,48,49,-1,49,48,50,-1,49,50,51,-1,51,50,52,-1,51,52,53,-1,53,52,54,-1,53,54,55,-1,55,54,3,-1,55,3,1,-1,56,57,58,-1,56,58,59,-1,59,58,60,-1,59,60,61,-1,61,60,62,-1,61,62,63,-1,63,62,64,-1,63,64,65,-1,65,64,66,-1,65,66,67,-1,67,66,68,-1,67,68,69,-1,
        ]
    }
}
Shape{
    appearance Appearance {
        material  Material 	{
            diffuseColor 0.6352941176470588 0.30980392156862746 0.023529411764705882
            specularColor 0.047058823529411764 0.023529411764705882 0.0
            ambientIntensity 0.5357
            transparency 0.0
            shininess 0.5
        }
    }
    geometry IndexedFaceSet {
        ccw TRUE
        solid FALSE
        coord DEF co Coordinate {
            point [
                -0.1063 -2.1654 4.311, -0.1063 -2.0866 4.311, -1.9961 -2.1654 4.311, -1.9961 -2.0866 4.311, -0.1063 -2.1654 5.4921, -1.9961 -2.1654 5.4921, -0.1063 -2.4409 5.4921, -1.6417 -2.4409 5.4921, -1.6417 -2.9134 5.4921, -1.9961 -3.189 5.4921, -0.1063 -2.9134 5.4921, -0.1063 -3.189 5.4921, -0.1063 -3.189 2.584, -1.9961 -3.189 2.584, -1.9961 -3.1837 2.5386, -0.1063 -3.1837 2.5386, -1.9961 -3.168 2.4956, -0.1063 -3.168 2.4956, -1.9961 -3.1429 2.4574, -0.1063 -3.1429 2.4574, -1.9961 -3.1097 2.4261, -0.1063 -3.1097 2.4261, -1.9961 -3.0701 2.4032, -0.1063 -3.0701 2.4032, -1.9961 -3.0263 2.3901, -0.1063 -3.0263 2.3901, -0.1063 -2.0866 2.2244, -1.9961 -2.0866 2.2244, -0.1063 -2.9134 4.8622, -0.1063 -2.4409 4.8622, -1.6417 -2.9134 4.8622, -1.6417 -2.4409 4.8622
            ]
        }
        coordIndex [
            0,1,2,-1,2,1,3,-1,4,0,5,-1,5,0,2,-1,6,4,7,-1,7,4,5,-1,7,5,8,-1,8,5,9,-1,8,9,10,-1,10,9,11,-1,12,11,13,-1,13,11,9,-1,12,13,14,-1,12,14,15,-1,15,14,16,-1,15,16,17,-1,17,16,18,-1,17,18,19,-1,19,18,20,-1,19,20,21,-1,21,20,22,-1,21,22,23,-1,23,22,24,-1,23,24,25,-1,26,25,27,-1,27,25,24,-1,0,12,15,-1,10,11,28,-1,28,11,12,-1,28,12,29,-1,29,12,0,-1,29,0,6,-1,6,0,4,-1,15,17,0,-1,0,17,19,-1,0,19,21,-1,26,1,25,-1,25,1,0,-1,25,0,23,-1,23,0,21,-1,9,5,13,-1,13,5,2,-1,13,2,14,-1,2,3,27,-1,27,24,2,-1,2,24,22,-1,2,22,20,-1,20,18,2,-1,2,18,16,-1,2,16,14,-1,28,30,10,-1,10,30,8,-1,30,31,8,-1,8,31,7,-1,31,29,7,-1,7,29,6,-1,31,30,29,-1,29,30,28,-1,
        ]
    }
}
Shape{
    appearance Appearance {
        material  Material 	{
            diffuseColor 0.6666666666666666 0.6666666666666666 0.6666666666666666
            specularColor 0.4666666666666667 0.4666666666666667 0.4666666666666667
            ambientIntensity 0.6667
            transparency 0.0
            shininess 0.5
        }
    }
    geometry IndexedFaceSet {
        ccw TRUE
        solid FALSE
        coord DEF co Coordinate {
            point [
                -1.1969 -1.5945 -1.0141, -1.1969 -1.5945 0.0394, -1.1969 -1.3976 -1.0141, -1.1969 -1.3976 0.0394, -0.8031 -1.3976 0.0394, -0.8031 -1.3976 -1.0141, -1.0787 -1.3976 -1.3386, -0.9213 -1.3976 -1.3386, -0.8031 -1.5945 -1.0141, -0.8031 -1.5945 0.0394, -1.0787 -1.5945 -1.3386, -0.9213 -1.5945 -1.3386, -1.1969 1.4055 -1.0141, -1.1969 1.4055 0.0394, -1.1969 1.6024 -1.0141, -1.1969 1.6024 0.0394, -0.8031 1.6024 0.0394, -0.8031 1.6024 -1.0141, -1.0787 1.6024 -1.3386, -0.9213 1.6024 -1.3386, -0.8031 1.4055 -1.0141, -0.8031 1.4055 0.0394, -1.0787 1.4055 -1.3386, -0.9213 1.4055 -1.3386
            ]
        }
        coordIndex [
            0,1,2,-1,2,1,3,-1,3,4,2,-1,2,4,5,-1,2,5,6,-1,6,5,7,-1,5,4,8,-1,8,4,9,-1,10,11,0,-1,0,11,8,-1,0,8,1,-1,1,8,9,-1,6,7,10,-1,10,7,11,-1,10,0,6,-1,6,0,2,-1,7,5,11,-1,11,5,8,-1,12,13,14,-1,14,13,15,-1,15,16,14,-1,14,16,17,-1,14,17,18,-1,18,17,19,-1,17,16,20,-1,20,16,21,-1,22,23,12,-1,12,23,20,-1,12,20,13,-1,13,20,21,-1,18,19,22,-1,22,19,23,-1,22,12,18,-1,18,12,14,-1,19,17,23,-1,23,17,20,-1,
        ]
    }
}
Shape{
    appearance Appearance {
        material  Material 	{
            diffuseColor 0.35294117647058826 0.7019607843137254 0.35294117647058826
            specularColor 0.023529411764705882 0.050980392156862744 0.023529411764705882
            ambientIntensity 0.7943
            transparency 0.0
            shininess 0.5
        }
    }
    geometry IndexedFaceSet {
        ccw TRUE
        solid FALSE
        coord DEF co Coordinate {
            point [
                -2.1063 -2.0866 2.2244, -2.0 -2.0866 0.1969, -2.0 -2.0866 5.4331, -4.0 -2.0866 0.1969, -3.9961 -2.0866 2.2244, -4.0 -2.0866 5.4331, -3.9961 -2.0866 4.311, -2.1063 -2.0866 4.311, -3.9803 -0.6102 4.0158, -4.0 -0.5905 4.0158, -3.9803 -1.3583 4.0158, -4.0 -1.378 4.0158, -3.6654 -1.3583 4.0158, -3.6457 -1.378 4.0158, -3.6654 -0.6102 4.0158, -3.6457 -0.5905 4.0158, -4.0 2.0079 5.2756, -4.0 2.0079 0.1969, -4.0 -1.9699 5.5852, -4.0 -1.9291 5.5906, -4.0 -1.378 5.5906, -4.0 1.9868 5.3543, -4.0 2.0025 5.3164, -4.0 1.8504 0.0394, -4.0 -1.9291 0.0394, -4.0 -1.9699 0.0447, -4.0 -0.5905 5.5906, -4.0 -0.3937 5.5906, -4.0 -0.3529 5.5852, -4.0 -2.0812 5.4738, -4.0 -2.0655 5.5118, -4.0 -2.0079 5.5695, -4.0 -2.0405 5.5444, -4.0 -2.0079 0.0605, -4.0 -2.0405 0.0855, -4.0 -2.0655 0.1181, -4.0 -2.0812 0.1561, -4.0 2.0025 0.1561, -4.0 1.9868 0.1181, -4.0 1.9618 0.0855, -4.0 -0.315 5.5695, -4.0 -0.2823 5.5444, -4.0 1.9291 0.0605, -4.0 1.8912 0.0447, -4.0 -0.2573 5.5118, -4.0 -0.2416 5.4738, -4.0 -0.2362 5.4331, -4.0 1.8504 5.4331, -4.0 1.8912 5.4277, -4.0 1.9291 5.412, -4.0 1.9618 5.3869, -3.1969 -1.3976 0.0394, -3.1969 -1.5945 0.0394, -2.8031 1.4055 0.0394, -2.8031 1.6024 0.0394, -2.0 1.8504 0.0394, -3.1969 1.6024 0.0394, -3.1969 1.4055 0.0394, -2.0 -1.9291 0.0394, -2.8031 -1.5945 0.0394, -2.8031 -1.3976 0.0394, -2.0 1.8504 5.4331, -2.0 -0.2362 5.4331, -2.0 2.0079 5.2756, -2.0 2.0079 0.1969, -2.0 -0.2823 5.5444, -2.0 -0.315 5.5695, -2.0 -0.3529 5.5852, -2.0 -0.3937 5.5906, -2.0 -2.0812 0.1561, -2.0 -2.0655 0.1181, -2.0 -2.0405 0.0855, -2.0 -2.0079 0.0605, -2.0 -1.9699 0.0447, -2.0 1.8912 0.0447, -2.0 -0.2573 5.5118, -2.0 1.9868 5.3543, -2.0 1.9618 5.3869, -2.0 2.0025 5.3164, -2.0 1.9291 5.412, -2.0 1.8912 5.4277, -2.0 -0.2416 5.4738, -2.0 -2.0405 5.5444, -2.0 -2.0655 5.5118, -2.0 -2.0079 5.5695, -2.0 -1.9699 5.5852, -2.0 -1.9291 5.5906, -2.0 -2.0812 5.4738, -2.0 1.9291 0.0605, -2.0 1.9618 0.0855, -2.0 2.0025 0.1561, -2.0 1.9868 0.1181, -3.6457 -0.5905 5.5906, -3.0827 -1.6925 5.5906, -2.4921 -1.6925 5.5906, -2.3698 -1.5987 5.5906, -2.276 -1.4764 5.5906, -2.6346 -1.7515 5.5906, -2.7874 -1.7717 5.5906, -2.9402 -1.7515 5.5906, -3.6457 -1.378 5.5906, -3.205 -1.5987 5.5906, -3.2988 -1.4764 5.5906, -3.3578 -1.0283 5.5906, -3.378 -1.1811 5.5906, -3.3578 -1.3339 5.5906, -2.4921 -0.6697 5.5906, -2.3698 -0.7635 5.5906, -2.276 -0.8858 5.5906, -3.2988 -0.8858 5.5906, -3.205 -0.7635 5.5906, -3.0827 -0.6697 5.5906, -2.217 -1.0283 5.5906, -2.1969 -1.1811 5.5906, -2.217 -1.3339 5.5906, -2.9402 -0.6107 5.5906, -2.7874 -0.5905 5.5906, -2.6346 -0.6107 5.5906, -2.7874 -0.5905 4.9606, -2.9402 -0.6107 4.9606, -3.0827 -0.6697 4.9606, -3.205 -0.7635 4.9606, -3.2988 -0.8858 4.9606, -3.3578 -1.0283 4.9606, -3.378 -1.1811 4.9606, -3.3578 -1.3339 4.9606, -3.2988 -1.4764 4.9606, -3.205 -1.5987 4.9606, -3.0827 -1.6925 4.9606, -2.9402 -1.7515 4.9606, -2.7874 -1.7717 4.9606, -2.6346 -1.7515 4.9606, -2.4921 -1.6925 4.9606, -2.3698 -1.5987 4.9606, -2.276 -1.4764 4.9606, -2.217 -1.3339 4.9606, -2.1969 -1.1811 4.9606, -2.217 -1.0283 4.9606, -2.276 -0.8858 4.9606, -2.3698 -0.7635 4.9606, -2.4921 -0.6697 4.9606, -2.6346 -0.6107 4.9606, -2.7874 -0.748 1.6535, -2.7874 -0.748 4.8032, -2.8995 -0.7628 1.6535, -2.8995 -0.7628 4.8032, -3.0039 -0.8061 1.6535, -3.0039 -0.8061 4.8032, -3.0936 -0.8749 1.6535, -3.0936 -0.8749 4.8032, -3.1625 -0.9646 1.6535, -3.1625 -0.9646 4.8032, -3.2057 -1.069 1.6535, -3.2057 -1.069 4.8032, -3.2205 -1.1811 1.6535, -3.2205 -1.1811 4.8032, -3.2057 -1.2932 1.6535, -3.2057 -1.2932 4.8032, -3.1625 -1.3976 1.6535, -3.1625 -1.3976 4.8032, -3.0936 -1.4873 1.6535, -3.0936 -1.4873 4.8032, -3.0039 -1.5562 1.6535, -3.0039 -1.5562 4.8032, -2.8995 -1.5994 1.6535, -2.8995 -1.5994 4.8032, -2.7874 -1.6142 1.6535, -2.7874 -1.6142 4.8032, -2.6753 -1.5994 1.6535, -2.6753 -1.5994 4.8032, -2.5709 -1.5562 1.6535, -2.5709 -1.5562 4.8032, -2.4812 -1.4873 1.6535, -2.4812 -1.4873 4.8032, -2.4124 -1.3976 1.6535, -2.4124 -1.3976 4.8032, -2.3691 -1.2932 1.6535, -2.3691 -1.2932 4.8032, -2.3543 -1.1811 1.6535, -2.3543 -1.1811 4.8032, -2.3691 -1.069 1.6535, -2.3691 -1.069 4.8032, -2.4124 -0.9646 1.6535, -2.4124 -0.9646 4.8032, -2.4812 -0.8749 1.6535, -2.4812 -0.8749 4.8032, -2.5709 -0.8061 1.6535, -2.5709 -0.8061 4.8032, -2.6753 -0.7628 1.6535, -2.6753 -0.7628 4.8032, -2.7874 -1.1811 1.6535
            ]
        }
        coordIndex [
            0,1,2,-1,1,0,3,-1,3,0,4,-1,3,4,5,-1,5,4,6,-1,5,6,2,-1,2,6,7,-1,2,7,0,-1,8,9,10,-1,10,9,11,-1,10,11,12,-1,12,11,13,-1,12,13,14,-1,14,13,15,-1,14,15,8,-1,8,15,9,-1,16,17,9,-1,18,19,5,-1,5,19,20,-1,5,20,11,-1,21,22,16,-1,9,23,11,-1,11,23,24,-1,11,24,25,-1,26,27,9,-1,9,27,28,-1,5,29,18,-1,18,29,30,-1,18,30,31,-1,31,30,32,-1,25,33,11,-1,11,33,34,-1,11,34,35,-1,35,36,11,-1,11,36,3,-1,11,3,5,-1,17,37,9,-1,9,37,38,-1,9,38,39,-1,28,40,41,-1,39,42,9,-1,9,42,43,-1,9,43,23,-1,41,44,28,-1,28,44,45,-1,28,45,9,-1,9,45,46,-1,9,46,16,-1,16,46,47,-1,16,47,48,-1,48,49,16,-1,16,49,50,-1,16,50,21,-1,51,52,24,-1,53,54,55,-1,55,54,56,-1,55,56,23,-1,23,56,57,-1,24,52,58,-1,58,52,59,-1,58,59,60,-1,55,58,53,-1,53,58,60,-1,53,60,57,-1,57,60,51,-1,57,51,23,-1,23,51,24,-1,61,62,63,-1,63,62,64,-1,65,66,67,-1,68,2,62,-1,62,2,1,-1,62,1,69,-1,69,70,62,-1,62,70,71,-1,62,71,72,-1,72,73,62,-1,62,73,58,-1,62,58,64,-1,64,58,55,-1,64,55,74,-1,65,67,75,-1,76,77,78,-1,78,77,79,-1,78,79,63,-1,63,79,80,-1,63,80,61,-1,68,62,67,-1,67,62,81,-1,67,81,75,-1,82,83,84,-1,84,83,85,-1,68,86,2,-1,2,86,85,-1,2,85,87,-1,87,85,83,-1,74,88,64,-1,64,88,89,-1,64,89,90,-1,90,89,91,-1,68,27,92,-1,92,27,26,-1,20,19,93,-1,94,86,95,-1,95,86,96,-1,94,97,86,-1,86,97,98,-1,86,98,19,-1,19,98,99,-1,19,99,93,-1,20,93,100,-1,100,93,101,-1,100,101,102,-1,103,92,104,-1,104,92,100,-1,104,100,105,-1,105,100,102,-1,106,107,68,-1,68,107,108,-1,103,109,92,-1,92,109,110,-1,92,110,111,-1,108,112,68,-1,68,112,113,-1,68,113,86,-1,86,113,114,-1,86,114,96,-1,111,115,92,-1,92,115,116,-1,92,116,68,-1,68,116,117,-1,68,117,106,-1,17,16,64,-1,64,16,63,-1,118,116,119,-1,119,116,115,-1,119,115,120,-1,120,115,111,-1,120,111,121,-1,121,111,110,-1,121,110,122,-1,122,110,109,-1,122,109,123,-1,123,109,103,-1,123,103,124,-1,124,103,104,-1,124,104,125,-1,125,104,105,-1,125,105,126,-1,126,105,102,-1,126,102,127,-1,127,102,101,-1,127,101,128,-1,128,101,93,-1,128,93,129,-1,129,93,99,-1,129,99,130,-1,130,99,98,-1,130,98,131,-1,131,98,97,-1,131,97,132,-1,132,97,94,-1,132,94,133,-1,133,94,95,-1,133,95,134,-1,134,95,96,-1,134,96,135,-1,135,96,114,-1,135,114,136,-1,136,114,113,-1,136,113,137,-1,137,113,112,-1,137,112,138,-1,138,112,108,-1,138,108,139,-1,139,108,107,-1,139,107,140,-1,140,107,106,-1,140,106,141,-1,141,106,117,-1,141,117,118,-1,118,117,116,-1,142,143,144,-1,144,143,145,-1,144,145,146,-1,146,145,147,-1,146,147,148,-1,148,147,149,-1,148,149,150,-1,150,149,151,-1,150,151,152,-1,152,151,153,-1,152,153,154,-1,154,153,155,-1,154,155,156,-1,156,155,157,-1,156,157,158,-1,158,157,159,-1,158,159,160,-1,160,159,161,-1,160,161,162,-1,162,161,163,-1,162,163,164,-1,164,163,165,-1,164,165,166,-1,166,165,167,-1,166,167,168,-1,168,167,169,-1,168,169,170,-1,170,169,171,-1,170,171,172,-1,172,171,173,-1,172,173,174,-1,174,173,175,-1,174,175,176,-1,176,175,177,-1,176,177,178,-1,178,177,179,-1,178,179,180,-1,180,179,181,-1,180,181,182,-1,182,181,183,-1,182,183,184,-1,184,183,185,-1,184,185,186,-1,186,185,187,-1,186,187,188,-1,188,187,189,-1,188,189,142,-1,142,189,143,-1,186,188,190,-1,190,188,142,-1,190,142,144,-1,180,182,190,-1,190,182,184,-1,190,184,186,-1,174,176,190,-1,190,176,178,-1,190,178,180,-1,168,170,190,-1,190,170,172,-1,190,172,174,-1,162,164,190,-1,190,164,166,-1,190,166,168,-1,156,158,190,-1,190,158,160,-1,190,160,162,-1,150,152,190,-1,190,152,154,-1,190,154,156,-1,144,146,190,-1,190,146,148,-1,190,148,150,-1,145,119,147,-1,147,119,120,-1,147,120,149,-1,149,120,121,-1,149,121,151,-1,151,121,122,-1,151,122,153,-1,153,122,123,-1,153,123,155,-1,155,123,124,-1,155,124,157,-1,157,124,125,-1,157,125,159,-1,159,125,126,-1,159,126,161,-1,161,126,127,-1,161,127,163,-1,163,127,128,-1,163,128,165,-1,165,128,129,-1,165,129,167,-1,167,129,130,-1,167,130,169,-1,169,130,131,-1,169,131,171,-1,171,131,132,-1,171,132,173,-1,173,132,133,-1,173,133,175,-1,175,133,134,-1,175,134,177,-1,177,134,135,-1,177,135,179,-1,179,135,136,-1,179,136,181,-1,181,136,137,-1,181,137,183,-1,183,137,138,-1,183,138,185,-1,185,138,139,-1,185,139,187,-1,187,139,140,-1,187,140,189,-1,189,140,141,-1,189,141,143,-1,143,141,118,-1,143,118,145,-1,145,118,119,-1,13,11,100,-1,100,11,20,-1,92,26,15,-1,15,26,9,-1,15,13,92,-1,92,13,100,-1,
        ]
    }
}
Shape{
    appearance Appearance {
        material  Material 	{
            diffuseColor 0.6352941176470588 0.30980392156862746 0.023529411764705882
            specularColor 0.047058823529411764 0.023529411764705882 0.0
            ambientIntensity 0.5357
            transparency 0.0
            shininess 0.5
        }
    }
    geometry IndexedFaceSet {
        ccw TRUE
        solid FALSE
        coord DEF co Coordinate {
            point [
                -3.9803 -0.6102 5.3937, -3.6654 -0.6102 5.3937, -3.9803 -0.6102 4.0158, -3.6654 -0.6102 4.0158, -3.9803 -1.3583 5.3937, -3.9803 -1.3583 4.0158, -3.6654 -1.3583 5.3937, -3.6654 -1.3583 4.0158
            ]
        }
        coordIndex [
            0,1,2,-1,2,1,3,-1,4,0,5,-1,5,0,2,-1,6,4,7,-1,7,4,5,-1,1,6,3,-1,3,6,7,-1,4,6,0,-1,0,6,1,-1,
        ]
    }
}
Shape{
    appearance Appearance {
        material  Material 	{
            diffuseColor 0.35294117647058826 0.7019607843137254 0.35294117647058826
            specularColor 0.023529411764705882 0.050980392156862744 0.023529411764705882
            ambientIntensity 0.7943
            transparency 0.0
            shininess 0.5
        }
    }
    geometry IndexedFaceSet {
        ccw TRUE
        solid FALSE
        coord DEF co Coordinate {
            point [
                -4.0 1.8504 5.4331, -4.0 -0.2362 5.4331, -2.0 1.8504 5.4331, -2.0 -0.2362 5.4331, -4.0 -1.9291 0.0394, -2.0 -1.9291 0.0394, -2.0 -1.9699 0.0447, -4.0 -1.9699 0.0447, -2.0 -2.0079 0.0605, -4.0 -2.0079 0.0605, -2.0 -2.0405 0.0855, -4.0 -2.0405 0.0855, -2.0 -2.0655 0.1181, -4.0 -2.0655 0.1181, -2.0 -2.0812 0.1561, -4.0 -2.0812 0.1561, -2.0 -2.0866 0.1969, -4.0 -2.0866 0.1969, -2.0 1.8504 0.0394, -4.0 1.8504 0.0394, -4.0 1.8912 0.0447, -2.0 1.8912 0.0447, -4.0 1.9291 0.0605, -2.0 1.9291 0.0605, -4.0 1.9618 0.0855, -2.0 1.9618 0.0855, -4.0 1.9868 0.1181, -2.0 1.9868 0.1181, -4.0 2.0025 0.1561, -2.0 2.0025 0.1561, -4.0 2.0079 0.1969, -2.0 2.0079 0.1969, -2.0 1.8912 5.4277, -4.0 1.8912 5.4277, -2.0 1.9291 5.412, -4.0 1.9291 5.412, -2.0 1.9618 5.3869, -4.0 1.9618 5.3869, -2.0 1.9868 5.3543, -4.0 1.9868 5.3543, -2.0 2.0025 5.3164, -4.0 2.0025 5.3164, -2.0 2.0079 5.2756, -4.0 2.0079 5.2756, -4.0 -0.3937 5.5906, -2.0 -0.3937 5.5906, -2.0 -0.3529 5.5852, -4.0 -0.3529 5.5852, -2.0 -0.315 5.5695, -4.0 -0.315 5.5695, -2.0 -0.2823 5.5444, -4.0 -0.2823 5.5444, -2.0 -0.2573 5.5118, -4.0 -0.2573 5.5118, -2.0 -0.2416 5.4738, -4.0 -0.2416 5.4738, -2.0 -1.9291 5.5906, -4.0 -1.9291 5.5906, -4.0 -1.9699 5.5852, -2.0 -1.9699 5.5852, -4.0 -2.0079 5.5695, -2.0 -2.0079 5.5695, -4.0 -2.0405 5.5444, -2.0 -2.0405 5.5444, -4.0 -2.0655 5.5118, -2.0 -2.0655 5.5118, -4.0 -2.0812 5.4738, -2.0 -2.0812 5.4738, -4.0 -2.0866 5.4331, -2.0 -2.0866 5.4331
            ]
        }
        coordIndex [
            0,1,2,-1,2,1,3,-1,4,5,6,-1,4,6,7,-1,7,6,8,-1,7,8,9,-1,9,8,10,-1,9,10,11,-1,11,10,12,-1,11,12,13,-1,13,12,14,-1,13,14,15,-1,15,14,16,-1,15,16,17,-1,18,19,20,-1,18,20,21,-1,21,20,22,-1,21,22,23,-1,23,22,24,-1,23,24,25,-1,25,24,26,-1,25,26,27,-1,27,26,28,-1,27,28,29,-1,29,28,30,-1,29,30,31,-1,0,2,32,-1,0,32,33,-1,33,32,34,-1,33,34,35,-1,35,34,36,-1,35,36,37,-1,37,36,38,-1,37,38,39,-1,39,38,40,-1,39,40,41,-1,41,40,42,-1,41,42,43,-1,44,45,46,-1,44,46,47,-1,47,46,48,-1,47,48,49,-1,49,48,50,-1,49,50,51,-1,51,50,52,-1,51,52,53,-1,53,52,54,-1,53,54,55,-1,55,54,3,-1,55,3,1,-1,56,57,58,-1,56,58,59,-1,59,58,60,-1,59,60,61,-1,61,60,62,-1,61,62,63,-1,63,62,64,-1,63,64,65,-1,65,64,66,-1,65,66,67,-1,67,66,68,-1,67,68,69,-1,
        ]
    }
}
Shape{
    appearance Appearance {
        material  Material 	{
            diffuseColor 0.6352941176470588 0.30980392156862746 0.023529411764705882
            specularColor 0.047058823529411764 0.023529411764705882 0.0
            ambientIntensity 0.5357
            transparency 0.0
            shininess 0.5
        }
    }
    geometry IndexedFaceSet {
        ccw TRUE
        solid FALSE
        coord DEF co Coordinate {
            point [
                -2.1063 -2.1654 4.311, -2.1063 -2.0866 4.311, -3.9961 -2.1654 4.311, -3.9961 -2.0866 4.311, -2.1063 -2.1654 5.4921, -3.9961 -2.1654 5.4921, -2.1063 -2.4409 5.4921, -3.6417 -2.4409 5.4921, -3.6417 -2.9134 5.4921, -3.9961 -3.189 5.4921, -2.1063 -2.9134 5.4921, -2.1063 -3.189 5.4921, -2.1063 -3.189 2.584, -3.9961 -3.189 2.584, -3.9961 -3.1837 2.5386, -2.1063 -3.1837 2.5386, -3.9961 -3.168 2.4956, -2.1063 -3.168 2.4956, -3.9961 -3.1429 2.4574, -2.1063 -3.1429 2.4574, -3.9961 -3.1097 2.4261, -2.1063 -3.1097 2.4261, -3.9961 -3.0701 2.4032, -2.1063 -3.0701 2.4032, -3.9961 -3.0263 2.3901, -2.1063 -3.0263 2.3901, -2.1063 -2.0866 2.2244, -3.9961 -2.0866 2.2244, -2.1063 -2.9134 4.8622, -2.1063 -2.4409 4.8622, -3.6417 -2.9134 4.8622, -3.6417 -2.4409 4.8622
            ]
        }
        coordIndex [
            0,1,2,-1,2,1,3,-1,4,0,5,-1,5,0,2,-1,6,4,7,-1,7,4,5,-1,7,5,8,-1,8,5,9,-1,8,9,10,-1,10,9,11,-1,12,11,13,-1,13,11,9,-1,12,13,14,-1,12,14,15,-1,15,14,16,-1,15,16,17,-1,17,16,18,-1,17,18,19,-1,19,18,20,-1,19,20,21,-1,21,20,22,-1,21,22,23,-1,23,22,24,-1,23,24,25,-1,26,25,27,-1,27,25,24,-1,0,12,15,-1,10,11,28,-1,28,11,12,-1,28,12,29,-1,29,12,0,-1,29,0,6,-1,6,0,4,-1,15,17,0,-1,0,17,19,-1,0,19,21,-1,26,1,25,-1,25,1,0,-1,25,0,23,-1,23,0,21,-1,9,5,13,-1,13,5,2,-1,13,2,14,-1,2,3,27,-1,27,24,2,-1,2,24,22,-1,2,22,20,-1,20,18,2,-1,2,18,16,-1,2,16,14,-1,28,30,10,-1,10,30,8,-1,30,31,8,-1,8,31,7,-1,31,29,7,-1,7,29,6,-1,31,30,29,-1,29,30,28,-1,
        ]
    }
}
Shape{
    appearance Appearance {
        material  Material 	{
            diffuseColor 0.6666666666666666 0.6666666666666666 0.6666666666666666
            specularColor 0.4666666666666667 0.4666666666666667 0.4666666666666667
            ambientIntensity 0.6667
            transparency 0.0
            shininess 0.5
        }
    }
    geometry IndexedFaceSet {
        ccw TRUE
        solid FALSE
        coord DEF co Coordinate {
            point [
                -3.1969 -1.5945 -1.0141, -3.1969 -1.5945 0.0394, -3.1969 -1.3976 -1.0141, -3.1969 -1.3976 0.0394, -2.8031 -1.3976 0.0394, -2.8031 -1.3976 -1.0141, -3.0787 -1.3976 -1.3386, -2.9213 -1.3976 -1.3386, -2.8031 -1.5945 -1.0141, -2.8031 -1.5945 0.0394, -3.0787 -1.5945 -1.3386, -2.9213 -1.5945 -1.3386, -3.1969 1.4055 -1.0141, -3.1969 1.4055 0.0394, -3.1969 1.6024 -1.0141, -3.1969 1.6024 0.0394, -2.8031 1.6024 0.0394, -2.8031 1.6024 -1.0141, -3.0787 1.6024 -1.3386, -2.9213 1.6024 -1.3386, -2.8031 1.4055 -1.0141, -2.8031 1.4055 0.0394, -3.0787 1.4055 -1.3386, -2.9213 1.4055 -1.3386
            ]
        }
        coordIndex [
            0,1,2,-1,2,1,3,-1,3,4,2,-1,2,4,5,-1,2,5,6,-1,6,5,7,-1,5,4,8,-1,8,4,9,-1,10,11,0,-1,0,11,8,-1,0,8,1,-1,1,8,9,-1,6,7,10,-1,10,7,11,-1,10,0,6,-1,6,0,2,-1,7,5,11,-1,11,5,8,-1,12,13,14,-1,14,13,15,-1,15,16,14,-1,14,16,17,-1,14,17,18,-1,18,17,19,-1,17,16,20,-1,20,16,21,-1,22,23,12,-1,12,23,20,-1,12,20,13,-1,13,20,21,-1,18,19,22,-1,22,19,23,-1,22,12,18,-1,18,12,14,-1,19,17,23,-1,23,17,20,-1,
        ]
    }
}
Shape{
    appearance Appearance {
        material  Material 	{
            diffuseColor 0.35294117647058826 0.7019607843137254 0.35294117647058826
            specularColor 0.023529411764705882 0.050980392156862744 0.023529411764705882
            ambientIntensity 0.7943
            transparency 0.0
            shininess 0.5
        }
    }
    geometry IndexedFaceSet {
        ccw TRUE
        solid FALSE
        coord DEF co Coordinate {
            point [
                -5.0 2.0079 0.1969, -4.0 2.0079 0.1969, -4.0 2.0025 0.1561, -5.0 2.0025 0.1561, -4.0 1.9868 0.1181, -5.0 1.9868 0.1181, -4.0 1.9618 0.0855, -5.0 1.9618 0.0855, -4.0 1.9291 0.0605, -5.0 1.9291 0.0605, -4.0 1.8912 0.0447, -5.0 1.8912 0.0447, -4.0 1.8504 0.0394, -5.0 1.8504 0.0394, -5.0 -1.9291 0.0394, -4.0 -1.9291 0.0394, -4.0 -1.9699 0.0447, -5.0 -1.9699 0.0447, -4.0 -2.0079 0.0605, -5.0 -2.0079 0.0605, -4.0 -2.0405 0.0855, -5.0 -2.0405 0.0855, -4.0 -2.0655 0.1181, -5.0 -2.0655 0.1181, -4.0 -2.0812 0.1561, -5.0 -2.0812 0.1561, -4.0 -2.0866 0.1969, -5.0 -2.0866 0.1969, -5.0 -2.0866 5.4331, -4.0 -2.0866 5.4331, -4.0 -2.0812 5.4738, -5.0 -2.0812 5.4738, -4.0 -2.0655 5.5118, -5.0 -2.0655 5.5118, -4.0 -2.0405 5.5444, -5.0 -2.0405 5.5444, -4.0 -2.0079 5.5695, -5.0 -2.0079 5.5695, -4.0 -1.9699 5.5852, -5.0 -1.9699 5.5852, -4.0 -1.9291 5.5906, -5.0 -1.9291 5.5906, -5.0 -0.3937 5.5906, -4.0 -0.3937 5.5906, -4.0 -0.3529 5.5852, -5.0 -0.3529 5.5852, -4.0 -0.315 5.5695, -5.0 -0.315 5.5695, -4.0 -0.2823 5.5444, -5.0 -0.2823 5.5444, -4.0 -0.2573 5.5118, -5.0 -0.2573 5.5118, -4.0 -0.2416 5.4738, -5.0 -0.2416 5.4738, -4.0 -0.2362 5.4331, -5.0 -0.2362 5.4331, -5.0 1.8504 5.4331, -4.0 1.8504 5.4331, -4.0 1.8912 5.4277, -5.0 1.8912 5.4277, -4.0 1.9291 5.412, -5.0 1.9291 5.412, -4.0 1.9618 5.3869, -5.0 1.9618 5.3869, -4.0 1.9868 5.3543, -5.0 1.9868 5.3543, -4.0 2.0025 5.3164, -5.0 2.0025 5.3164, -4.0 2.0079 5.2756, -5.0 2.0079 5.2756, 3.5545 -0.8981 0.0394, 3.5545 -1.7618 0.0394, 3.2209 -1.7618 0.0394, 4.0 -1.7618 0.0394, 4.0 -1.9291 0.0394, 3.5545 -1.9291 0.0394, 3.1824 1.4055 0.0394, 3.1824 0.7052 0.0394, 2.9184 0.7052 0.0394, 3.2209 0.7052 0.0394, 3.1969 1.4055 0.0394, 3.2209 1.8504 0.0394, 3.1969 1.6024 0.0394, 3.1824 1.8504 0.0394, 2.9184 1.6024 0.0394, 2.8031 1.6024 0.0394, 2.6831 1.8504 0.0394, 2.6831 0.7052 0.0394, 2.8031 1.4055 0.0394, 2.9184 1.4055 0.0394, 2.9184 1.8504 0.0394, 3.1824 1.6024 0.0394, 3.1824 -1.5945 0.0394, 3.1969 -1.5945 0.0394, 3.1824 -0.8981 0.0394, 3.2209 -0.8981 0.0394, 3.1969 -1.3976 0.0394, 3.1824 -1.7618 0.0394, 2.9184 -1.7618 0.0394, 2.9184 -1.5945 0.0394, 2.8031 -1.5945 0.0394, 2.6831 -1.7618 0.0394, 2.8031 -1.3976 0.0394, 2.6831 -0.8981 0.0394, 2.9184 -1.3976 0.0394, 2.88 -0.3937 0.0394, 2.88 0.0 0.0394, 2.9184 0.0024 0.0394, 2.7689 0.0 0.0394, 2.6831 0.0024 0.0394, 2.712 -0.0061 0.0394, 2.6831 -0.0162 0.0394, 2.5487 0.0024 0.0394, 2.6659 -0.0223 0.0394, 2.6231 -0.051 0.0394, 2.5487 -0.3961 0.0394, 2.5827 -0.2858 0.0394, 2.6053 -0.321 0.0394, 2.6227 -0.0513 0.0394, 2.5948 -0.0822 0.0394, 2.5765 -0.1161 0.0394, 2.6377 -0.352 0.0394, 2.6788 -0.3759 0.0394, 2.6831 -0.3961 0.0394, 2.6831 -0.3772 0.0394, 2.7242 -0.3894 0.0394, 2.5659 -0.1549 0.0394, 2.5631 -0.1919 0.0394, 2.5686 -0.2446 0.0394, 3.2449 -0.3301 0.0394, 3.2449 -0.3733 0.0394, 3.2209 -0.3961 0.0394, 3.2868 -0.3905 0.0394, 3.3266 -0.3961 0.0394, 3.2904 0.0016 0.0394, 3.2449 -0.0108 0.0394, 3.2209 0.0024 0.0394, 3.2449 -0.0636 0.0394, 3.2892 -0.0446 0.0394, 3.2519 -0.334 0.0394, 3.3371 -0.0384 0.0394, 3.3758 -0.0428 0.0394, 3.4053 -0.0534 0.0394, 3.4325 -0.0716 0.0394, 3.4563 -0.0979 0.0394, 3.4849 -0.2011 0.0394, 3.4809 -0.2437 0.0394, 3.4702 -0.2775 0.0394, 3.3826 -0.3512 0.0394, 3.3459 -0.3553 0.0394, 3.4113 -0.3406 0.0394, 3.4355 -0.3243 0.0394, 3.454 -0.3048 0.0394, 3.2937 -0.3495 0.0394, 3.4726 -0.1283 0.0394, 3.483 -0.1704 0.0394, 3.3669 0.0024 0.0394, 3.3375 0.0048 0.0394, 3.3027 0.0024 0.0394, 3.4399 -0.3803 0.0394, 3.4715 -0.3601 0.0394, 3.5545 -0.3961 0.0394, 3.5011 -0.329 0.0394, 3.5221 -0.2915 0.0394, 3.517 -0.1037 0.0394, 3.4939 -0.0669 0.0394, 3.5545 0.0024 0.0394, 3.4583 -0.0327 0.0394, 3.4209 -0.0112 0.0394, 3.5339 -0.2499 0.0394, 3.5377 -0.2043 0.0394, 3.5321 -0.1483 0.0394, 3.3424 -0.3983 0.0394, 3.3532 -0.3985 0.0394, 3.3763 -0.3961 0.0394, 4.0 0.0024 0.0394, 4.0 0.7052 0.0394, 3.5545 0.7052 0.0394, 4.0 1.8504 0.0394, 3.5545 1.8504 0.0394, 3.7202 0.0 0.0394, 3.773 0.0 0.0394, 3.773 -0.3937 0.0394, 4.0 -0.3961 0.0394, 3.5713 -0.3937 0.0394, 3.5713 -0.3505 0.0394, 3.7202 -0.3505 0.0394, 4.0 -0.8981 0.0394, 3.3771 0.0016 0.0394, 3.4017 -0.3935 0.0394, 3.1824 -0.3961 0.0394, 3.1824 0.0024 0.0394, 2.9664 -0.0432 0.0394, 2.9664 0.0 0.0394, 3.168 0.0 0.0394, 3.168 -0.3937 0.0394, 2.9568 -0.3937 0.0394, 2.9184 -0.3961 0.0394, 2.9568 -0.3505 0.0394, 3.1152 -0.0432 0.0394, 3.1152 -0.1728 0.0394, 2.976 -0.1728 0.0394, 2.976 -0.2161 0.0394, 3.1152 -0.2161 0.0394, 3.1152 -0.3505 0.0394, 2.7729 -0.3937 0.0394, 2.9184 -0.8981 0.0394, 3.1824 -1.3976 0.0394, 2.5487 0.7052 0.0394, 2.5487 1.8504 0.0394, 2.5487 -1.7618 0.0394, 2.5487 -0.8981 0.0394, 2.0 1.8504 0.0394, 2.0 0.7052 0.0394, 2.0 0.0024 0.0394, 2.4767 -0.3937 0.0394, 2.5343 -0.3937 0.0394, 2.3854 0.0 0.0394, 2.3326 0.0 0.0394, 2.0 -0.3961 0.0394, 2.179 -0.3937 0.0394, 2.2366 -0.3937 0.0394, 2.0 -1.7618 0.0394, 2.0 -0.8981 0.0394, 2.4391 -0.2833 0.0394, 2.2764 -0.2833 0.0394, 3.2209 -1.9291 0.0394, 3.1824 -1.9291 0.0394, 2.9184 -1.9291 0.0394, 2.6831 -1.9291 0.0394, 2.5487 -1.9291 0.0394, 2.0 -1.9291 0.0394, 3.8937 -2.0866 2.2244, 4.0 -2.0866 0.1969, 4.0 -2.0866 5.4331, 2.0 -2.0866 0.1969, 2.0039 -2.0866 2.2244, 2.0 -2.0866 5.4331, 2.0039 -2.0866 4.311, 3.8937 -2.0866 4.311, 2.3346 -0.6102 4.0158, 2.3543 -0.5905 4.0158, 2.0197 -0.6102 4.0158, 2.0 -0.5905 4.0158, 2.0197 -1.3583 4.0158, 2.0 -1.378 4.0158, 2.3346 -1.3583 4.0158, 2.3543 -1.378 4.0158, 2.0 -1.9699 5.5852, 2.0 -1.9291 5.5906, 2.0 -1.378 5.5906, 2.0 1.9291 0.0605, 2.0 1.8912 0.0447, 2.0 -0.5905 5.5906, 2.0 -0.3937 5.5906, 2.0 -0.3529 5.5852, 2.0 -2.0812 5.4738, 2.0 -2.0655 5.5118, 2.0 -2.0079 5.5695, 2.0 -2.0405 5.5444, 2.0 1.9291 5.412, 2.0 1.9618 5.3869, 2.0 1.9868 5.3543, 2.0 2.0079 5.2756, 2.0 2.0079 0.1969, 2.0 2.0025 0.1561, 2.0 -0.315 5.5695, 2.0 -0.2823 5.5444, 2.0 1.9868 0.1181, 2.0 1.9618 0.0855, 2.0 -1.9699 0.0447, 2.0 -0.2573 5.5118, 2.0 -0.2416 5.4738, 2.0 -0.2362 5.4331, 2.0 1.8504 5.4331, 2.0 2.0025 5.3164, 2.0 1.8912 5.4277, 2.0 -2.0079 0.0605, 2.0 -2.0405 0.0855, 2.0 -2.0655 0.1181, 2.0 -2.0812 0.1561, 4.0 1.8504 5.4331, 4.0 -0.2362 5.4331, 4.0 2.0079 5.2756, 4.0 2.0079 0.1969, 4.0 -1.9699 0.0447, 4.0 -0.3937 5.5906, 4.0 -0.3529 5.5852, 4.0 -0.2416 5.4738, 4.0 1.8912 0.0447, 4.0 -2.0812 0.1561, 4.0 -2.0655 0.1181, 4.0 1.9618 5.3869, 4.0 1.9868 5.3543, 4.0 2.0025 5.3164, 4.0 1.9291 5.412, 4.0 1.8912 5.4277, 4.0 -0.2573 5.5118, 4.0 -0.2823 5.5444, 4.0 -0.315 5.5695, 4.0 -2.0405 5.5444, 4.0 -2.0655 5.5118, 4.0 -2.0079 5.5695, 4.0 -1.9699 5.5852, 4.0 -1.9291 5.5906, 4.0 -2.0812 5.4738, 4.0 -2.0405 0.0855, 4.0 -2.0079 0.0605, 4.0 1.9291 0.0605, 4.0 1.9618 0.0855, 4.0 2.0025 0.1561, 4.0 1.9868 0.1181, 2.3543 -0.5905 5.5906, 3.3654 -1.7515 5.5906, 3.2126 -1.7717 5.5906, 2.7012 -1.4764 5.5906, 2.3543 -1.378 5.5906, 2.795 -1.5987 5.5906, 2.9173 -1.6925 5.5906, 3.0598 -1.7515 5.5906, 3.783 -1.0283 5.5906, 3.8031 -1.1811 5.5906, 3.783 -1.3339 5.5906, 3.724 -1.4764 5.5906, 3.6302 -1.5987 5.5906, 3.5079 -1.6925 5.5906, 2.6422 -1.0283 5.5906, 2.622 -1.1811 5.5906, 2.6422 -1.3339 5.5906, 2.7012 -0.8858 5.5906, 2.795 -0.7635 5.5906, 2.9173 -0.6697 5.5906, 3.5079 -0.6697 5.5906, 3.6302 -0.7635 5.5906, 3.724 -0.8858 5.5906, 3.0598 -0.6107 5.5906, 3.2126 -0.5905 5.5906, 3.3654 -0.6107 5.5906, 3.2126 -0.5905 4.9606, 3.0598 -0.6107 4.9606, 2.9173 -0.6697 4.9606, 2.795 -0.7635 4.9606, 2.7012 -0.8858 4.9606, 2.6422 -1.0283 4.9606, 2.622 -1.1811 4.9606, 2.6422 -1.3339 4.9606, 2.7012 -1.4764 4.9606, 2.795 -1.5987 4.9606, 2.9173 -1.6925 4.9606, 3.0598 -1.7515 4.9606, 3.2126 -1.7717 4.9606, 3.3654 -1.7515 4.9606, 3.5079 -1.6925 4.9606, 3.6302 -1.5987 4.9606, 3.724 -1.4764 4.9606, 3.783 -1.3339 4.9606, 3.8031 -1.1811 4.9606, 3.783 -1.0283 4.9606, 3.724 -0.8858 4.9606, 3.6302 -0.7635 4.9606, 3.5079 -0.6697 4.9606, 3.3654 -0.6107 4.9606, 3.2126 -0.748 1.6535, 3.2126 -0.748 4.8032, 3.1005 -0.7628 1.6535, 3.1005 -0.7628 4.8032, 2.9961 -0.8061 1.6535, 2.9961 -0.8061 4.8032, 2.9064 -0.8749 1.6535, 2.9064 -0.8749 4.8032, 2.8375 -0.9646 1.6535, 2.8375 -0.9646 4.8032, 2.7943 -1.069 1.6535, 2.7943 -1.069 4.8032, 2.7795 -1.1811 1.6535, 2.7795 -1.1811 4.8032, 2.7943 -1.2932 1.6535, 2.7943 -1.2932 4.8032, 2.8375 -1.3976 1.6535, 2.8375 -1.3976 4.8032, 2.9064 -1.4873 1.6535, 2.9064 -1.4873 4.8032, 2.9961 -1.5562 1.6535, 2.9961 -1.5562 4.8032, 3.1005 -1.5994 1.6535, 3.1005 -1.5994 4.8032, 3.2126 -1.6142 1.6535, 3.2126 -1.6142 4.8032, 3.3247 -1.5994 1.6535, 3.3247 -1.5994 4.8032, 3.4291 -1.5562 1.6535, 3.4291 -1.5562 4.8032, 3.5188 -1.4873 1.6535, 3.5188 -1.4873 4.8032, 3.5876 -1.3976 1.6535, 3.5876 -1.3976 4.8032, 3.6309 -1.2932 1.6535, 3.6309 -1.2932 4.8032, 3.6457 -1.1811 1.6535, 3.6457 -1.1811 4.8032, 3.6309 -1.069 1.6535, 3.6309 -1.069 4.8032, 3.5876 -0.9646 1.6535, 3.5876 -0.9646 4.8032, 3.5188 -0.8749 1.6535, 3.5188 -0.8749 4.8032, 3.4291 -0.8061 1.6535, 3.4291 -0.8061 4.8032, 3.3247 -0.7628 1.6535, 3.3247 -0.7628 4.8032, 3.2126 -1.1811 1.6535
            ]
        }
        coordIndex [
            0,1,2,-1,0,2,3,-1,3,2,4,-1,3,4,5,-1,5,4,6,-1,5,6,7,-1,7,6,8,-1,7,8,9,-1,9,8,10,-1,9,10,11,-1,11,10,12,-1,11,12,13,-1,14,13,15,-1,15,13,12,-1,14,15,16,-1,14,16,17,-1,17,16,18,-1,17,18,19,-1,19,18,20,-1,19,20,21,-1,21,20,22,-1,21,22,23,-1,23,22,24,-1,23,24,25,-1,25,24,26,-1,25,26,27,-1,28,27,29,-1,29,27,26,-1,28,29,30,-1,28,30,31,-1,31,30,32,-1,31,32,33,-1,33,32,34,-1,33,34,35,-1,35,34,36,-1,35,36,37,-1,37,36,38,-1,37,38,39,-1,39,38,40,-1,39,40,41,-1,42,41,43,-1,43,41,40,-1,42,43,44,-1,42,44,45,-1,45,44,46,-1,45,46,47,-1,47,46,48,-1,47,48,49,-1,49,48,50,-1,49,50,51,-1,51,50,52,-1,51,52,53,-1,53,52,54,-1,53,54,55,-1,56,55,57,-1,57,55,54,-1,56,57,58,-1,56,58,59,-1,59,58,60,-1,59,60,61,-1,61,60,62,-1,61,62,63,-1,63,62,64,-1,63,64,65,-1,65,64,66,-1,65,66,67,-1,67,66,68,-1,67,68,69,-1,0,69,1,-1,1,69,68,-1,13,14,55,-1,39,41,37,-1,37,41,35,-1,55,56,13,-1,13,56,69,-1,13,69,0,-1,28,31,41,-1,41,31,33,-1,41,33,35,-1,28,41,27,-1,27,41,42,-1,27,42,45,-1,45,47,27,-1,27,47,49,-1,27,49,51,-1,19,21,17,-1,17,21,14,-1,51,53,27,-1,27,53,55,-1,27,55,25,-1,25,55,14,-1,25,14,23,-1,23,14,21,-1,63,56,61,-1,61,56,59,-1,7,0,5,-1,5,0,3,-1,7,9,0,-1,0,9,11,-1,0,11,13,-1,63,65,56,-1,56,65,67,-1,56,67,69,-1,60,58,57,-1,16,15,24,-1,44,43,26,-1,26,43,40,-1,26,40,29,-1,29,40,30,-1,24,15,26,-1,40,38,36,-1,1,10,8,-1,8,6,1,-1,1,6,4,-1,1,4,2,-1,1,68,57,-1,57,68,66,-1,10,1,12,-1,12,1,57,-1,12,57,15,-1,15,57,54,-1,15,54,26,-1,26,54,52,-1,26,52,50,-1,50,48,26,-1,26,48,46,-1,26,46,44,-1,36,34,40,-1,40,34,32,-1,40,32,30,-1,66,64,57,-1,57,64,62,-1,57,62,60,-1,16,24,18,-1,18,24,22,-1,18,22,20,-1,70,71,72,-1,73,74,75,-1,76,77,78,-1,77,76,79,-1,79,76,80,-1,79,80,81,-1,81,80,82,-1,81,82,83,-1,84,85,86,-1,87,88,78,-1,78,88,89,-1,78,89,76,-1,86,90,84,-1,84,90,83,-1,84,83,91,-1,91,83,82,-1,92,93,72,-1,94,95,96,-1,72,97,92,-1,92,97,98,-1,92,98,99,-1,99,98,100,-1,100,98,101,-1,100,101,102,-1,102,101,103,-1,102,103,104,-1,105,106,107,-1,107,106,108,-1,107,108,109,-1,108,110,109,-1,109,110,111,-1,109,111,112,-1,112,111,113,-1,112,113,114,-1,115,116,117,-1,114,118,112,-1,112,118,119,-1,112,119,120,-1,121,122,123,-1,123,122,124,-1,123,124,125,-1,120,126,112,-1,112,126,127,-1,112,127,115,-1,115,127,128,-1,115,128,116,-1,129,130,131,-1,131,130,132,-1,131,132,133,-1,134,135,136,-1,136,135,137,-1,136,137,129,-1,129,137,138,-1,129,138,139,-1,139,138,140,-1,139,140,141,-1,141,142,139,-1,139,142,143,-1,139,143,144,-1,145,146,139,-1,139,146,147,-1,148,149,150,-1,150,149,151,-1,147,152,139,-1,139,152,151,-1,139,151,153,-1,153,151,149,-1,144,154,139,-1,139,154,155,-1,139,155,145,-1,156,157,79,-1,79,157,158,-1,159,160,161,-1,161,160,162,-1,161,162,163,-1,164,165,166,-1,166,165,167,-1,166,167,168,-1,163,169,161,-1,161,169,170,-1,161,170,166,-1,166,170,171,-1,166,171,164,-1,133,172,95,-1,95,172,173,-1,95,173,174,-1,175,166,176,-1,176,166,177,-1,176,177,178,-1,178,177,179,-1,180,166,181,-1,181,166,175,-1,181,175,182,-1,182,175,183,-1,184,161,185,-1,185,161,166,-1,185,166,186,-1,186,166,180,-1,73,71,187,-1,187,71,70,-1,187,70,183,-1,183,70,161,-1,183,161,182,-1,182,161,184,-1,168,188,166,-1,166,188,156,-1,166,156,177,-1,177,156,79,-1,177,79,179,-1,179,79,81,-1,93,96,72,-1,72,96,95,-1,72,95,70,-1,70,95,174,-1,70,174,161,-1,161,174,189,-1,161,189,159,-1,129,131,136,-1,136,131,190,-1,136,190,191,-1,192,107,193,-1,193,107,191,-1,193,191,194,-1,194,191,195,-1,195,191,190,-1,195,190,196,-1,196,190,197,-1,196,197,198,-1,199,200,192,-1,192,200,201,-1,192,201,107,-1,107,201,202,-1,203,204,202,-1,202,204,198,-1,202,198,107,-1,107,198,197,-1,107,197,105,-1,105,197,205,-1,133,95,131,-1,131,95,94,-1,131,94,190,-1,190,94,206,-1,190,206,197,-1,112,87,109,-1,109,87,78,-1,109,78,107,-1,107,78,77,-1,107,77,191,-1,191,77,79,-1,191,79,136,-1,136,79,158,-1,136,158,134,-1,96,207,94,-1,94,207,104,-1,94,104,206,-1,206,104,103,-1,206,103,197,-1,197,103,123,-1,197,123,205,-1,205,123,125,-1,208,209,86,-1,101,210,103,-1,103,210,211,-1,103,211,123,-1,123,211,115,-1,123,115,121,-1,121,115,117,-1,212,209,213,-1,213,209,208,-1,213,208,214,-1,215,216,115,-1,115,216,112,-1,112,216,217,-1,112,217,218,-1,85,88,86,-1,86,88,87,-1,86,87,208,-1,208,87,112,-1,208,112,214,-1,214,112,218,-1,214,218,219,-1,219,218,220,-1,219,220,221,-1,210,222,211,-1,211,222,223,-1,211,223,115,-1,115,223,219,-1,115,219,215,-1,215,219,221,-1,215,221,224,-1,224,221,225,-1,73,75,71,-1,71,75,226,-1,71,226,72,-1,72,226,227,-1,72,227,97,-1,97,227,228,-1,97,228,98,-1,98,228,229,-1,98,229,101,-1,101,229,230,-1,101,230,210,-1,210,230,231,-1,210,231,222,-1,232,233,234,-1,233,232,235,-1,235,232,236,-1,235,236,237,-1,237,236,238,-1,237,238,234,-1,234,238,239,-1,234,239,232,-1,240,241,242,-1,242,241,243,-1,242,243,244,-1,244,243,245,-1,244,245,246,-1,246,245,247,-1,246,247,240,-1,240,247,241,-1,248,249,237,-1,237,249,250,-1,237,250,245,-1,251,252,243,-1,243,252,212,-1,243,212,213,-1,245,243,223,-1,253,254,243,-1,243,254,255,-1,237,256,248,-1,248,256,257,-1,248,257,258,-1,258,257,259,-1,213,214,243,-1,243,214,219,-1,243,219,223,-1,260,261,262,-1,263,264,243,-1,243,264,265,-1,255,266,267,-1,265,268,243,-1,243,268,269,-1,243,269,251,-1,223,222,245,-1,245,222,231,-1,245,231,270,-1,267,271,255,-1,255,271,272,-1,255,272,243,-1,243,272,273,-1,243,273,263,-1,263,273,274,-1,263,274,275,-1,275,274,262,-1,262,274,276,-1,262,276,260,-1,270,277,245,-1,245,277,278,-1,245,278,279,-1,279,280,245,-1,245,280,235,-1,245,235,237,-1,281,282,283,-1,283,282,284,-1,282,187,183,-1,285,74,282,-1,282,74,73,-1,282,73,187,-1,286,282,287,-1,287,282,288,-1,183,175,282,-1,282,175,176,-1,282,176,284,-1,284,176,178,-1,284,178,289,-1,290,291,282,-1,292,283,293,-1,293,283,294,-1,292,295,283,-1,283,295,296,-1,283,296,281,-1,288,297,287,-1,287,297,298,-1,287,298,299,-1,300,301,302,-1,302,301,303,-1,286,304,234,-1,234,304,303,-1,234,303,305,-1,305,303,301,-1,286,234,282,-1,282,234,233,-1,282,233,290,-1,291,306,282,-1,282,306,307,-1,282,307,285,-1,289,308,284,-1,284,308,309,-1,284,309,310,-1,310,309,311,-1,286,254,312,-1,312,254,253,-1,313,314,304,-1,304,314,249,-1,315,316,317,-1,317,316,318,-1,316,250,318,-1,318,250,249,-1,318,249,319,-1,319,249,314,-1,286,320,321,-1,286,321,304,-1,304,321,322,-1,304,322,323,-1,323,324,304,-1,304,324,325,-1,304,325,313,-1,326,312,327,-1,327,312,316,-1,327,316,328,-1,328,316,315,-1,326,329,312,-1,312,329,330,-1,312,330,331,-1,332,333,286,-1,286,333,334,-1,286,334,320,-1,331,335,312,-1,312,335,336,-1,312,336,286,-1,286,336,337,-1,286,337,332,-1,264,263,284,-1,284,263,283,-1,338,336,339,-1,339,336,335,-1,339,335,340,-1,340,335,331,-1,340,331,341,-1,341,331,330,-1,341,330,342,-1,342,330,329,-1,342,329,343,-1,343,329,326,-1,343,326,344,-1,344,326,327,-1,344,327,345,-1,345,327,328,-1,345,328,346,-1,346,328,315,-1,346,315,347,-1,347,315,317,-1,347,317,348,-1,348,317,318,-1,348,318,349,-1,349,318,319,-1,349,319,350,-1,350,319,314,-1,350,314,351,-1,351,314,313,-1,351,313,352,-1,352,313,325,-1,352,325,353,-1,353,325,324,-1,353,324,354,-1,354,324,323,-1,354,323,355,-1,355,323,322,-1,355,322,356,-1,356,322,321,-1,356,321,357,-1,357,321,320,-1,357,320,358,-1,358,320,334,-1,358,334,359,-1,359,334,333,-1,359,333,360,-1,360,333,332,-1,360,332,361,-1,361,332,337,-1,361,337,338,-1,338,337,336,-1,362,363,364,-1,364,363,365,-1,364,365,366,-1,366,365,367,-1,366,367,368,-1,368,367,369,-1,368,369,370,-1,370,369,371,-1,370,371,372,-1,372,371,373,-1,372,373,374,-1,374,373,375,-1,374,375,376,-1,376,375,377,-1,376,377,378,-1,378,377,379,-1,378,379,380,-1,380,379,381,-1,380,381,382,-1,382,381,383,-1,382,383,384,-1,384,383,385,-1,384,385,386,-1,386,385,387,-1,386,387,388,-1,388,387,389,-1,388,389,390,-1,390,389,391,-1,390,391,392,-1,392,391,393,-1,392,393,394,-1,394,393,395,-1,394,395,396,-1,396,395,397,-1,396,397,398,-1,398,397,399,-1,398,399,400,-1,400,399,401,-1,400,401,402,-1,402,401,403,-1,402,403,404,-1,404,403,405,-1,404,405,406,-1,406,405,407,-1,406,407,408,-1,408,407,409,-1,408,409,362,-1,362,409,363,-1,406,408,410,-1,410,408,362,-1,410,362,364,-1,400,402,410,-1,410,402,404,-1,410,404,406,-1,394,396,410,-1,410,396,398,-1,410,398,400,-1,388,390,410,-1,410,390,392,-1,410,392,394,-1,382,384,410,-1,410,384,386,-1,410,386,388,-1,376,378,410,-1,410,378,380,-1,410,380,382,-1,370,372,410,-1,410,372,374,-1,410,374,376,-1,364,366,410,-1,410,366,368,-1,410,368,370,-1,365,339,367,-1,367,339,340,-1,367,340,369,-1,369,340,341,-1,369,341,371,-1,371,341,342,-1,371,342,373,-1,373,342,343,-1,373,343,375,-1,375,343,344,-1,375,344,377,-1,377,344,345,-1,377,345,379,-1,379,345,346,-1,379,346,381,-1,381,346,347,-1,381,347,383,-1,383,347,348,-1,383,348,385,-1,385,348,349,-1,385,349,387,-1,387,349,350,-1,387,350,389,-1,389,350,351,-1,389,351,391,-1,391,351,352,-1,391,352,393,-1,393,352,353,-1,393,353,395,-1,395,353,354,-1,395,354,397,-1,397,354,355,-1,397,355,399,-1,399,355,356,-1,399,356,401,-1,401,356,357,-1,401,357,403,-1,403,357,358,-1,403,358,405,-1,405,358,359,-1,405,359,407,-1,407,359,360,-1,407,360,409,-1,409,360,361,-1,409,361,363,-1,363,361,338,-1,363,338,365,-1,365,338,339,-1,247,245,316,-1,316,245,250,-1,312,253,241,-1,241,253,243,-1,241,247,312,-1,312,247,316,-1,
        ]
    }
}
Shape{
    appearance Appearance {
        material  Material 	{
            diffuseColor 0.6352941176470588 0.30980392156862746 0.023529411764705882
            specularColor 0.047058823529411764 0.023529411764705882 0.0
            ambientIntensity 0.5357
            transparency 0.0
            shininess 0.5
        }
    }
    geometry IndexedFaceSet {
        ccw TRUE
        solid FALSE
        coord DEF co Coordinate {
            point [
                2.0197 -0.6102 5.3937, 2.3346 -0.6102 5.3937, 2.0197 -0.6102 4.0158, 2.3346 -0.6102 4.0158, 2.0197 -1.3583 5.3937, 2.0197 -1.3583 4.0158, 2.3346 -1.3583 5.3937, 2.3346 -1.3583 4.0158
            ]
        }
        coordIndex [
            0,1,2,-1,2,1,3,-1,4,0,5,-1,5,0,2,-1,6,4,7,-1,7,4,5,-1,1,6,3,-1,3,6,7,-1,4,6,0,-1,0,6,1,-1,
        ]
    }
}
Shape{
    appearance Appearance {
        material  Material 	{
            diffuseColor 0.35294117647058826 0.7019607843137254 0.35294117647058826
            specularColor 0.023529411764705882 0.050980392156862744 0.023529411764705882
            ambientIntensity 0.7943
            transparency 0.0
            shininess 0.5
        }
    }
    geometry IndexedFaceSet {
        ccw TRUE
        solid FALSE
        coord DEF co Coordinate {
            point [
                2.0 1.8504 5.4331, 2.0 -0.2362 5.4331, 4.0 1.8504 5.4331, 4.0 -0.2362 5.4331, 2.0 -1.9291 0.0394, 2.5487 -1.9291 0.0394, 2.0 -1.9699 0.0447, 2.6831 -1.9291 0.0394, 2.9184 -1.9291 0.0394, 3.1824 -1.9291 0.0394, 4.0 -1.9699 0.0447, 3.2209 -1.9291 0.0394, 3.5545 -1.9291 0.0394, 4.0 -1.9291 0.0394, 4.0 -2.0079 0.0605, 2.0 -2.0079 0.0605, 4.0 -2.0405 0.0855, 2.0 -2.0405 0.0855, 4.0 -2.0655 0.1181, 2.0 -2.0655 0.1181, 4.0 -2.0812 0.1561, 2.0 -2.0812 0.1561, 4.0 -2.0866 0.1969, 2.0 -2.0866 0.1969, 4.0 1.8912 0.0447, 4.0 1.8504 0.0394, 3.5545 1.8504 0.0394, 3.2209 1.8504 0.0394, 3.1824 1.8504 0.0394, 2.9184 1.8504 0.0394, 2.6831 1.8504 0.0394, 2.0 1.8912 0.0447, 2.5487 1.8504 0.0394, 2.0 1.8504 0.0394, 2.0 1.9291 0.0605, 4.0 1.9291 0.0605, 2.0 1.9618 0.0855, 4.0 1.9618 0.0855, 2.0 1.9868 0.1181, 4.0 1.9868 0.1181, 2.0 2.0025 0.1561, 4.0 2.0025 0.1561, 2.0 2.0079 0.1969, 4.0 2.0079 0.1969, 4.0 1.8912 5.4277, 2.0 1.8912 5.4277, 4.0 1.9291 5.412, 2.0 1.9291 5.412, 4.0 1.9618 5.3869, 2.0 1.9618 5.3869, 4.0 1.9868 5.3543, 2.0 1.9868 5.3543, 4.0 2.0025 5.3164, 2.0 2.0025 5.3164, 4.0 2.0079 5.2756, 2.0 2.0079 5.2756, 2.0 -0.3937 5.5906, 4.0 -0.3937 5.5906, 4.0 -0.3529 5.5852, 2.0 -0.3529 5.5852, 4.0 -0.315 5.5695, 2.0 -0.315 5.5695, 4.0 -0.2823 5.5444, 2.0 -0.2823 5.5444, 4.0 -0.2573 5.5118, 2.0 -0.2573 5.5118, 4.0 -0.2416 5.4738, 2.0 -0.2416 5.4738, 4.0 -1.9291 5.5906, 2.0 -1.9291 5.5906, 2.0 -1.9699 5.5852, 4.0 -1.9699 5.5852, 2.0 -2.0079 5.5695, 4.0 -2.0079 5.5695, 2.0 -2.0405 5.5444, 4.0 -2.0405 5.5444, 2.0 -2.0655 5.5118, 4.0 -2.0655 5.5118, 2.0 -2.0812 5.4738, 4.0 -2.0812 5.4738, 2.0 -2.0866 5.4331, 4.0 -2.0866 5.4331
            ]
        }
        coordIndex [
            0,1,2,-1,2,1,3,-1,4,5,6,-1,6,5,7,-1,6,7,8,-1,8,9,10,-1,9,11,10,-1,10,11,12,-1,10,12,13,-1,8,10,6,-1,6,10,14,-1,6,14,15,-1,15,14,16,-1,15,16,17,-1,17,16,18,-1,17,18,19,-1,19,18,20,-1,19,20,21,-1,21,20,22,-1,21,22,23,-1,24,25,26,-1,26,27,24,-1,24,27,28,-1,24,28,29,-1,29,30,31,-1,31,30,32,-1,31,32,33,-1,29,31,24,-1,24,31,34,-1,24,34,35,-1,35,34,36,-1,35,36,37,-1,37,36,38,-1,37,38,39,-1,39,38,40,-1,39,40,41,-1,41,40,42,-1,41,42,43,-1,0,2,44,-1,0,44,45,-1,45,44,46,-1,45,46,47,-1,47,46,48,-1,47,48,49,-1,49,48,50,-1,49,50,51,-1,51,50,52,-1,51,52,53,-1,53,52,54,-1,53,54,55,-1,56,57,58,-1,56,58,59,-1,59,58,60,-1,59,60,61,-1,61,60,62,-1,61,62,63,-1,63,62,64,-1,63,64,65,-1,65,64,66,-1,65,66,67,-1,67,66,3,-1,67,3,1,-1,68,69,70,-1,68,70,71,-1,71,70,72,-1,71,72,73,-1,73,72,74,-1,73,74,75,-1,75,74,76,-1,75,76,77,-1,77,76,78,-1,77,78,79,-1,79,78,80,-1,79,80,81,-1,
        ]
    }
}
Shape{
    appearance Appearance {
        material  Material 	{
            diffuseColor 0.6352941176470588 0.30980392156862746 0.023529411764705882
            specularColor 0.047058823529411764 0.023529411764705882 0.0
            ambientIntensity 0.5357
            transparency 0.0
            shininess 0.5
        }
    }
    geometry IndexedFaceSet {
        ccw TRUE
        solid FALSE
        coord DEF co Coordinate {
            point [
                3.8937 -2.1654 4.311, 3.8937 -2.0866 4.311, 2.0039 -2.1654 4.311, 2.0039 -2.0866 4.311, 3.8937 -2.1654 5.4921, 2.0039 -2.1654 5.4921, 3.8937 -2.4409 5.4921, 2.3583 -2.4409 5.4921, 2.3583 -2.9134 5.4921, 2.0039 -3.189 5.4921, 3.8937 -2.9134 5.4921, 3.8937 -3.189 5.4921, 3.8937 -3.189 2.584, 2.0039 -3.189 2.584, 2.0039 -3.1837 2.5386, 3.8937 -3.1837 2.5386, 2.0039 -3.168 2.4956, 3.8937 -3.168 2.4956, 2.0039 -3.1429 2.4574, 3.8937 -3.1429 2.4574, 2.0039 -3.1097 2.4261, 3.8937 -3.1097 2.4261, 2.0039 -3.0701 2.4032, 3.8937 -3.0701 2.4032, 2.0039 -3.0263 2.3901, 3.8937 -3.0263 2.3901, 3.8937 -2.0866 2.2244, 2.0039 -2.0866 2.2244, 3.8937 -2.9134 4.8622, 3.8937 -2.4409 4.8622, 2.3583 -2.9134 4.8622, 2.3583 -2.4409 4.8622
            ]
        }
        coordIndex [
            0,1,2,-1,2,1,3,-1,4,0,5,-1,5,0,2,-1,6,4,7,-1,7,4,5,-1,7,5,8,-1,8,5,9,-1,8,9,10,-1,10,9,11,-1,12,11,13,-1,13,11,9,-1,12,13,14,-1,12,14,15,-1,15,14,16,-1,15,16,17,-1,17,16,18,-1,17,18,19,-1,19,18,20,-1,19,20,21,-1,21,20,22,-1,21,22,23,-1,23,22,24,-1,23,24,25,-1,26,25,27,-1,27,25,24,-1,0,12,15,-1,10,11,28,-1,28,11,12,-1,28,12,29,-1,29,12,0,-1,29,0,6,-1,6,0,4,-1,15,17,0,-1,0,17,19,-1,0,19,21,-1,26,1,25,-1,25,1,0,-1,25,0,23,-1,23,0,21,-1,9,5,13,-1,13,5,2,-1,13,2,14,-1,2,3,27,-1,27,24,2,-1,2,24,22,-1,2,22,20,-1,20,18,2,-1,2,18,16,-1,2,16,14,-1,28,30,10,-1,10,30,8,-1,30,31,8,-1,8,31,7,-1,31,29,7,-1,7,29,6,-1,31,30,29,-1,29,30,28,-1,
        ]
    }
}
Shape{
    appearance Appearance {
        material  Material 	{
            diffuseColor 0.6666666666666666 0.6666666666666666 0.6666666666666666
            specularColor 0.4666666666666667 0.4666666666666667 0.4666666666666667
            ambientIntensity 0.6667
            transparency 0.0
            shininess 0.5
        }
    }
    geometry IndexedFaceSet {
        ccw TRUE
        solid FALSE
        coord DEF co Coordinate {
            point [
                2.8031 -1.5945 -1.0141, 2.8031 -1.5945 0.0394, 2.8031 -1.3976 -1.0141, 2.8031 -1.3976 0.0394, 2.9213 -1.3976 -1.3386, 3.1969 -1.3976 -1.0141, 3.0787 -1.3976 -1.3386, 3.1969 -1.3976 0.0394, 3.1824 -1.3976 0.0394, 2.9184 -1.3976 0.0394, 3.1969 -1.5945 -1.0141, 3.1969 -1.5945 0.0394, 2.9184 -1.5945 0.0394, 2.9213 -1.5945 -1.3386, 3.0787 -1.5945 -1.3386, 3.1824 -1.5945 0.0394, 2.8031 1.4055 -1.0141, 2.8031 1.4055 0.0394, 2.8031 1.6024 -1.0141, 2.8031 1.6024 0.0394, 2.9213 1.6024 -1.3386, 3.1969 1.6024 -1.0141, 3.0787 1.6024 -1.3386, 3.1969 1.6024 0.0394, 3.1824 1.6024 0.0394, 2.9184 1.6024 0.0394, 3.1969 1.4055 -1.0141, 3.1969 1.4055 0.0394, 2.9184 1.4055 0.0394, 2.9213 1.4055 -1.3386, 3.0787 1.4055 -1.3386, 3.1824 1.4055 0.0394
            ]
        }
        coordIndex [
            0,1,2,-1,2,1,3,-1,4,2,3,-1,5,6,4,-1,7,5,8,-1,8,5,4,-1,8,4,9,-1,9,4,3,-1,5,7,10,-1,10,7,11,-1,12,1,0,-1,13,14,10,-1,0,13,12,-1,12,13,10,-1,12,10,15,-1,15,10,11,-1,4,6,13,-1,13,6,14,-1,13,0,4,-1,4,0,2,-1,6,5,14,-1,14,5,10,-1,16,17,18,-1,18,17,19,-1,20,18,19,-1,21,22,20,-1,23,21,24,-1,24,21,20,-1,24,20,25,-1,25,20,19,-1,21,23,26,-1,26,23,27,-1,28,17,16,-1,29,30,26,-1,16,29,28,-1,28,29,26,-1,28,26,31,-1,31,26,27,-1,20,22,29,-1,29,22,30,-1,29,16,20,-1,20,16,18,-1,22,21,30,-1,30,21,26,-1,
        ]
    }
}
Shape{
    appearance Appearance {
        material  Material 	{
            diffuseColor 1.0 1.0 1.0
            specularColor 0.8784313725490196 0.8784313725490196 0.8784313725490196
            ambientIntensity 1.0
            transparency 0.0
            shininess 0.5
        }
    }
    geometry IndexedFaceSet {
        ccw TRUE
        solid FALSE
        coord DEF co Coordinate {
            point [
                2.3326 0.0 0.0472, 2.179 -0.3937 0.0472, 2.3326 0.0 0.0394, 2.179 -0.3937 0.0394, 2.2366 -0.3937 0.0472, 2.2366 -0.3937 0.0394, 2.2764 -0.2833 0.0472, 2.2764 -0.2833 0.0394, 2.4391 -0.2833 0.0472, 2.4391 -0.2833 0.0394, 2.4767 -0.3937 0.0472, 2.4767 -0.3937 0.0394, 2.5343 -0.3937 0.0472, 2.5343 -0.3937 0.0394, 2.3854 0.0 0.0472, 2.3854 0.0 0.0394, 2.4258 -0.2401 0.0472, 2.3671 -0.0756 0.0472, 2.3633 -0.062 0.0472, 2.3608 -0.048 0.0472, 2.3595 -0.048 0.0472, 2.3569 -0.0619 0.0472, 2.3534 -0.0756 0.0472, 2.2941 -0.2401 0.0472, 2.4258 -0.2401 0.0394, 2.2941 -0.2401 0.0394, 2.3671 -0.0756 0.0394, 2.3633 -0.062 0.0394, 2.3608 -0.048 0.0394, 2.3595 -0.048 0.0394, 2.3569 -0.0619 0.0394, 2.3534 -0.0756 0.0394, 2.7729 -0.3937 0.0472, 2.88 -0.3937 0.0472, 2.7729 -0.3937 0.0394, 2.88 -0.3937 0.0394, 2.88 0.0 0.0472, 2.88 0.0 0.0394, 2.7689 0.0 0.0472, 2.7689 0.0 0.0394, 2.712 -0.0061 0.0472, 2.5631 -0.1919 0.0472, 2.5631 -0.1919 0.0394, 2.5659 -0.1549 0.0394, 2.5659 -0.1549 0.0472, 2.5765 -0.1161 0.0394, 2.5765 -0.1161 0.0472, 2.5948 -0.0822 0.0394, 2.5948 -0.0822 0.0472, 2.6227 -0.0513 0.0394, 2.6227 -0.0513 0.0472, 2.6231 -0.051 0.0394, 2.6231 -0.051 0.0472, 2.6659 -0.0223 0.0394, 2.6659 -0.0223 0.0472, 2.6831 -0.0162 0.0394, 2.712 -0.0061 0.0394, 2.7242 -0.3894 0.0394, 2.7242 -0.3894 0.0472, 2.6831 -0.3772 0.0394, 2.6788 -0.3759 0.0472, 2.6788 -0.3759 0.0394, 2.6377 -0.352 0.0394, 2.6377 -0.352 0.0472, 2.6053 -0.321 0.0394, 2.6053 -0.321 0.0472, 2.5827 -0.2858 0.0394, 2.5827 -0.2858 0.0472, 2.5686 -0.2446 0.0394, 2.5686 -0.2446 0.0472, 2.6421 -0.0984 0.0472, 2.6612 -0.0781 0.0472, 2.69 -0.0595 0.0472, 2.7225 -0.0482 0.0472, 2.7691 -0.0432 0.0472, 2.8272 -0.0432 0.0472, 2.8272 -0.3505 0.0472, 2.7713 -0.3505 0.0472, 2.7297 -0.3466 0.0472, 2.6966 -0.3363 0.0472, 2.6698 -0.3203 0.0472, 2.6477 -0.2985 0.0472, 2.6311 -0.2714 0.0472, 2.6195 -0.2344 0.0472, 2.6159 -0.193 0.0472, 2.6192 -0.1538 0.0472, 2.6284 -0.1227 0.0472, 2.7691 -0.0432 0.0394, 2.8272 -0.0432 0.0394, 2.7225 -0.0482 0.0394, 2.69 -0.0595 0.0394, 2.6612 -0.0781 0.0394, 2.6421 -0.0984 0.0394, 2.6284 -0.1227 0.0394, 2.6192 -0.1538 0.0394, 2.6159 -0.193 0.0394, 2.6195 -0.2344 0.0394, 2.6311 -0.2714 0.0394, 2.6477 -0.2985 0.0394, 2.6698 -0.3203 0.0394, 2.6966 -0.3363 0.0394, 2.7297 -0.3466 0.0394, 2.7713 -0.3505 0.0394, 2.8272 -0.3505 0.0394, 2.9568 -0.3505 0.0472, 2.9568 -0.3937 0.0472, 2.9568 -0.3505 0.0394, 2.9568 -0.3937 0.0394, 3.168 -0.3937 0.0472, 3.168 -0.3937 0.0394, 3.168 0.0 0.0472, 3.168 0.0 0.0394, 2.9664 0.0 0.0472, 2.9664 0.0 0.0394, 2.9664 -0.0432 0.0472, 2.9664 -0.0432 0.0394, 3.1152 -0.0432 0.0472, 3.1152 -0.0432 0.0394, 3.1152 -0.1728 0.0472, 3.1152 -0.1728 0.0394, 2.976 -0.1728 0.0472, 2.976 -0.1728 0.0394, 2.976 -0.2161 0.0472, 2.976 -0.2161 0.0394, 3.1152 -0.2161 0.0472, 3.1152 -0.2161 0.0394, 3.1152 -0.3505 0.0472, 3.1152 -0.3505 0.0394, 3.2449 -0.3301 0.0472, 3.2449 -0.3733 0.0472, 3.2449 -0.3301 0.0394, 3.2449 -0.3733 0.0394, 3.2868 -0.3905 0.0472, 3.3532 -0.3985 0.0472, 3.3532 -0.3985 0.0394, 3.3424 -0.3983 0.0394, 3.3424 -0.3983 0.0472, 3.3266 -0.3961 0.0394, 3.2868 -0.3905 0.0394, 3.5377 -0.2043 0.0472, 3.5377 -0.2043 0.0394, 3.5339 -0.2499 0.0394, 3.5339 -0.2499 0.0472, 3.5221 -0.2915 0.0394, 3.5221 -0.2915 0.0472, 3.5011 -0.329 0.0394, 3.5011 -0.329 0.0472, 3.4715 -0.3601 0.0394, 3.4715 -0.3601 0.0472, 3.4399 -0.3803 0.0394, 3.4399 -0.3803 0.0472, 3.4017 -0.3935 0.0394, 3.4017 -0.3935 0.0472, 3.3763 -0.3961 0.0394, 3.3375 0.0048 0.0472, 3.3375 0.0048 0.0394, 3.3771 0.0016 0.0472, 3.3669 0.0024 0.0394, 3.3771 0.0016 0.0394, 3.4209 -0.0112 0.0394, 3.4209 -0.0112 0.0472, 3.4583 -0.0327 0.0394, 3.4583 -0.0327 0.0472, 3.4939 -0.0669 0.0394, 3.4939 -0.0669 0.0472, 3.517 -0.1037 0.0394, 3.517 -0.1037 0.0472, 3.5321 -0.1483 0.0394, 3.5321 -0.1483 0.0472, 3.3027 0.0024 0.0394, 3.2904 0.0016 0.0472, 3.2904 0.0016 0.0394, 3.2449 -0.0108 0.0472, 3.2449 -0.0108 0.0394, 3.2449 -0.0636 0.0472, 3.2449 -0.0636 0.0394, 3.3371 -0.0384 0.0472, 3.3371 -0.0384 0.0394, 3.2892 -0.0446 0.0394, 3.2892 -0.0446 0.0472, 3.4849 -0.2011 0.0472, 3.4849 -0.2011 0.0394, 3.483 -0.1704 0.0394, 3.483 -0.1704 0.0472, 3.4726 -0.1283 0.0394, 3.4726 -0.1283 0.0472, 3.4563 -0.0979 0.0394, 3.4563 -0.0979 0.0472, 3.4325 -0.0716 0.0394, 3.4325 -0.0716 0.0472, 3.4053 -0.0534 0.0394, 3.4053 -0.0534 0.0472, 3.3758 -0.0428 0.0394, 3.3758 -0.0428 0.0472, 3.3459 -0.3553 0.0472, 3.3459 -0.3553 0.0394, 3.3826 -0.3512 0.0394, 3.3826 -0.3512 0.0472, 3.4113 -0.3406 0.0394, 3.4113 -0.3406 0.0472, 3.4355 -0.3243 0.0394, 3.4355 -0.3243 0.0472, 3.454 -0.3048 0.0394, 3.454 -0.3048 0.0472, 3.4702 -0.2775 0.0394, 3.4702 -0.2775 0.0472, 3.4809 -0.2437 0.0394, 3.4809 -0.2437 0.0472, 3.2519 -0.334 0.0394, 3.2519 -0.334 0.0472, 3.2937 -0.3495 0.0394, 3.2937 -0.3495 0.0472, 3.5713 -0.3505 0.0472, 3.5713 -0.3937 0.0472, 3.5713 -0.3505 0.0394, 3.5713 -0.3937 0.0394, 3.773 -0.3937 0.0472, 3.773 -0.3937 0.0394, 3.773 0.0 0.0472, 3.773 0.0 0.0394, 3.7202 0.0 0.0472, 3.7202 0.0 0.0394, 3.7202 -0.3505 0.0472, 3.7202 -0.3505 0.0394
            ]
        }
        coordIndex [
            0,1,2,-1,2,1,3,-1,1,4,3,-1,3,4,5,-1,4,6,5,-1,5,6,7,-1,6,8,7,-1,7,8,9,-1,8,10,9,-1,9,10,11,-1,10,12,11,-1,11,12,13,-1,12,14,13,-1,13,14,15,-1,14,0,15,-1,15,0,2,-1,16,17,14,-1,12,10,8,-1,17,18,14,-1,14,18,19,-1,14,19,0,-1,0,19,20,-1,0,20,21,-1,21,22,0,-1,0,22,23,-1,0,23,1,-1,4,1,6,-1,6,1,23,-1,6,23,8,-1,8,23,16,-1,8,16,12,-1,12,16,14,-1,16,23,24,-1,24,23,25,-1,17,16,26,-1,26,16,24,-1,17,26,27,-1,17,27,18,-1,18,27,28,-1,18,28,19,-1,20,19,29,-1,29,19,28,-1,20,29,30,-1,20,30,21,-1,21,30,31,-1,21,31,22,-1,23,22,25,-1,25,22,31,-1,32,33,34,-1,34,33,35,-1,33,36,35,-1,35,36,37,-1,36,38,37,-1,37,38,39,-1,39,38,40,-1,41,42,43,-1,41,43,44,-1,44,43,45,-1,44,45,46,-1,46,45,47,-1,46,47,48,-1,48,47,49,-1,48,49,50,-1,50,49,51,-1,50,51,52,-1,52,51,53,-1,52,53,54,-1,54,53,55,-1,54,55,40,-1,40,55,56,-1,40,56,39,-1,32,34,57,-1,32,57,58,-1,58,57,59,-1,58,59,60,-1,59,61,60,-1,60,61,62,-1,60,62,63,-1,63,62,64,-1,63,64,65,-1,65,64,66,-1,65,66,67,-1,67,66,68,-1,67,68,69,-1,69,68,42,-1,69,42,41,-1,46,48,70,-1,70,48,50,-1,70,50,71,-1,71,50,52,-1,71,52,72,-1,72,52,54,-1,72,54,73,-1,73,54,40,-1,73,40,74,-1,74,40,38,-1,74,38,75,-1,75,38,36,-1,75,36,76,-1,76,36,33,-1,76,33,77,-1,77,33,32,-1,77,32,78,-1,78,32,58,-1,78,58,79,-1,79,58,60,-1,79,60,80,-1,80,60,63,-1,80,63,81,-1,81,63,65,-1,81,65,82,-1,82,65,67,-1,82,67,83,-1,83,67,69,-1,83,69,84,-1,84,69,41,-1,84,41,85,-1,85,41,44,-1,85,44,86,-1,86,44,46,-1,86,46,70,-1,74,75,87,-1,87,75,88,-1,74,87,89,-1,74,89,73,-1,73,89,90,-1,73,90,72,-1,72,90,91,-1,72,91,71,-1,71,91,92,-1,71,92,70,-1,70,92,93,-1,70,93,86,-1,86,93,94,-1,86,94,85,-1,85,94,95,-1,85,95,84,-1,84,95,96,-1,84,96,83,-1,83,96,97,-1,83,97,82,-1,82,97,98,-1,82,98,81,-1,81,98,99,-1,81,99,80,-1,80,99,100,-1,80,100,79,-1,79,100,101,-1,79,101,78,-1,78,101,102,-1,78,102,77,-1,76,77,103,-1,103,77,102,-1,75,76,88,-1,88,76,103,-1,104,105,106,-1,106,105,107,-1,105,108,107,-1,107,108,109,-1,108,110,109,-1,109,110,111,-1,110,112,111,-1,111,112,113,-1,112,114,113,-1,113,114,115,-1,114,116,115,-1,115,116,117,-1,116,118,117,-1,117,118,119,-1,118,120,119,-1,119,120,121,-1,120,122,121,-1,121,122,123,-1,122,124,123,-1,123,124,125,-1,124,126,125,-1,125,126,127,-1,126,104,127,-1,127,104,106,-1,108,105,104,-1,104,126,108,-1,108,126,124,-1,108,124,110,-1,114,112,116,-1,116,112,110,-1,116,110,118,-1,118,110,124,-1,118,124,120,-1,120,124,122,-1,128,129,130,-1,130,129,131,-1,131,129,132,-1,133,134,135,-1,133,135,136,-1,136,135,137,-1,136,137,132,-1,132,137,138,-1,132,138,131,-1,139,140,141,-1,139,141,142,-1,142,141,143,-1,142,143,144,-1,144,143,145,-1,144,145,146,-1,146,145,147,-1,146,147,148,-1,148,147,149,-1,148,149,150,-1,150,149,151,-1,150,151,152,-1,152,151,133,-1,133,151,153,-1,133,153,134,-1,154,155,156,-1,156,155,157,-1,157,158,156,-1,156,158,159,-1,156,159,160,-1,160,159,161,-1,160,161,162,-1,162,161,163,-1,162,163,164,-1,164,163,165,-1,164,165,166,-1,166,165,167,-1,166,167,168,-1,168,167,140,-1,168,140,139,-1,155,154,169,-1,169,154,170,-1,169,170,171,-1,171,170,172,-1,171,172,173,-1,172,174,173,-1,173,174,175,-1,176,177,178,-1,176,178,179,-1,179,178,175,-1,179,175,174,-1,180,181,182,-1,180,182,183,-1,183,182,184,-1,183,184,185,-1,185,184,186,-1,185,186,187,-1,187,186,188,-1,187,188,189,-1,189,188,190,-1,189,190,191,-1,191,190,192,-1,191,192,193,-1,193,192,177,-1,193,177,176,-1,194,195,196,-1,194,196,197,-1,197,196,198,-1,197,198,199,-1,199,198,200,-1,199,200,201,-1,201,200,202,-1,201,202,203,-1,203,202,204,-1,203,204,205,-1,205,204,206,-1,205,206,207,-1,207,206,181,-1,207,181,180,-1,128,130,208,-1,128,208,209,-1,209,208,210,-1,209,210,211,-1,211,210,195,-1,211,195,194,-1,197,133,194,-1,194,133,136,-1,194,136,211,-1,211,136,132,-1,211,132,209,-1,209,132,129,-1,209,129,128,-1,174,172,179,-1,179,172,170,-1,179,170,176,-1,176,170,154,-1,176,154,193,-1,193,154,156,-1,193,156,191,-1,191,156,160,-1,191,160,189,-1,189,160,162,-1,189,162,187,-1,187,162,164,-1,187,164,185,-1,185,164,166,-1,185,166,183,-1,183,166,168,-1,183,168,180,-1,180,168,139,-1,180,139,207,-1,207,139,142,-1,207,142,205,-1,205,142,144,-1,205,144,203,-1,203,144,146,-1,203,146,201,-1,201,146,148,-1,201,148,199,-1,199,148,150,-1,199,150,197,-1,197,150,152,-1,197,152,133,-1,212,213,214,-1,214,213,215,-1,213,216,215,-1,215,216,217,-1,216,218,217,-1,217,218,219,-1,218,220,219,-1,219,220,221,-1,220,222,221,-1,221,222,223,-1,222,212,223,-1,223,212,214,-1,220,218,222,-1,222,218,216,-1,222,216,212,-1,212,216,213,-1,
        ]
    }
}
Shape{
    appearance Appearance {
        material  Material 	{
            diffuseColor 0.35294117647058826 0.7019607843137254 0.35294117647058826
            specularColor 0.023529411764705882 0.050980392156862744 0.023529411764705882
            ambientIntensity 0.7943
            transparency 0.0
            shininess 0.5
        }
    }
    geometry IndexedFaceSet {
        ccw TRUE
        solid FALSE
        coord DEF co Coordinate {
            point [
                2.4258 -0.2401 0.0394, 2.2941 -0.2401 0.0394, 2.3671 -0.0756 0.0394, 2.3534 -0.0756 0.0394, 2.3633 -0.062 0.0394, 2.3569 -0.0619 0.0394, 2.3608 -0.048 0.0394, 2.3595 -0.048 0.0394, 2.8272 -0.0432 0.0394, 2.8272 -0.3505 0.0394, 2.7691 -0.0432 0.0394, 2.7713 -0.3505 0.0394, 2.7297 -0.3466 0.0394, 2.6159 -0.193 0.0394, 2.6192 -0.1538 0.0394, 2.6284 -0.1227 0.0394, 2.7225 -0.0482 0.0394, 2.6966 -0.3363 0.0394, 2.6698 -0.3203 0.0394, 2.6477 -0.2985 0.0394, 2.6311 -0.2714 0.0394, 2.6195 -0.2344 0.0394, 2.6421 -0.0984 0.0394, 2.6612 -0.0781 0.0394, 2.69 -0.0595 0.0394
            ]
        }
        coordIndex [
            0,1,2,-1,2,1,3,-1,2,3,4,-1,4,3,5,-1,4,5,6,-1,6,5,7,-1,8,9,10,-1,10,9,11,-1,10,11,12,-1,13,14,10,-1,10,14,15,-1,10,15,16,-1,12,17,10,-1,10,17,18,-1,10,18,19,-1,19,20,10,-1,10,20,21,-1,10,21,13,-1,22,23,15,-1,15,23,24,-1,15,24,16,-1,
        ]
    }
}