#VRML V2.0 utf8
# 3D model generated by easyeda2kicad.py (https://github.com/uPesy/easyeda2kicad.py)

Shape{
    appearance Appearance {
        material  Material 	{
            diffuseColor 1.0 1.0 1.0
            specularColor 0.7019607843137254 0.7019607843137254 0.7019607843137254
            ambientIntensity 1.0
            transparency 0.0
            shininess 0.5
        }
    }
    geometry IndexedFaceSet {
        ccw TRUE
        solid FALSE
        coord DEF co Coordinate {
            point [
                0.3937 -0.3937 0.2756, -0.3937 -0.3937 0.2756, 0.3937 -0.3937 0.1181, -0.3937 -0.3937 0.1181, 0.3937 0.3937 0.2756, 0.3937 0.3937 0.1181, -0.3937 0.3937 0.2756, -0.3937 0.3937 0.1181
            ]
        }
        coordIndex [
            0,1,2,-1,2,1,3,-1,4,0,5,-1,5,0,2,-1,6,4,7,-1,7,4,5,-1,1,6,3,-1,3,6,7,-1,4,6,0,-1,0,6,1,-1,7,5,3,-1,3,5,2,-1,
        ]
    }
}
Shape{
    appearance Appearance {
        material  Material 	{
            diffuseColor 0.5294117647058824 0.27058823529411763 0.0
            specularColor 0.4666666666666667 0.23921568627450981 0.0
            ambientIntensity 0.3171
            transparency 0.0
            shininess 0.5
        }
    }
    geometry IndexedFaceSet {
        ccw TRUE
        solid FALSE
        coord DEF co Coordinate {
            point [
                0.1496 0.2244 0.1575, 0.1496 -0.2244 0.1575, 0.1496 0.2244 0.1181, 0.1496 -0.2244 0.1181, -0.3228 0.2244 0.1575, -0.3228 0.2244 0.1181, -0.3228 -0.2244 0.1575, -0.3228 -0.2244 0.1181
            ]
        }
        coordIndex [
            0,1,2,-1,2,1,3,-1,4,0,5,-1,5,0,2,-1,6,4,7,-1,7,4,5,-1,1,6,3,-1,3,6,7,-1,4,6,0,-1,0,6,1,-1,7,5,3,-1,3,5,2,-1,
        ]
    }
}
Shape{
    appearance Appearance {
        material  Material 	{
            diffuseColor 0.4117647058823529 0.0 0.9058823529411765
            specularColor 0.3607843137254902 0.0 0.796078431372549
            ambientIntensity 0.2264
            transparency 0.0
            shininess 0.5
        }
    }
    geometry IndexedFaceSet {
        ccw TRUE
        solid FALSE
        coord DEF co Coordinate {
            point [
                -0.0984 0.0551 0.1772, -0.0984 -0.0551 0.1772, -0.0984 0.0551 0.1575, -0.0984 -0.0551 0.1575, -0.2087 0.0551 0.1772, -0.2087 0.0551 0.1575, -0.2087 -0.0551 0.1772, -0.2087 -0.0551 0.1575
            ]
        }
        coordIndex [
            0,1,2,-1,2,1,3,-1,4,0,5,-1,5,0,2,-1,6,4,7,-1,7,4,5,-1,1,6,3,-1,3,6,7,-1,4,6,0,-1,0,6,1,-1,7,5,3,-1,3,5,2,-1,
        ]
    }
}
Shape{
    appearance Appearance {
        material  Material 	{
            diffuseColor 0.9686274509803922 0.8784313725490196 0.6
            specularColor 0.6784313725490196 0.615686274509804 0.4196078431372549
            ambientIntensity 0.8737
            transparency 0.0
            shininess 0.5
        }
    }
    geometry IndexedFaceSet {
        ccw TRUE
        solid FALSE
        coord DEF co Coordinate {
            point [
                -0.3937 -0.3937 0.1378, -0.3937 -0.3094 0.1378, -0.3937 -0.3937 0.1181, -0.3937 -0.3094 0.1181, -0.2676 -0.3937 0.1378, -0.2676 -0.3937 0.1181, -0.2676 -0.3094 0.1378, -0.2676 -0.3094 0.1181
            ]
        }
        coordIndex [
            0,1,2,-1,2,1,3,-1,4,0,5,-1,5,0,2,-1,6,4,7,-1,7,4,5,-1,1,6,3,-1,3,6,7,-1,4,6,0,-1,0,6,1,-1,7,5,3,-1,3,5,2,-1,
        ]
    }
}
Shape{
    appearance Appearance {
        material  Material 	{
            diffuseColor 0.10980392156862745 0.10980392156862745 0.10980392156862745
            specularColor 0.0784313725490196 0.0784313725490196 0.0784313725490196
            ambientIntensity 0.1098
            transparency 0.0
            shininess 0.5
        }
    }
    geometry IndexedFaceSet {
        ccw TRUE
        solid FALSE
        coord DEF co Coordinate {
            point [
                0.1969 0.3839 0.0394, 0.0632 0.3937 0.0394, 0.3937 0.3937 0.0394, -0.3543 -0.3937 0.0394, -0.3937 -0.3937 0.0394, -0.3937 -0.3888 0.0394, -0.1445 -0.3937 0.0394, -0.3543 -0.3888 0.0394, -0.0551 0.3937 0.0394, -0.0551 0.3839 0.0394, -0.0591 0.3839 0.0394, 0.0106 0.2264 0.0394, 0.0106 0.1214 0.0394, -0.0182 0.2264 0.0394, -0.0182 0.1214 0.0394, -0.0551 0.2264 0.0394, -0.0551 0.1214 0.0394, -0.0591 0.2264 0.0394, -0.1445 0.1214 0.0394, -0.1445 0.3937 0.0394, -0.0182 0.3839 0.0394, -0.0182 0.3937 0.0394, 0.0106 0.3839 0.0394, 0.0106 0.3937 0.0394, 0.0454 0.3839 0.0394, 0.0454 0.3937 0.0394, 0.0591 0.3839 0.0394, 0.0591 0.2264 0.0394, 0.0632 0.1214 0.0394, 0.0454 0.2264 0.0394, 0.0454 0.1214 0.0394, -0.0591 -0.2264 0.0394, -0.1445 -0.0236 0.0394, -0.0551 -0.2264 0.0394, -0.0551 -0.0236 0.0394, -0.0182 -0.2264 0.0394, -0.0182 -0.0236 0.0394, 0.0106 -0.2264 0.0394, 0.0106 -0.0236 0.0394, 0.0454 -0.2264 0.0394, 0.0454 -0.0236 0.0394, 0.0591 -0.2264 0.0394, 0.0632 -0.0236 0.0394, 0.0632 -0.3888 0.0394, -0.1445 -0.3888 0.0394, -0.0591 -0.3839 0.0394, -0.0551 -0.3888 0.0394, -0.0551 -0.3839 0.0394, -0.0182 -0.3888 0.0394, -0.0182 -0.3839 0.0394, 0.0106 -0.3888 0.0394, 0.0106 -0.3839 0.0394, 0.0454 -0.3888 0.0394, 0.0454 -0.3839 0.0394, 0.0591 -0.3839 0.0394, 0.0145 -0.0213 0.0394, 0.0145 -0.017 0.0394, 0.0106 0.0163 0.0394, 0.0187 -0.023 0.0394, 0.0226 -0.0236 0.0394, 0.0242 -0.0238 0.0394, 0.0203 0.0163 0.0394, 0.019 0.0162 0.0394, 0.0145 0.0149 0.0394, 0.0145 0.0097 0.0394, 0.0189 0.0116 0.0394, 0.0152 -0.0174 0.0394, 0.0237 0.0122 0.0394, 0.0276 0.0117 0.0394, 0.0305 0.0107 0.0394, 0.0332 0.0089 0.0394, 0.0356 0.0062 0.0394, 0.0385 -0.0041 0.0394, 0.0381 -0.0083 0.0394, 0.037 -0.0117 0.0394, 0.0282 -0.0191 0.0394, 0.0246 -0.0195 0.0394, 0.0311 -0.018 0.0394, 0.0335 -0.0164 0.0394, 0.0354 -0.0145 0.0394, 0.0193 -0.0189 0.0394, 0.0372 0.0032 0.0394, 0.0383 -0.001 0.0394, 0.0267 0.0163 0.0394, 0.0237 0.0165 0.0394, 0.0417 0.0056 0.0394, 0.0394 0.0093 0.0394, 0.0454 0.0163 0.0394, 0.034 -0.022 0.0394, 0.0371 -0.02 0.0394, 0.0401 -0.0169 0.0394, 0.0422 -0.0131 0.0394, 0.0253 -0.0238 0.0394, 0.0276 -0.0236 0.0394, 0.0302 -0.0233 0.0394, 0.0358 0.0127 0.0394, 0.0321 0.0149 0.0394, 0.0277 0.0162 0.0394, 0.0434 -0.009 0.0394, 0.0438 -0.0044 0.0394, 0.0432 0.0012 0.0394, 0.0632 0.0163 0.0394, 0.062 0.016 0.0394, 0.0632 0.016 0.0394, 0.062 -0.019 0.0394, 0.0471 -0.019 0.0394, 0.0471 -0.0234 0.0394, 0.0632 -0.0234 0.0394, 0.0673 -0.0234 0.0394, 0.0673 0.016 0.0394, 0.3937 0.0163 0.0394, 0.3937 -0.0236 0.0394, -0.0551 -0.3937 0.0394, -0.0182 -0.3937 0.0394, 0.0106 -0.3937 0.0394, 0.0454 -0.3937 0.0394, 0.0632 -0.3937 0.0394, 0.3937 -0.3937 0.0394, 0.3937 -0.3888 0.0394, 0.1969 -0.2264 0.0394, 0.315 -0.2264 0.0394, 0.315 -0.3839 0.0394, 0.1969 -0.3839 0.0394, -0.315 -0.3839 0.0394, -0.1969 -0.3839 0.0394, -0.1969 -0.2264 0.0394, -0.315 -0.2264 0.0394, -0.3543 -0.0236 0.0394, 0.0015 0.0117 0.0394, 0.0015 -0.0013 0.0394, -0.0134 0.0117 0.0394, -0.0124 -0.0013 0.0394, -0.0134 0.016 0.0394, -0.0182 0.0163 0.0394, -0.0124 -0.0056 0.0394, 0.0015 -0.0056 0.0394, 0.0015 -0.019 0.0394, -0.0143 -0.019 0.0394, -0.0143 -0.0234 0.0394, 0.0068 -0.0234 0.0394, 0.0068 0.016 0.0394, -0.0517 -0.0126 0.0394, -0.0532 -0.0084 0.0394, -0.0537 -0.0032 0.0394, -0.0495 -0.0161 0.0394, -0.0462 -0.0192 0.0394, -0.0421 -0.0216 0.0394, -0.0388 0.0154 0.0394, -0.0551 0.0163 0.0394, -0.0331 0.016 0.0394, -0.0434 0.0138 0.0394, -0.0477 0.0109 0.0394, -0.0477 0.0109 0.0394, -0.0505 0.0078 0.0394, -0.0524 0.0044 0.0394, -0.0534 0.0005 0.0394, -0.0376 -0.0229 0.0394, -0.0327 -0.0234 0.0394, -0.022 -0.0234 0.0394, -0.022 0.016 0.0394, -0.0864 -0.0234 0.0394, -0.0824 -0.0123 0.0394, -0.0661 -0.0123 0.0394, -0.0623 -0.0234 0.0394, -0.0566 -0.0234 0.0394, -0.0921 -0.0234 0.0394, -0.0768 0.016 0.0394, -0.3543 0.0163 0.0394, -0.1445 0.0163 0.0394, -0.0715 0.016 0.0394, 0.3937 0.1214 0.0394, -0.3543 0.1214 0.0394, 0.1969 0.2264 0.0394, 0.315 0.2264 0.0394, 0.315 0.3839 0.0394, -0.1969 0.3839 0.0394, -0.1969 0.2264 0.0394, -0.315 0.2264 0.0394, -0.315 0.3839 0.0394, -0.3543 0.3937 0.0394, -0.3937 -0.0236 0.0394, -0.3937 0.0163 0.0394, -0.3937 0.1214 0.0394, -0.3937 0.3937 0.0394, 0.3937 -0.3937 0.1181, 0.3937 0.3937 0.1181, -0.3937 0.3937 0.1181, -0.3937 -0.3937 0.1181
            ]
        }
        coordIndex [
            0,1,2,-1,3,4,5,-1,6,3,7,-1,8,9,10,-1,11,12,13,-1,13,12,14,-1,13,14,15,-1,15,14,16,-1,15,16,17,-1,17,16,18,-1,17,18,10,-1,10,18,19,-1,10,19,8,-1,9,8,20,-1,20,8,21,-1,20,21,22,-1,22,21,23,-1,22,23,24,-1,24,23,25,-1,24,25,26,-1,26,25,1,-1,26,1,27,-1,27,1,28,-1,27,28,29,-1,29,28,30,-1,29,30,11,-1,31,32,33,-1,33,32,34,-1,33,34,35,-1,35,34,36,-1,35,36,37,-1,37,36,38,-1,39,40,41,-1,41,40,42,-1,41,42,43,-1,44,45,46,-1,46,45,47,-1,46,47,48,-1,48,47,49,-1,48,49,50,-1,50,49,51,-1,50,51,52,-1,52,51,53,-1,52,53,43,-1,43,53,54,-1,43,54,41,-1,55,38,56,-1,56,38,57,-1,55,58,38,-1,38,58,59,-1,38,59,37,-1,37,59,60,-1,37,60,39,-1,57,61,62,-1,62,63,57,-1,57,63,64,-1,57,64,56,-1,56,64,65,-1,56,65,66,-1,66,65,67,-1,66,67,68,-1,68,69,66,-1,66,69,70,-1,66,70,71,-1,72,73,66,-1,66,73,74,-1,75,76,77,-1,77,76,78,-1,74,79,66,-1,66,79,78,-1,66,78,80,-1,80,78,76,-1,71,81,66,-1,66,81,82,-1,66,82,72,-1,11,30,12,-1,12,30,83,-1,12,83,84,-1,85,86,87,-1,88,89,40,-1,40,89,90,-1,40,90,91,-1,60,92,39,-1,39,92,93,-1,39,93,40,-1,40,93,94,-1,40,94,88,-1,86,95,87,-1,87,95,96,-1,87,96,97,-1,91,98,40,-1,40,98,99,-1,40,99,87,-1,87,99,100,-1,87,100,85,-1,87,101,102,-1,102,101,103,-1,102,104,87,-1,87,104,105,-1,87,105,40,-1,40,105,106,-1,40,106,42,-1,42,106,107,-1,42,107,108,-1,103,101,109,-1,109,101,110,-1,109,110,108,-1,108,110,111,-1,108,111,42,-1,6,44,112,-1,112,44,46,-1,112,46,113,-1,113,46,48,-1,113,48,114,-1,114,48,50,-1,114,50,115,-1,115,50,52,-1,115,52,116,-1,116,52,43,-1,116,43,117,-1,117,43,118,-1,119,42,120,-1,120,42,111,-1,120,111,121,-1,121,111,118,-1,121,118,122,-1,122,118,43,-1,122,43,119,-1,119,43,42,-1,7,123,124,-1,6,7,44,-1,44,7,124,-1,44,124,125,-1,123,7,126,-1,126,7,127,-1,126,127,125,-1,125,127,32,-1,125,32,44,-1,44,32,31,-1,44,31,45,-1,128,129,130,-1,130,129,131,-1,57,132,133,-1,133,132,130,-1,133,130,36,-1,36,130,131,-1,36,131,134,-1,135,136,134,-1,134,136,137,-1,134,137,36,-1,36,137,138,-1,36,138,38,-1,38,138,139,-1,38,139,57,-1,57,139,140,-1,57,140,132,-1,141,34,142,-1,142,34,143,-1,141,144,34,-1,34,144,145,-1,34,145,146,-1,147,148,149,-1,149,148,133,-1,147,150,148,-1,148,150,151,-1,148,151,152,-1,152,153,148,-1,148,153,154,-1,148,154,155,-1,146,156,34,-1,34,156,157,-1,34,157,36,-1,36,157,158,-1,36,158,133,-1,133,158,159,-1,133,159,149,-1,160,161,162,-1,163,164,34,-1,34,164,148,-1,34,148,143,-1,143,148,155,-1,162,163,160,-1,160,163,34,-1,160,34,165,-1,165,34,32,-1,165,32,166,-1,127,167,32,-1,32,167,168,-1,32,168,166,-1,166,168,148,-1,166,148,169,-1,169,148,164,-1,97,83,87,-1,87,83,30,-1,87,30,101,-1,101,30,28,-1,101,28,110,-1,110,28,170,-1,167,171,168,-1,168,171,18,-1,168,18,148,-1,148,18,16,-1,148,16,133,-1,133,16,14,-1,133,14,57,-1,57,14,12,-1,57,12,61,-1,61,12,84,-1,1,0,28,-1,28,0,172,-1,28,172,170,-1,170,172,173,-1,170,173,2,-1,2,173,174,-1,2,174,0,-1,175,19,176,-1,176,19,18,-1,176,18,177,-1,177,18,171,-1,177,171,178,-1,178,171,179,-1,178,179,175,-1,175,179,19,-1,3,5,7,-1,7,5,180,-1,7,180,127,-1,127,180,181,-1,127,181,167,-1,167,181,182,-1,167,182,171,-1,171,182,183,-1,171,183,179,-1,184,117,118,-1,118,111,184,-1,184,111,110,-1,184,110,185,-1,185,110,170,-1,185,170,2,-1,185,2,1,-1,1,25,185,-1,185,25,23,-1,185,23,186,-1,186,23,21,-1,186,21,8,-1,8,19,186,-1,186,19,179,-1,186,179,183,-1,5,4,187,-1,183,182,186,-1,186,182,181,-1,186,181,187,-1,187,181,180,-1,187,180,5,-1,116,117,184,-1,4,3,187,-1,187,3,6,-1,187,6,112,-1,112,113,187,-1,187,113,114,-1,187,114,184,-1,184,114,115,-1,184,115,116,-1,
        ]
    }
}
Shape{
    appearance Appearance {
        material  Material 	{
            diffuseColor 0.0 0.3176470588235294 0.5607843137254902
            specularColor 0.0 0.2784313725490196 0.49411764705882355
            ambientIntensity 0.2504
            transparency 0.0
            shininess 0.5
        }
    }
    geometry IndexedFaceSet {
        ccw TRUE
        solid FALSE
        coord DEF co Coordinate {
            point [
                -0.3937 0.3937 0.1181, -0.3937 -0.3937 0.1181, 0.3937 0.3937 0.1181, 0.3937 -0.3937 0.1181
            ]
        }
        coordIndex [
            0,1,2,-1,2,1,3,-1,
        ]
    }
}
Shape{
    appearance Appearance {
        material  Material 	{
            diffuseColor 0.9686274509803922 0.8784313725490196 0.6
            specularColor 0.6784313725490196 0.615686274509804 0.4196078431372549
            ambientIntensity 0.8737
            transparency 0.0
            shininess 0.5
        }
    }
    geometry IndexedFaceSet {
        ccw TRUE
        solid FALSE
        coord DEF co Coordinate {
            point [
                -0.315 -0.2264 0.0, -0.315 -0.3839 0.0, -0.315 -0.2264 0.0394, -0.315 -0.3839 0.0394, -0.1969 -0.2264 0.0, -0.1969 -0.2264 0.0394, -0.1969 -0.3839 0.0, -0.1969 -0.3839 0.0394, -0.0551 -0.3839 0.0394, -0.0591 -0.3839 0.0394, -0.0591 -0.3839 0.0, 0.0591 -0.3839 0.0394, 0.0454 -0.3839 0.0394, 0.0591 -0.3839 0.0, 0.0106 -0.3839 0.0394, -0.0182 -0.3839 0.0394, -0.0591 -0.2264 0.0, -0.0591 -0.2264 0.0394, 0.0454 -0.2264 0.0394, 0.0591 -0.2264 0.0394, 0.0591 -0.2264 0.0, -0.0551 -0.2264 0.0394, -0.0182 -0.2264 0.0394, 0.0106 -0.2264 0.0394, 0.1969 -0.3839 0.0, 0.315 -0.3839 0.0, 0.1969 -0.3839 0.0394, 0.315 -0.3839 0.0394, 0.1969 -0.2264 0.0, 0.1969 -0.2264 0.0394, 0.315 -0.2264 0.0, 0.315 -0.2264 0.0394, -0.1969 0.2264 0.0, -0.1969 0.3839 0.0, -0.1969 0.2264 0.0394, -0.1969 0.3839 0.0394, -0.315 0.2264 0.0, -0.315 0.2264 0.0394, -0.315 0.3839 0.0, -0.315 0.3839 0.0394, 0.0591 0.2264 0.0, 0.0591 0.3839 0.0, 0.0591 0.2264 0.0394, 0.0591 0.3839 0.0394, -0.0551 0.2264 0.0394, -0.0591 0.2264 0.0394, -0.0591 0.2264 0.0, 0.0454 0.2264 0.0394, 0.0106 0.2264 0.0394, -0.0182 0.2264 0.0394, -0.0591 0.3839 0.0, -0.0591 0.3839 0.0394, 0.0454 0.3839 0.0394, -0.0551 0.3839 0.0394, -0.0182 0.3839 0.0394, 0.0106 0.3839 0.0394, 0.315 0.2264 0.0, 0.315 0.3839 0.0, 0.315 0.2264 0.0394, 0.315 0.3839 0.0394, 0.1969 0.2264 0.0, 0.1969 0.2264 0.0394, 0.1969 0.3839 0.0, 0.1969 0.3839 0.0394
            ]
        }
        coordIndex [
            0,1,2,-1,2,1,3,-1,4,0,5,-1,5,0,2,-1,6,4,7,-1,7,4,5,-1,1,6,3,-1,3,6,7,-1,4,6,0,-1,0,6,1,-1,8,9,10,-1,11,12,13,-1,13,12,14,-1,13,14,10,-1,10,14,15,-1,10,15,8,-1,16,10,17,-1,17,10,9,-1,18,19,20,-1,17,21,16,-1,16,21,22,-1,16,22,20,-1,20,22,23,-1,20,23,18,-1,13,20,11,-1,11,20,19,-1,16,20,10,-1,10,20,13,-1,24,25,26,-1,26,25,27,-1,28,24,29,-1,29,24,26,-1,30,28,31,-1,31,28,29,-1,25,30,27,-1,27,30,31,-1,28,30,24,-1,24,30,25,-1,32,33,34,-1,34,33,35,-1,36,32,37,-1,37,32,34,-1,38,36,39,-1,39,36,37,-1,33,38,35,-1,35,38,39,-1,36,38,32,-1,32,38,33,-1,40,41,42,-1,42,41,43,-1,44,45,46,-1,42,47,40,-1,40,47,48,-1,40,48,46,-1,46,48,49,-1,46,49,44,-1,50,46,51,-1,51,46,45,-1,52,43,41,-1,51,53,50,-1,50,53,54,-1,50,54,41,-1,41,54,55,-1,41,55,52,-1,46,50,40,-1,40,50,41,-1,56,57,58,-1,58,57,59,-1,60,56,61,-1,61,56,58,-1,62,60,63,-1,63,60,61,-1,57,62,59,-1,59,62,63,-1,60,62,56,-1,56,62,57,-1,
        ]
    }
}
Shape{
    appearance Appearance {
        material  Material 	{
            diffuseColor 1.0 1.0 1.0
            specularColor 0.8784313725490196 0.8784313725490196 0.8784313725490196
            ambientIntensity 1.0
            transparency 0.0
            shininess 0.5
        }
    }
    geometry IndexedFaceSet {
        ccw TRUE
        solid FALSE
        coord DEF co Coordinate {
            point [
                -0.0674 -0.008 0.0433, -0.0661 -0.0123 0.0433, -0.0806 -0.008 0.0433, -0.0824 -0.0123 0.0433, -0.0733 0.0085 0.0433, -0.0715 0.016 0.0433, -0.0566 -0.0234 0.0433, -0.0623 -0.0234 0.0433, -0.0737 0.0098 0.0433, -0.0739 0.0112 0.0433, -0.0768 0.016 0.0433, -0.0741 0.0112 0.0433, -0.0743 0.0098 0.0433, -0.0747 0.0085 0.0433, -0.0921 -0.0234 0.0433, -0.0864 -0.0234 0.0433, -0.0824 -0.0123 0.0394, -0.0864 -0.0234 0.0394, -0.0661 -0.0123 0.0394, -0.0623 -0.0234 0.0394, -0.0566 -0.0234 0.0394, -0.0715 0.016 0.0394, -0.0768 0.016 0.0394, -0.0921 -0.0234 0.0394, -0.0747 0.0085 0.0394, -0.0743 0.0098 0.0394, -0.0741 0.0112 0.0394, -0.0739 0.0112 0.0394, -0.0737 0.0098 0.0394, -0.0733 0.0085 0.0394, -0.0674 -0.008 0.0394, -0.0806 -0.008 0.0394, -0.0331 0.016 0.0433, -0.0331 0.016 0.0394, -0.022 0.016 0.0433, -0.022 0.016 0.0394, -0.0388 0.0154 0.0433, -0.0388 0.0154 0.0394, -0.0434 0.0138 0.0433, -0.0434 0.0138 0.0394, -0.0477 0.0109 0.0433, -0.0477 0.0109 0.0394, -0.0477 0.0109 0.0433, -0.0477 0.0109 0.0394, -0.0505 0.0078 0.0433, -0.0505 0.0078 0.0394, -0.0524 0.0044 0.0433, -0.0524 0.0044 0.0394, -0.0534 0.0005 0.0433, -0.0534 0.0005 0.0394, -0.0537 -0.0032 0.0433, -0.0537 -0.0032 0.0394, -0.0532 -0.0084 0.0433, -0.0532 -0.0084 0.0394, -0.0517 -0.0126 0.0433, -0.0517 -0.0126 0.0394, -0.0495 -0.0161 0.0433, -0.0495 -0.0161 0.0394, -0.0462 -0.0192 0.0433, -0.0462 -0.0192 0.0394, -0.0421 -0.0216 0.0433, -0.0421 -0.0216 0.0394, -0.0376 -0.0229 0.0433, -0.0376 -0.0229 0.0394, -0.0327 -0.0234 0.0433, -0.0327 -0.0234 0.0394, -0.022 -0.0234 0.0433, -0.022 -0.0234 0.0394, -0.0458 0.0062 0.0433, -0.0439 0.0082 0.0433, -0.041 0.0101 0.0433, -0.0378 0.0112 0.0433, -0.0331 0.0117 0.0433, -0.0273 0.0117 0.0433, -0.0273 -0.019 0.0433, -0.0329 -0.019 0.0433, -0.037 -0.0186 0.0433, -0.0404 -0.0176 0.0433, -0.043 -0.016 0.0433, -0.0452 -0.0138 0.0433, -0.0469 -0.0111 0.0433, -0.0481 -0.0074 0.0433, -0.0484 -0.0033 0.0433, -0.0481 0.0006 0.0433, -0.0472 0.0037 0.0433, -0.0329 -0.019 0.0394, -0.0273 -0.019 0.0394, -0.037 -0.0186 0.0394, -0.0404 -0.0176 0.0394, -0.043 -0.016 0.0394, -0.0452 -0.0138 0.0394, -0.0469 -0.0111 0.0394, -0.0481 -0.0074 0.0394, -0.0484 -0.0033 0.0394, -0.0481 0.0006 0.0394, -0.0472 0.0037 0.0394, -0.0458 0.0062 0.0394, -0.0439 0.0082 0.0394, -0.041 0.0101 0.0394, -0.0378 0.0112 0.0394, -0.0331 0.0117 0.0394, -0.0273 0.0117 0.0394, 0.0068 0.016 0.0433, 0.0068 0.016 0.0394, 0.0068 -0.0234 0.0433, 0.0068 -0.0234 0.0394, -0.0134 0.016 0.0433, -0.0134 0.016 0.0394, -0.0134 0.0117 0.0433, -0.0134 0.0117 0.0394, 0.0015 0.0117 0.0433, 0.0015 0.0117 0.0394, 0.0015 -0.0013 0.0433, 0.0015 -0.0013 0.0394, -0.0124 -0.0013 0.0433, -0.0124 -0.0013 0.0394, -0.0124 -0.0056 0.0433, -0.0124 -0.0056 0.0394, 0.0015 -0.0056 0.0433, 0.0015 -0.0056 0.0394, 0.0015 -0.019 0.0433, 0.0015 -0.019 0.0394, -0.0143 -0.019 0.0433, -0.0143 -0.019 0.0394, -0.0143 -0.0234 0.0433, -0.0143 -0.0234 0.0394, 0.0276 -0.0236 0.0394, 0.0253 -0.0238 0.0394, 0.0253 -0.0238 0.0433, 0.0302 -0.0233 0.0394, 0.0302 -0.0233 0.0433, 0.034 -0.022 0.0433, 0.034 -0.022 0.0394, 0.0371 -0.02 0.0433, 0.0371 -0.02 0.0394, 0.0401 -0.0169 0.0433, 0.0401 -0.0169 0.0394, 0.0422 -0.0131 0.0433, 0.0422 -0.0131 0.0394, 0.0434 -0.009 0.0433, 0.0434 -0.009 0.0394, 0.0438 -0.0044 0.0433, 0.0438 -0.0044 0.0394, 0.0432 0.0012 0.0433, 0.0432 0.0012 0.0394, 0.0417 0.0056 0.0433, 0.0417 0.0056 0.0394, 0.0394 0.0093 0.0433, 0.0394 0.0093 0.0394, 0.0358 0.0127 0.0433, 0.0358 0.0127 0.0394, 0.0321 0.0149 0.0433, 0.0321 0.0149 0.0394, 0.0277 0.0162 0.0433, 0.0277 0.0162 0.0394, 0.0267 0.0163 0.0394, 0.0237 0.0165 0.0433, 0.0237 0.0165 0.0394, 0.0203 0.0163 0.0394, 0.019 0.0162 0.0433, 0.019 0.0162 0.0394, 0.0145 0.0149 0.0433, 0.0145 0.0149 0.0394, 0.0145 0.0097 0.0433, 0.0145 0.0097 0.0394, 0.0189 0.0116 0.0433, 0.0189 0.0116 0.0394, 0.0237 0.0122 0.0433, 0.0237 0.0122 0.0394, 0.0276 0.0117 0.0433, 0.0276 0.0117 0.0394, 0.0305 0.0107 0.0433, 0.0305 0.0107 0.0394, 0.0332 0.0089 0.0433, 0.0332 0.0089 0.0394, 0.0356 0.0062 0.0433, 0.0356 0.0062 0.0394, 0.0372 0.0032 0.0433, 0.0372 0.0032 0.0394, 0.0383 -0.001 0.0433, 0.0383 -0.001 0.0394, 0.0385 -0.0041 0.0433, 0.0385 -0.0041 0.0394, 0.0381 -0.0083 0.0433, 0.0381 -0.0083 0.0394, 0.037 -0.0117 0.0433, 0.037 -0.0117 0.0394, 0.0354 -0.0145 0.0433, 0.0354 -0.0145 0.0394, 0.0335 -0.0164 0.0433, 0.0335 -0.0164 0.0394, 0.0311 -0.018 0.0433, 0.0311 -0.018 0.0394, 0.0282 -0.0191 0.0433, 0.0282 -0.0191 0.0394, 0.0246 -0.0195 0.0433, 0.0246 -0.0195 0.0394, 0.0193 -0.0189 0.0433, 0.0193 -0.0189 0.0394, 0.0152 -0.0174 0.0433, 0.0152 -0.0174 0.0394, 0.0145 -0.017 0.0433, 0.0145 -0.017 0.0394, 0.0145 -0.0213 0.0433, 0.0145 -0.0213 0.0394, 0.0187 -0.023 0.0394, 0.0187 -0.023 0.0433, 0.0226 -0.0236 0.0394, 0.0242 -0.0238 0.0433, 0.0242 -0.0238 0.0394, 0.0673 0.016 0.0433, 0.0673 0.016 0.0394, 0.0673 -0.0234 0.0433, 0.0673 -0.0234 0.0394, 0.0632 0.016 0.0394, 0.062 0.016 0.0433, 0.062 0.016 0.0394, 0.062 -0.019 0.0433, 0.062 -0.019 0.0394, 0.0471 -0.019 0.0433, 0.0471 -0.019 0.0394, 0.0471 -0.0234 0.0433, 0.0471 -0.0234 0.0394, 0.0632 -0.0234 0.0394
            ]
        }
        coordIndex [
            0,1,2,-1,2,1,3,-1,4,5,0,-1,0,5,6,-1,0,6,1,-1,1,6,7,-1,4,8,5,-1,5,8,9,-1,5,9,10,-1,10,9,11,-1,10,11,12,-1,12,13,10,-1,10,13,2,-1,10,2,14,-1,14,2,3,-1,14,3,15,-1,3,16,15,-1,15,16,17,-1,1,18,3,-1,3,18,16,-1,7,19,1,-1,1,19,18,-1,6,20,7,-1,7,20,19,-1,5,21,6,-1,6,21,20,-1,10,22,5,-1,5,22,21,-1,14,23,10,-1,10,23,22,-1,14,15,23,-1,23,15,17,-1,24,13,12,-1,24,12,25,-1,25,12,11,-1,25,11,26,-1,9,27,11,-1,11,27,26,-1,27,9,8,-1,27,8,28,-1,28,8,4,-1,28,4,29,-1,0,30,4,-1,4,30,29,-1,2,31,0,-1,0,31,30,-1,24,31,13,-1,13,31,2,-1,32,33,34,-1,34,33,35,-1,33,32,36,-1,33,36,37,-1,37,36,38,-1,37,38,39,-1,39,38,40,-1,39,40,41,-1,41,40,42,-1,41,42,43,-1,43,42,44,-1,43,44,45,-1,45,44,46,-1,45,46,47,-1,47,46,48,-1,47,48,49,-1,49,48,50,-1,49,50,51,-1,51,50,52,-1,51,52,53,-1,53,52,54,-1,53,54,55,-1,55,54,56,-1,55,56,57,-1,57,56,58,-1,57,58,59,-1,59,58,60,-1,59,60,61,-1,61,60,62,-1,61,62,63,-1,63,62,64,-1,63,64,65,-1,66,67,64,-1,64,67,65,-1,66,34,67,-1,67,34,35,-1,46,44,68,-1,68,44,42,-1,68,42,69,-1,69,42,40,-1,69,40,70,-1,70,40,38,-1,70,38,71,-1,71,38,36,-1,71,36,72,-1,72,36,32,-1,72,32,73,-1,73,32,34,-1,73,34,74,-1,74,34,66,-1,74,66,75,-1,75,66,64,-1,75,64,76,-1,76,64,62,-1,76,62,77,-1,77,62,60,-1,77,60,78,-1,78,60,58,-1,78,58,79,-1,79,58,56,-1,79,56,80,-1,80,56,54,-1,80,54,81,-1,81,54,52,-1,81,52,82,-1,82,52,50,-1,82,50,83,-1,83,50,48,-1,83,48,84,-1,84,48,46,-1,84,46,68,-1,75,85,74,-1,74,85,86,-1,85,75,76,-1,85,76,87,-1,87,76,77,-1,87,77,88,-1,88,77,78,-1,88,78,89,-1,89,78,79,-1,89,79,90,-1,90,79,80,-1,90,80,91,-1,91,80,81,-1,91,81,92,-1,92,81,82,-1,92,82,93,-1,93,82,83,-1,93,83,94,-1,94,83,84,-1,94,84,95,-1,95,84,68,-1,95,68,96,-1,96,68,69,-1,96,69,97,-1,97,69,70,-1,97,70,98,-1,98,70,71,-1,98,71,99,-1,99,71,72,-1,99,72,100,-1,73,101,72,-1,72,101,100,-1,86,101,74,-1,74,101,73,-1,102,103,104,-1,104,103,105,-1,106,107,102,-1,102,107,103,-1,108,109,106,-1,106,109,107,-1,110,111,108,-1,108,111,109,-1,112,113,110,-1,110,113,111,-1,114,115,112,-1,112,115,113,-1,116,117,114,-1,114,117,115,-1,118,119,116,-1,116,119,117,-1,120,121,118,-1,118,121,119,-1,122,123,120,-1,120,123,121,-1,124,125,122,-1,122,125,123,-1,124,104,125,-1,125,104,105,-1,104,124,122,-1,122,120,104,-1,104,120,118,-1,104,118,102,-1,108,106,110,-1,110,106,102,-1,110,102,112,-1,112,102,118,-1,112,118,114,-1,114,118,116,-1,126,127,128,-1,126,128,129,-1,128,130,129,-1,129,130,131,-1,129,131,132,-1,132,131,133,-1,132,133,134,-1,134,133,135,-1,134,135,136,-1,136,135,137,-1,136,137,138,-1,138,137,139,-1,138,139,140,-1,140,139,141,-1,140,141,142,-1,142,141,143,-1,142,143,144,-1,144,143,145,-1,144,145,146,-1,146,145,147,-1,146,147,148,-1,148,147,149,-1,148,149,150,-1,150,149,151,-1,150,151,152,-1,152,151,153,-1,152,153,154,-1,154,153,155,-1,155,153,156,-1,155,156,157,-1,157,156,158,-1,158,156,159,-1,158,159,160,-1,160,159,161,-1,160,161,162,-1,163,164,161,-1,161,164,162,-1,164,163,165,-1,164,165,166,-1,166,165,167,-1,166,167,168,-1,168,167,169,-1,168,169,170,-1,170,169,171,-1,170,171,172,-1,172,171,173,-1,172,173,174,-1,174,173,175,-1,174,175,176,-1,176,175,177,-1,176,177,178,-1,178,177,179,-1,178,179,180,-1,180,179,181,-1,180,181,182,-1,182,181,183,-1,182,183,184,-1,184,183,185,-1,184,185,186,-1,186,185,187,-1,186,187,188,-1,188,187,189,-1,188,189,190,-1,190,189,191,-1,190,191,192,-1,192,191,193,-1,192,193,194,-1,194,193,195,-1,194,195,196,-1,196,195,197,-1,196,197,198,-1,198,197,199,-1,198,199,200,-1,200,199,201,-1,200,201,202,-1,203,204,201,-1,201,204,202,-1,205,204,206,-1,206,204,203,-1,205,206,207,-1,207,206,208,-1,207,208,209,-1,209,208,128,-1,209,128,127,-1,193,128,195,-1,195,128,208,-1,195,208,197,-1,197,208,206,-1,197,206,199,-1,199,206,203,-1,199,203,201,-1,163,161,165,-1,165,161,159,-1,165,159,167,-1,167,159,156,-1,167,156,169,-1,169,156,153,-1,169,153,171,-1,171,153,151,-1,171,151,173,-1,173,151,149,-1,173,149,175,-1,175,149,147,-1,175,147,177,-1,177,147,145,-1,177,145,179,-1,179,145,143,-1,179,143,181,-1,181,143,141,-1,181,141,183,-1,183,141,139,-1,183,139,185,-1,185,139,137,-1,185,137,187,-1,187,137,135,-1,187,135,189,-1,189,135,133,-1,189,133,191,-1,191,133,131,-1,191,131,193,-1,193,131,130,-1,193,130,128,-1,210,211,212,-1,212,211,213,-1,211,210,214,-1,214,210,215,-1,214,215,216,-1,217,218,215,-1,215,218,216,-1,219,220,217,-1,217,220,218,-1,221,222,219,-1,219,222,220,-1,222,221,223,-1,223,221,212,-1,223,212,213,-1,215,210,217,-1,217,210,212,-1,217,212,219,-1,219,212,221,-1,
        ]
    }
}
Shape{
    appearance Appearance {
        material  Material 	{
            diffuseColor 0.10980392156862745 0.10980392156862745 0.10980392156862745
            specularColor 0.0784313725490196 0.0784313725490196 0.0784313725490196
            ambientIntensity 0.1098
            transparency 0.0
            shininess 0.5
        }
    }
    geometry IndexedFaceSet {
        ccw TRUE
        solid FALSE
        coord DEF co Coordinate {
            point [
                -0.0674 -0.008 0.0394, -0.0806 -0.008 0.0394, -0.0733 0.0085 0.0394, -0.0747 0.0085 0.0394, -0.0737 0.0098 0.0394, -0.0743 0.0098 0.0394, -0.0739 0.0112 0.0394, -0.0741 0.0112 0.0394, -0.0273 0.0117 0.0394, -0.0273 -0.019 0.0394, -0.0331 0.0117 0.0394, -0.0329 -0.019 0.0394, -0.037 -0.0186 0.0394, -0.0484 -0.0033 0.0394, -0.0481 0.0006 0.0394, -0.0472 0.0037 0.0394, -0.0378 0.0112 0.0394, -0.0404 -0.0176 0.0394, -0.043 -0.016 0.0394, -0.0452 -0.0138 0.0394, -0.0469 -0.0111 0.0394, -0.0481 -0.0074 0.0394, -0.0458 0.0062 0.0394, -0.0439 0.0082 0.0394, -0.041 0.0101 0.0394
            ]
        }
        coordIndex [
            0,1,2,-1,2,1,3,-1,2,3,4,-1,4,3,5,-1,4,5,6,-1,6,5,7,-1,8,9,10,-1,10,9,11,-1,10,11,12,-1,13,14,10,-1,10,14,15,-1,10,15,16,-1,12,17,10,-1,10,17,18,-1,10,18,19,-1,19,20,10,-1,10,20,21,-1,10,21,13,-1,22,23,15,-1,15,23,24,-1,15,24,16,-1,
        ]
    }
}