ISO-10303-21;
HEADER;
FILE_DESCRIPTION(('KiCad electronic assembly'),'2;1');
FILE_NAME('Mothbeam.step','2026-09-10T13:57:34',('Pcbnew'),('Kicad'),
  'Open CASCADE STEP processor 7.9','KiCad to STEP converter','Unknown'
  );
FILE_SCHEMA(('AUTOMOTIVE_DESIGN { 1 0 10303 214 1 1 1 1 }'));
ENDSEC;
DATA;
#1 = APPLICATION_PROTOCOL_DEFINITION('international standard',
  'automotive_design',2000,#2);
#2 = APPLICATION_CONTEXT(
  'core data for automotive mechanical design processes');
#3 = SHAPE_DEFINITION_REPRESENTATION(#4,#10);
#4 = PRODUCT_DEFINITION_SHAPE('','',#5);
#5 = PRODUCT_DEFINITION('design','',#6,#9);
#6 = PRODUCT_DEFINITION_FORMATION('','',#7);
#7 = PRODUCT('Mothbeam 1','Mothbeam 1','',(#8));
#8 = PRODUCT_CONTEXT('',#2,'mechanical');
#9 = PRODUCT_DEFINITION_CONTEXT('part definition',#2,'design');
#10 = SHAPE_REPRESENTATION('',(#11,#15,#19,#23,#27,#31,#35,#39,#43),#47
  );
#11 = AXIS2_PLACEMENT_3D('',#12,#13,#14);
#12 = CARTESIAN_POINT('',(0.,0.,0.));
#13 = DIRECTION('',(0.,0.,1.));
#14 = DIRECTION('',(1.,0.,-0.));
#15 = AXIS2_PLACEMENT_3D('',#16,#17,#18);
#16 = CARTESIAN_POINT('',(0.65,30.7,1.595));
#17 = DIRECTION('',(0.,0.,1.));
#18 = DIRECTION('',(-1.,1.224646799147E-16,0.));
#19 = AXIS2_PLACEMENT_3D('',#20,#21,#22);
#20 = CARTESIAN_POINT('',(-1.290893,39.15,1.595));
#21 = DIRECTION('',(0.,0.,1.));
#22 = DIRECTION('',(-1.,1.224646799147E-16,0.));
#23 = AXIS2_PLACEMENT_3D('',#24,#25,#26);
#24 = CARTESIAN_POINT('',(6.5375,39.55,1.595));
#25 = DIRECTION('',(0.,-0.,1.));
#26 = DIRECTION('',(1.110223024625E-16,1.,0.));
#27 = AXIS2_PLACEMENT_3D('',#28,#29,#30);
#28 = CARTESIAN_POINT('',(-1.5,32.35,1.595));
#29 = DIRECTION('',(0.,0.,1.));
#30 = DIRECTION('',(1.,0.,0.));
#31 = AXIS2_PLACEMENT_3D('',#32,#33,#34);
#32 = CARTESIAN_POINT('',(19.15,39.3,1.595));
#33 = DIRECTION('',(0.,0.,1.));
#34 = DIRECTION('',(-1.,1.224646799147E-16,0.));
#35 = AXIS2_PLACEMENT_3D('',#36,#37,#38);
#36 = CARTESIAN_POINT('',(-2.3,29.725,1.595));
#37 = DIRECTION('',(0.,-0.,1.));
#38 = DIRECTION('',(1.110223024625E-16,1.,0.));
#39 = AXIS2_PLACEMENT_3D('',#40,#41,#42);
#40 = CARTESIAN_POINT('',(0.65,28.9,1.595));
#41 = DIRECTION('',(0.,0.,1.));
#42 = DIRECTION('',(1.,0.,0.));
#43 = AXIS2_PLACEMENT_3D('',#44,#45,#46);
#44 = CARTESIAN_POINT('',(0.,0.,0.));
#45 = DIRECTION('',(0.,0.,1.));
#46 = DIRECTION('',(1.,0.,-0.));
#47 = ( GEOMETRIC_REPRESENTATION_CONTEXT(3) 
GLOBAL_UNCERTAINTY_ASSIGNED_CONTEXT((#51)) GLOBAL_UNIT_ASSIGNED_CONTEXT(
(#48,#49,#50)) REPRESENTATION_CONTEXT('Context #1',
  '3D Context with UNIT and UNCERTAINTY') );
#48 = ( LENGTH_UNIT() NAMED_UNIT(*) SI_UNIT(.MILLI.,.METRE.) );
#49 = ( NAMED_UNIT(*) PLANE_ANGLE_UNIT() SI_UNIT($,.RADIAN.) );
#50 = ( NAMED_UNIT(*) SI_UNIT($,.STERADIAN.) SOLID_ANGLE_UNIT() );
#51 = UNCERTAINTY_MEASURE_WITH_UNIT(LENGTH_MEASURE(1.E-07),#48,
  'distance_accuracy_value','confusion accuracy');
#52 = PRODUCT_RELATED_PRODUCT_CATEGORY('part',$,(#7));
#53 = SHAPE_DEFINITION_REPRESENTATION(#54,#60);
#54 = PRODUCT_DEFINITION_SHAPE('','',#55);
#55 = PRODUCT_DEFINITION('design','',#56,#59);
#56 = PRODUCT_DEFINITION_FORMATION('','',#57);
#57 = PRODUCT('R_0603_1608Metric','R_0603_1608Metric','',(#58));
#58 = PRODUCT_CONTEXT('',#2,'mechanical');
#59 = PRODUCT_DEFINITION_CONTEXT('part definition',#2,'design');
#60 = SHAPE_REPRESENTATION('',(#11,#61),#65);
#61 = AXIS2_PLACEMENT_3D('',#62,#63,#64);
#62 = CARTESIAN_POINT('',(0.,0.,0.));
#63 = DIRECTION('',(0.,0.,1.));
#64 = DIRECTION('',(1.,0.,-0.));
#65 = ( GEOMETRIC_REPRESENTATION_CONTEXT(3) 
GLOBAL_UNCERTAINTY_ASSIGNED_CONTEXT((#69)) GLOBAL_UNIT_ASSIGNED_CONTEXT(
(#66,#67,#68)) REPRESENTATION_CONTEXT('Context #1',
  '3D Context with UNIT and UNCERTAINTY') );
#66 = ( LENGTH_UNIT() NAMED_UNIT(*) SI_UNIT(.MILLI.,.METRE.) );
#67 = ( NAMED_UNIT(*) PLANE_ANGLE_UNIT() SI_UNIT($,.RADIAN.) );
#68 = ( NAMED_UNIT(*) SI_UNIT($,.STERADIAN.) SOLID_ANGLE_UNIT() );
#69 = UNCERTAINTY_MEASURE_WITH_UNIT(LENGTH_MEASURE(1.E-07),#66,
  'distance_accuracy_value','confusion accuracy');
#70 = CONTEXT_DEPENDENT_SHAPE_REPRESENTATION(#71,#73);
#71 = ( REPRESENTATION_RELATIONSHIP('','',#60,#10) 
REPRESENTATION_RELATIONSHIP_WITH_TRANSFORMATION(#72) 
SHAPE_REPRESENTATION_RELATIONSHIP() );
#72 = ITEM_DEFINED_TRANSFORMATION('','',#11,#15);
#73 = PRODUCT_DEFINITION_SHAPE('Placement','Placement of an item',#74);
#74 = NEXT_ASSEMBLY_USAGE_OCCURRENCE('2','R6','',#5,#55,$);
#75 = PRODUCT_RELATED_PRODUCT_CATEGORY('part',$,(#57));
#76 = SHAPE_DEFINITION_REPRESENTATION(#77,#83);
#77 = PRODUCT_DEFINITION_SHAPE('','',#78);
#78 = PRODUCT_DEFINITION('design','',#79,#82);
#79 = PRODUCT_DEFINITION_FORMATION('','',#80);
#80 = PRODUCT('R_0603_1608Metric','R_0603_1608Metric','',(#81));
#81 = PRODUCT_CONTEXT('',#2,'mechanical');
#82 = PRODUCT_DEFINITION_CONTEXT('part definition',#2,'design');
#83 = ADVANCED_BREP_SHAPE_REPRESENTATION('',(#11,#84),#874);
#84 = MANIFOLD_SOLID_BREP('',#85);
#85 = CLOSED_SHELL('',(#86,#126,#209,#234,#259,#326,#343,#360,#409,#426,
    #443,#492,#509,#578,#609,#633,#702,#726,#743,#760,#777,#794,#811,
    #828,#845,#862));
#86 = ADVANCED_FACE('',(#87),#121,.F.);
#87 = FACE_BOUND('',#88,.F.);
#88 = EDGE_LOOP('',(#89,#99,#107,#115));
#89 = ORIENTED_EDGE('',*,*,#90,.F.);
#90 = EDGE_CURVE('',#91,#93,#95,.T.);
#91 = VERTEX_POINT('',#92);
#92 = CARTESIAN_POINT('',(-0.8,-0.4,4.5E-02));
#93 = VERTEX_POINT('',#94);
#94 = CARTESIAN_POINT('',(-0.8,-0.4,0.405));
#95 = LINE('',#96,#97);
#96 = CARTESIAN_POINT('',(-0.8,-0.4,0.));
#97 = VECTOR('',#98,1.);
#98 = DIRECTION('',(0.,0.,1.));
#99 = ORIENTED_EDGE('',*,*,#100,.T.);
#100 = EDGE_CURVE('',#91,#101,#103,.T.);
#101 = VERTEX_POINT('',#102);
#102 = CARTESIAN_POINT('',(-0.8,0.4,4.5E-02));
#103 = LINE('',#104,#105);
#104 = CARTESIAN_POINT('',(-0.8,-0.4,4.5E-02));
#105 = VECTOR('',#106,1.);
#106 = DIRECTION('',(0.,1.,0.));
#107 = ORIENTED_EDGE('',*,*,#108,.T.);
#108 = EDGE_CURVE('',#101,#109,#111,.T.);
#109 = VERTEX_POINT('',#110);
#110 = CARTESIAN_POINT('',(-0.8,0.4,0.405));
#111 = LINE('',#112,#113);
#112 = CARTESIAN_POINT('',(-0.8,0.4,0.));
#113 = VECTOR('',#114,1.);
#114 = DIRECTION('',(0.,0.,1.));
#115 = ORIENTED_EDGE('',*,*,#116,.F.);
#116 = EDGE_CURVE('',#93,#109,#117,.T.);
#117 = LINE('',#118,#119);
#118 = CARTESIAN_POINT('',(-0.8,-0.4,0.405));
#119 = VECTOR('',#120,1.);
#120 = DIRECTION('',(0.,1.,0.));
#121 = PLANE('',#122);
#122 = AXIS2_PLACEMENT_3D('',#123,#124,#125);
#123 = CARTESIAN_POINT('',(-0.8,-0.4,0.));
#124 = DIRECTION('',(1.,0.,0.));
#125 = DIRECTION('',(0.,0.,1.));
#126 = ADVANCED_FACE('',(#127),#204,.F.);
#127 = FACE_BOUND('',#128,.F.);
#128 = EDGE_LOOP('',(#129,#139,#146,#147,#156,#164,#173,#181,#189,#197)
  );
#129 = ORIENTED_EDGE('',*,*,#130,.F.);
#130 = EDGE_CURVE('',#131,#133,#135,.T.);
#131 = VERTEX_POINT('',#132);
#132 = CARTESIAN_POINT('',(-0.755,-0.4,-2.775557561563E-17));
#133 = VERTEX_POINT('',#134);
#134 = CARTESIAN_POINT('',(-0.545,-0.4,-2.775557561563E-17));
#135 = LINE('',#136,#137);
#136 = CARTESIAN_POINT('',(-0.8,-0.4,0.));
#137 = VECTOR('',#138,1.);
#138 = DIRECTION('',(1.,0.,0.));
#139 = ORIENTED_EDGE('',*,*,#140,.F.);
#140 = EDGE_CURVE('',#91,#131,#141,.T.);
#141 = CIRCLE('',#142,4.5E-02);
#142 = AXIS2_PLACEMENT_3D('',#143,#144,#145);
#143 = CARTESIAN_POINT('',(-0.755,-0.4,4.5E-02));
#144 = DIRECTION('',(0.,-1.,0.));
#145 = DIRECTION('',(0.,0.,1.));
#146 = ORIENTED_EDGE('',*,*,#90,.T.);
#147 = ORIENTED_EDGE('',*,*,#148,.T.);
#148 = EDGE_CURVE('',#93,#149,#151,.T.);
#149 = VERTEX_POINT('',#150);
#150 = CARTESIAN_POINT('',(-0.755,-0.4,0.45));
#151 = CIRCLE('',#152,4.5E-02);
#152 = AXIS2_PLACEMENT_3D('',#153,#154,#155);
#153 = CARTESIAN_POINT('',(-0.755,-0.4,0.405));
#154 = DIRECTION('',(0.,1.,0.));
#155 = DIRECTION('',(0.,-0.,1.));
#156 = ORIENTED_EDGE('',*,*,#157,.T.);
#157 = EDGE_CURVE('',#149,#158,#160,.T.);
#158 = VERTEX_POINT('',#159);
#159 = CARTESIAN_POINT('',(-0.545,-0.4,0.45));
#160 = LINE('',#161,#162);
#161 = CARTESIAN_POINT('',(-0.8,-0.4,0.45));
#162 = VECTOR('',#163,1.);
#163 = DIRECTION('',(1.,0.,0.));
#164 = ORIENTED_EDGE('',*,*,#165,.F.);
#165 = EDGE_CURVE('',#166,#158,#168,.T.);
#166 = VERTEX_POINT('',#167);
#167 = CARTESIAN_POINT('',(-0.5,-0.4,0.405));
#168 = CIRCLE('',#169,4.5E-02);
#169 = AXIS2_PLACEMENT_3D('',#170,#171,#172);
#170 = CARTESIAN_POINT('',(-0.545,-0.4,0.405));
#171 = DIRECTION('',(0.,-1.,0.));
#172 = DIRECTION('',(0.,0.,1.));
#173 = ORIENTED_EDGE('',*,*,#174,.F.);
#174 = EDGE_CURVE('',#175,#166,#177,.T.);
#175 = VERTEX_POINT('',#176);
#176 = CARTESIAN_POINT('',(-0.755,-0.4,0.405));
#177 = LINE('',#178,#179);
#178 = CARTESIAN_POINT('',(-0.755,-0.4,0.405));
#179 = VECTOR('',#180,1.);
#180 = DIRECTION('',(1.,0.,0.));
#181 = ORIENTED_EDGE('',*,*,#182,.F.);
#182 = EDGE_CURVE('',#183,#175,#185,.T.);
#183 = VERTEX_POINT('',#184);
#184 = CARTESIAN_POINT('',(-0.755,-0.4,4.5E-02));
#185 = LINE('',#186,#187);
#186 = CARTESIAN_POINT('',(-0.755,-0.4,4.5E-02));
#187 = VECTOR('',#188,1.);
#188 = DIRECTION('',(0.,0.,1.));
#189 = ORIENTED_EDGE('',*,*,#190,.T.);
#190 = EDGE_CURVE('',#183,#191,#193,.T.);
#191 = VERTEX_POINT('',#192);
#192 = CARTESIAN_POINT('',(-0.5,-0.4,4.5E-02));
#193 = LINE('',#194,#195);
#194 = CARTESIAN_POINT('',(-0.755,-0.4,4.5E-02));
#195 = VECTOR('',#196,1.);
#196 = DIRECTION('',(1.,0.,0.));
#197 = ORIENTED_EDGE('',*,*,#198,.T.);
#198 = EDGE_CURVE('',#191,#133,#199,.T.);
#199 = CIRCLE('',#200,4.5E-02);
#200 = AXIS2_PLACEMENT_3D('',#201,#202,#203);
#201 = CARTESIAN_POINT('',(-0.545,-0.4,4.5E-02));
#202 = DIRECTION('',(0.,1.,0.));
#203 = DIRECTION('',(0.,-0.,1.));
#204 = PLANE('',#205);
#205 = AXIS2_PLACEMENT_3D('',#206,#207,#208);
#206 = CARTESIAN_POINT('',(-0.8,-0.4,0.));
#207 = DIRECTION('',(0.,1.,0.));
#208 = DIRECTION('',(0.,-0.,1.));
#209 = ADVANCED_FACE('',(#210),#229,.T.);
#210 = FACE_BOUND('',#211,.T.);
#211 = EDGE_LOOP('',(#212,#213,#222,#228));
#212 = ORIENTED_EDGE('',*,*,#100,.T.);
#213 = ORIENTED_EDGE('',*,*,#214,.T.);
#214 = EDGE_CURVE('',#101,#215,#217,.T.);
#215 = VERTEX_POINT('',#216);
#216 = CARTESIAN_POINT('',(-0.755,0.4,-2.775557561563E-17));
#217 = CIRCLE('',#218,4.5E-02);
#218 = AXIS2_PLACEMENT_3D('',#219,#220,#221);
#219 = CARTESIAN_POINT('',(-0.755,0.4,4.5E-02));
#220 = DIRECTION('',(0.,-1.,0.));
#221 = DIRECTION('',(0.,0.,1.));
#222 = ORIENTED_EDGE('',*,*,#223,.F.);
#223 = EDGE_CURVE('',#131,#215,#224,.T.);
#224 = LINE('',#225,#226);
#225 = CARTESIAN_POINT('',(-0.755,-0.4,-2.775557561563E-17));
#226 = VECTOR('',#227,1.);
#227 = DIRECTION('',(0.,1.,0.));
#228 = ORIENTED_EDGE('',*,*,#140,.F.);
#229 = CYLINDRICAL_SURFACE('',#230,4.5E-02);
#230 = AXIS2_PLACEMENT_3D('',#231,#232,#233);
#231 = CARTESIAN_POINT('',(-0.755,-0.4,4.5E-02));
#232 = DIRECTION('',(0.,1.,0.));
#233 = DIRECTION('',(-1.,0.,0.));
#234 = ADVANCED_FACE('',(#235),#254,.T.);
#235 = FACE_BOUND('',#236,.T.);
#236 = EDGE_LOOP('',(#237,#238,#246,#253));
#237 = ORIENTED_EDGE('',*,*,#148,.T.);
#238 = ORIENTED_EDGE('',*,*,#239,.T.);
#239 = EDGE_CURVE('',#149,#240,#242,.T.);
#240 = VERTEX_POINT('',#241);
#241 = CARTESIAN_POINT('',(-0.755,0.4,0.45));
#242 = LINE('',#243,#244);
#243 = CARTESIAN_POINT('',(-0.755,-0.4,0.45));
#244 = VECTOR('',#245,1.);
#245 = DIRECTION('',(0.,1.,0.));
#246 = ORIENTED_EDGE('',*,*,#247,.F.);
#247 = EDGE_CURVE('',#109,#240,#248,.T.);
#248 = CIRCLE('',#249,4.5E-02);
#249 = AXIS2_PLACEMENT_3D('',#250,#251,#252);
#250 = CARTESIAN_POINT('',(-0.755,0.4,0.405));
#251 = DIRECTION('',(0.,1.,0.));
#252 = DIRECTION('',(0.,-0.,1.));
#253 = ORIENTED_EDGE('',*,*,#116,.F.);
#254 = CYLINDRICAL_SURFACE('',#255,4.5E-02);
#255 = AXIS2_PLACEMENT_3D('',#256,#257,#258);
#256 = CARTESIAN_POINT('',(-0.755,-0.4,0.405));
#257 = DIRECTION('',(0.,1.,0.));
#258 = DIRECTION('',(-1.,0.,0.));
#259 = ADVANCED_FACE('',(#260),#321,.T.);
#260 = FACE_BOUND('',#261,.T.);
#261 = EDGE_LOOP('',(#262,#270,#271,#272,#273,#281,#290,#298,#306,#314)
  );
#262 = ORIENTED_EDGE('',*,*,#263,.F.);
#263 = EDGE_CURVE('',#215,#264,#266,.T.);
#264 = VERTEX_POINT('',#265);
#265 = CARTESIAN_POINT('',(-0.545,0.4,-2.775557561563E-17));
#266 = LINE('',#267,#268);
#267 = CARTESIAN_POINT('',(-0.8,0.4,0.));
#268 = VECTOR('',#269,1.);
#269 = DIRECTION('',(1.,0.,0.));
#270 = ORIENTED_EDGE('',*,*,#214,.F.);
#271 = ORIENTED_EDGE('',*,*,#108,.T.);
#272 = ORIENTED_EDGE('',*,*,#247,.T.);
#273 = ORIENTED_EDGE('',*,*,#274,.T.);
#274 = EDGE_CURVE('',#240,#275,#277,.T.);
#275 = VERTEX_POINT('',#276);
#276 = CARTESIAN_POINT('',(-0.545,0.4,0.45));
#277 = LINE('',#278,#279);
#278 = CARTESIAN_POINT('',(-0.8,0.4,0.45));
#279 = VECTOR('',#280,1.);
#280 = DIRECTION('',(1.,0.,0.));
#281 = ORIENTED_EDGE('',*,*,#282,.F.);
#282 = EDGE_CURVE('',#283,#275,#285,.T.);
#283 = VERTEX_POINT('',#284);
#284 = CARTESIAN_POINT('',(-0.5,0.4,0.405));
#285 = CIRCLE('',#286,4.5E-02);
#286 = AXIS2_PLACEMENT_3D('',#287,#288,#289);
#287 = CARTESIAN_POINT('',(-0.545,0.4,0.405));
#288 = DIRECTION('',(0.,-1.,0.));
#289 = DIRECTION('',(0.,0.,1.));
#290 = ORIENTED_EDGE('',*,*,#291,.F.);
#291 = EDGE_CURVE('',#292,#283,#294,.T.);
#292 = VERTEX_POINT('',#293);
#293 = CARTESIAN_POINT('',(-0.755,0.4,0.405));
#294 = LINE('',#295,#296);
#295 = CARTESIAN_POINT('',(-0.755,0.4,0.405));
#296 = VECTOR('',#297,1.);
#297 = DIRECTION('',(1.,0.,0.));
#298 = ORIENTED_EDGE('',*,*,#299,.F.);
#299 = EDGE_CURVE('',#300,#292,#302,.T.);
#300 = VERTEX_POINT('',#301);
#301 = CARTESIAN_POINT('',(-0.755,0.4,4.5E-02));
#302 = LINE('',#303,#304);
#303 = CARTESIAN_POINT('',(-0.755,0.4,4.5E-02));
#304 = VECTOR('',#305,1.);
#305 = DIRECTION('',(0.,0.,1.));
#306 = ORIENTED_EDGE('',*,*,#307,.T.);
#307 = EDGE_CURVE('',#300,#308,#310,.T.);
#308 = VERTEX_POINT('',#309);
#309 = CARTESIAN_POINT('',(-0.5,0.4,4.5E-02));
#310 = LINE('',#311,#312);
#311 = CARTESIAN_POINT('',(-0.755,0.4,4.5E-02));
#312 = VECTOR('',#313,1.);
#313 = DIRECTION('',(1.,0.,0.));
#314 = ORIENTED_EDGE('',*,*,#315,.T.);
#315 = EDGE_CURVE('',#308,#264,#316,.T.);
#316 = CIRCLE('',#317,4.5E-02);
#317 = AXIS2_PLACEMENT_3D('',#318,#319,#320);
#318 = CARTESIAN_POINT('',(-0.545,0.4,4.5E-02));
#319 = DIRECTION('',(0.,1.,0.));
#320 = DIRECTION('',(0.,-0.,1.));
#321 = PLANE('',#322);
#322 = AXIS2_PLACEMENT_3D('',#323,#324,#325);
#323 = CARTESIAN_POINT('',(-0.8,0.4,0.));
#324 = DIRECTION('',(0.,1.,0.));
#325 = DIRECTION('',(0.,-0.,1.));
#326 = ADVANCED_FACE('',(#327),#338,.F.);
#327 = FACE_BOUND('',#328,.F.);
#328 = EDGE_LOOP('',(#329,#330,#331,#332));
#329 = ORIENTED_EDGE('',*,*,#263,.F.);
#330 = ORIENTED_EDGE('',*,*,#223,.F.);
#331 = ORIENTED_EDGE('',*,*,#130,.T.);
#332 = ORIENTED_EDGE('',*,*,#333,.T.);
#333 = EDGE_CURVE('',#133,#264,#334,.T.);
#334 = LINE('',#335,#336);
#335 = CARTESIAN_POINT('',(-0.545,-0.4,-2.775557561563E-17));
#336 = VECTOR('',#337,1.);
#337 = DIRECTION('',(0.,1.,0.));
#338 = PLANE('',#339);
#339 = AXIS2_PLACEMENT_3D('',#340,#341,#342);
#340 = CARTESIAN_POINT('',(-0.8,-0.4,0.));
#341 = DIRECTION('',(0.,0.,1.));
#342 = DIRECTION('',(1.,0.,-0.));
#343 = ADVANCED_FACE('',(#344),#355,.T.);
#344 = FACE_BOUND('',#345,.T.);
#345 = EDGE_LOOP('',(#346,#347,#348,#349));
#346 = ORIENTED_EDGE('',*,*,#198,.T.);
#347 = ORIENTED_EDGE('',*,*,#333,.T.);
#348 = ORIENTED_EDGE('',*,*,#315,.F.);
#349 = ORIENTED_EDGE('',*,*,#350,.F.);
#350 = EDGE_CURVE('',#191,#308,#351,.T.);
#351 = LINE('',#352,#353);
#352 = CARTESIAN_POINT('',(-0.5,-0.4,4.5E-02));
#353 = VECTOR('',#354,1.);
#354 = DIRECTION('',(0.,1.,0.));
#355 = CYLINDRICAL_SURFACE('',#356,4.5E-02);
#356 = AXIS2_PLACEMENT_3D('',#357,#358,#359);
#357 = CARTESIAN_POINT('',(-0.545,-0.4,4.5E-02));
#358 = DIRECTION('',(0.,1.,0.));
#359 = DIRECTION('',(1.,0.,0.));
#360 = ADVANCED_FACE('',(#361),#404,.F.);
#361 = FACE_BOUND('',#362,.F.);
#362 = EDGE_LOOP('',(#363,#364,#365,#366,#374,#382,#390,#398));
#363 = ORIENTED_EDGE('',*,*,#190,.F.);
#364 = ORIENTED_EDGE('',*,*,#182,.T.);
#365 = ORIENTED_EDGE('',*,*,#174,.T.);
#366 = ORIENTED_EDGE('',*,*,#367,.T.);
#367 = EDGE_CURVE('',#166,#368,#370,.T.);
#368 = VERTEX_POINT('',#369);
#369 = CARTESIAN_POINT('',(0.5,-0.4,0.405));
#370 = LINE('',#371,#372);
#371 = CARTESIAN_POINT('',(-0.5,-0.4,0.405));
#372 = VECTOR('',#373,1.);
#373 = DIRECTION('',(1.,0.,0.));
#374 = ORIENTED_EDGE('',*,*,#375,.T.);
#375 = EDGE_CURVE('',#368,#376,#378,.T.);
#376 = VERTEX_POINT('',#377);
#377 = CARTESIAN_POINT('',(0.755,-0.4,0.405));
#378 = LINE('',#379,#380);
#379 = CARTESIAN_POINT('',(-0.755,-0.4,0.405));
#380 = VECTOR('',#381,1.);
#381 = DIRECTION('',(1.,0.,0.));
#382 = ORIENTED_EDGE('',*,*,#383,.F.);
#383 = EDGE_CURVE('',#384,#376,#386,.T.);
#384 = VERTEX_POINT('',#385);
#385 = CARTESIAN_POINT('',(0.755,-0.4,4.5E-02));
#386 = LINE('',#387,#388);
#387 = CARTESIAN_POINT('',(0.755,-0.4,4.5E-02));
#388 = VECTOR('',#389,1.);
#389 = DIRECTION('',(0.,0.,1.));
#390 = ORIENTED_EDGE('',*,*,#391,.F.);
#391 = EDGE_CURVE('',#392,#384,#394,.T.);
#392 = VERTEX_POINT('',#393);
#393 = CARTESIAN_POINT('',(0.5,-0.4,4.5E-02));
#394 = LINE('',#395,#396);
#395 = CARTESIAN_POINT('',(-0.755,-0.4,4.5E-02));
#396 = VECTOR('',#397,1.);
#397 = DIRECTION('',(1.,0.,0.));
#398 = ORIENTED_EDGE('',*,*,#399,.F.);
#399 = EDGE_CURVE('',#191,#392,#400,.T.);
#400 = LINE('',#401,#402);
#401 = CARTESIAN_POINT('',(-0.755,-0.4,4.5E-02));
#402 = VECTOR('',#403,1.);
#403 = DIRECTION('',(1.,0.,0.));
#404 = PLANE('',#405);
#405 = AXIS2_PLACEMENT_3D('',#406,#407,#408);
#406 = CARTESIAN_POINT('',(-0.755,-0.4,4.5E-02));
#407 = DIRECTION('',(0.,1.,0.));
#408 = DIRECTION('',(0.,-0.,1.));
#409 = ADVANCED_FACE('',(#410),#421,.T.);
#410 = FACE_BOUND('',#411,.T.);
#411 = EDGE_LOOP('',(#412,#413,#414,#415));
#412 = ORIENTED_EDGE('',*,*,#274,.F.);
#413 = ORIENTED_EDGE('',*,*,#239,.F.);
#414 = ORIENTED_EDGE('',*,*,#157,.T.);
#415 = ORIENTED_EDGE('',*,*,#416,.T.);
#416 = EDGE_CURVE('',#158,#275,#417,.T.);
#417 = LINE('',#418,#419);
#418 = CARTESIAN_POINT('',(-0.545,-0.4,0.45));
#419 = VECTOR('',#420,1.);
#420 = DIRECTION('',(0.,1.,0.));
#421 = PLANE('',#422);
#422 = AXIS2_PLACEMENT_3D('',#423,#424,#425);
#423 = CARTESIAN_POINT('',(-0.8,-0.4,0.45));
#424 = DIRECTION('',(0.,0.,1.));
#425 = DIRECTION('',(1.,0.,-0.));
#426 = ADVANCED_FACE('',(#427),#438,.T.);
#427 = FACE_BOUND('',#428,.T.);
#428 = EDGE_LOOP('',(#429,#435,#436,#437));
#429 = ORIENTED_EDGE('',*,*,#430,.T.);
#430 = EDGE_CURVE('',#166,#283,#431,.T.);
#431 = LINE('',#432,#433);
#432 = CARTESIAN_POINT('',(-0.5,-0.4,0.405));
#433 = VECTOR('',#434,1.);
#434 = DIRECTION('',(0.,1.,0.));
#435 = ORIENTED_EDGE('',*,*,#282,.T.);
#436 = ORIENTED_EDGE('',*,*,#416,.F.);
#437 = ORIENTED_EDGE('',*,*,#165,.F.);
#438 = CYLINDRICAL_SURFACE('',#439,4.5E-02);
#439 = AXIS2_PLACEMENT_3D('',#440,#441,#442);
#440 = CARTESIAN_POINT('',(-0.545,-0.4,0.405));
#441 = DIRECTION('',(0.,1.,0.));
#442 = DIRECTION('',(1.,0.,0.));
#443 = ADVANCED_FACE('',(#444),#487,.T.);
#444 = FACE_BOUND('',#445,.T.);
#445 = EDGE_LOOP('',(#446,#447,#448,#449,#457,#465,#473,#481));
#446 = ORIENTED_EDGE('',*,*,#307,.F.);
#447 = ORIENTED_EDGE('',*,*,#299,.T.);
#448 = ORIENTED_EDGE('',*,*,#291,.T.);
#449 = ORIENTED_EDGE('',*,*,#450,.T.);
#450 = EDGE_CURVE('',#283,#451,#453,.T.);
#451 = VERTEX_POINT('',#452);
#452 = CARTESIAN_POINT('',(0.5,0.4,0.405));
#453 = LINE('',#454,#455);
#454 = CARTESIAN_POINT('',(-0.5,0.4,0.405));
#455 = VECTOR('',#456,1.);
#456 = DIRECTION('',(1.,0.,0.));
#457 = ORIENTED_EDGE('',*,*,#458,.T.);
#458 = EDGE_CURVE('',#451,#459,#461,.T.);
#459 = VERTEX_POINT('',#460);
#460 = CARTESIAN_POINT('',(0.755,0.4,0.405));
#461 = LINE('',#462,#463);
#462 = CARTESIAN_POINT('',(-0.755,0.4,0.405));
#463 = VECTOR('',#464,1.);
#464 = DIRECTION('',(1.,0.,0.));
#465 = ORIENTED_EDGE('',*,*,#466,.F.);
#466 = EDGE_CURVE('',#467,#459,#469,.T.);
#467 = VERTEX_POINT('',#468);
#468 = CARTESIAN_POINT('',(0.755,0.4,4.5E-02));
#469 = LINE('',#470,#471);
#470 = CARTESIAN_POINT('',(0.755,0.4,4.5E-02));
#471 = VECTOR('',#472,1.);
#472 = DIRECTION('',(0.,0.,1.));
#473 = ORIENTED_EDGE('',*,*,#474,.F.);
#474 = EDGE_CURVE('',#475,#467,#477,.T.);
#475 = VERTEX_POINT('',#476);
#476 = CARTESIAN_POINT('',(0.5,0.4,4.5E-02));
#477 = LINE('',#478,#479);
#478 = CARTESIAN_POINT('',(-0.755,0.4,4.5E-02));
#479 = VECTOR('',#480,1.);
#480 = DIRECTION('',(1.,0.,0.));
#481 = ORIENTED_EDGE('',*,*,#482,.F.);
#482 = EDGE_CURVE('',#308,#475,#483,.T.);
#483 = LINE('',#484,#485);
#484 = CARTESIAN_POINT('',(-0.755,0.4,4.5E-02));
#485 = VECTOR('',#486,1.);
#486 = DIRECTION('',(1.,0.,0.));
#487 = PLANE('',#488);
#488 = AXIS2_PLACEMENT_3D('',#489,#490,#491);
#489 = CARTESIAN_POINT('',(-0.755,0.4,4.5E-02));
#490 = DIRECTION('',(0.,1.,0.));
#491 = DIRECTION('',(0.,-0.,1.));
#492 = ADVANCED_FACE('',(#493),#504,.F.);
#493 = FACE_BOUND('',#494,.F.);
#494 = EDGE_LOOP('',(#495,#496,#497,#503));
#495 = ORIENTED_EDGE('',*,*,#350,.F.);
#496 = ORIENTED_EDGE('',*,*,#399,.T.);
#497 = ORIENTED_EDGE('',*,*,#498,.T.);
#498 = EDGE_CURVE('',#392,#475,#499,.T.);
#499 = LINE('',#500,#501);
#500 = CARTESIAN_POINT('',(0.5,-0.4,4.5E-02));
#501 = VECTOR('',#502,1.);
#502 = DIRECTION('',(0.,1.,0.));
#503 = ORIENTED_EDGE('',*,*,#482,.F.);
#504 = PLANE('',#505);
#505 = AXIS2_PLACEMENT_3D('',#506,#507,#508);
#506 = CARTESIAN_POINT('',(-0.755,-0.4,4.5E-02));
#507 = DIRECTION('',(0.,0.,1.));
#508 = DIRECTION('',(1.,0.,-0.));
#509 = ADVANCED_FACE('',(#510),#573,.F.);
#510 = FACE_BOUND('',#511,.F.);
#511 = EDGE_LOOP('',(#512,#522,#529,#530,#531,#532,#541,#549,#558,#566)
  );
#512 = ORIENTED_EDGE('',*,*,#513,.F.);
#513 = EDGE_CURVE('',#514,#516,#518,.T.);
#514 = VERTEX_POINT('',#515);
#515 = CARTESIAN_POINT('',(0.545,-0.4,-2.775557561563E-17));
#516 = VERTEX_POINT('',#517);
#517 = CARTESIAN_POINT('',(0.755,-0.4,-2.775557561563E-17));
#518 = LINE('',#519,#520);
#519 = CARTESIAN_POINT('',(0.5,-0.4,0.));
#520 = VECTOR('',#521,1.);
#521 = DIRECTION('',(1.,0.,0.));
#522 = ORIENTED_EDGE('',*,*,#523,.F.);
#523 = EDGE_CURVE('',#392,#514,#524,.T.);
#524 = CIRCLE('',#525,4.5E-02);
#525 = AXIS2_PLACEMENT_3D('',#526,#527,#528);
#526 = CARTESIAN_POINT('',(0.545,-0.4,4.5E-02));
#527 = DIRECTION('',(0.,-1.,0.));
#528 = DIRECTION('',(0.,0.,1.));
#529 = ORIENTED_EDGE('',*,*,#391,.T.);
#530 = ORIENTED_EDGE('',*,*,#383,.T.);
#531 = ORIENTED_EDGE('',*,*,#375,.F.);
#532 = ORIENTED_EDGE('',*,*,#533,.T.);
#533 = EDGE_CURVE('',#368,#534,#536,.T.);
#534 = VERTEX_POINT('',#535);
#535 = CARTESIAN_POINT('',(0.545,-0.4,0.45));
#536 = CIRCLE('',#537,4.5E-02);
#537 = AXIS2_PLACEMENT_3D('',#538,#539,#540);
#538 = CARTESIAN_POINT('',(0.545,-0.4,0.405));
#539 = DIRECTION('',(0.,1.,0.));
#540 = DIRECTION('',(0.,-0.,1.));
#541 = ORIENTED_EDGE('',*,*,#542,.T.);
#542 = EDGE_CURVE('',#534,#543,#545,.T.);
#543 = VERTEX_POINT('',#544);
#544 = CARTESIAN_POINT('',(0.755,-0.4,0.45));
#545 = LINE('',#546,#547);
#546 = CARTESIAN_POINT('',(0.5,-0.4,0.45));
#547 = VECTOR('',#548,1.);
#548 = DIRECTION('',(1.,0.,0.));
#549 = ORIENTED_EDGE('',*,*,#550,.F.);
#550 = EDGE_CURVE('',#551,#543,#553,.T.);
#551 = VERTEX_POINT('',#552);
#552 = CARTESIAN_POINT('',(0.8,-0.4,0.405));
#553 = CIRCLE('',#554,4.5E-02);
#554 = AXIS2_PLACEMENT_3D('',#555,#556,#557);
#555 = CARTESIAN_POINT('',(0.755,-0.4,0.405));
#556 = DIRECTION('',(0.,-1.,0.));
#557 = DIRECTION('',(0.,0.,1.));
#558 = ORIENTED_EDGE('',*,*,#559,.F.);
#559 = EDGE_CURVE('',#560,#551,#562,.T.);
#560 = VERTEX_POINT('',#561);
#561 = CARTESIAN_POINT('',(0.8,-0.4,4.5E-02));
#562 = LINE('',#563,#564);
#563 = CARTESIAN_POINT('',(0.8,-0.4,0.));
#564 = VECTOR('',#565,1.);
#565 = DIRECTION('',(0.,0.,1.));
#566 = ORIENTED_EDGE('',*,*,#567,.T.);
#567 = EDGE_CURVE('',#560,#516,#568,.T.);
#568 = CIRCLE('',#569,4.5E-02);
#569 = AXIS2_PLACEMENT_3D('',#570,#571,#572);
#570 = CARTESIAN_POINT('',(0.755,-0.4,4.5E-02));
#571 = DIRECTION('',(0.,1.,0.));
#572 = DIRECTION('',(0.,-0.,1.));
#573 = PLANE('',#574);
#574 = AXIS2_PLACEMENT_3D('',#575,#576,#577);
#575 = CARTESIAN_POINT('',(0.5,-0.4,0.));
#576 = DIRECTION('',(0.,1.,0.));
#577 = DIRECTION('',(0.,-0.,1.));
#578 = ADVANCED_FACE('',(#579),#604,.F.);
#579 = FACE_BOUND('',#580,.F.);
#580 = EDGE_LOOP('',(#581,#582,#590,#598));
#581 = ORIENTED_EDGE('',*,*,#367,.F.);
#582 = ORIENTED_EDGE('',*,*,#583,.T.);
#583 = EDGE_CURVE('',#166,#584,#586,.T.);
#584 = VERTEX_POINT('',#585);
#585 = CARTESIAN_POINT('',(-0.5,-0.4,0.45));
#586 = LINE('',#587,#588);
#587 = CARTESIAN_POINT('',(-0.5,-0.4,0.405));
#588 = VECTOR('',#589,1.);
#589 = DIRECTION('',(0.,0.,1.));
#590 = ORIENTED_EDGE('',*,*,#591,.T.);
#591 = EDGE_CURVE('',#584,#592,#594,.T.);
#592 = VERTEX_POINT('',#593);
#593 = CARTESIAN_POINT('',(0.5,-0.4,0.45));
#594 = LINE('',#595,#596);
#595 = CARTESIAN_POINT('',(-0.5,-0.4,0.45));
#596 = VECTOR('',#597,1.);
#597 = DIRECTION('',(1.,0.,0.));
#598 = ORIENTED_EDGE('',*,*,#599,.F.);
#599 = EDGE_CURVE('',#368,#592,#600,.T.);
#600 = LINE('',#601,#602);
#601 = CARTESIAN_POINT('',(0.5,-0.4,0.405));
#602 = VECTOR('',#603,1.);
#603 = DIRECTION('',(0.,0.,1.));
#604 = PLANE('',#605);
#605 = AXIS2_PLACEMENT_3D('',#606,#607,#608);
#606 = CARTESIAN_POINT('',(-0.5,-0.4,0.405));
#607 = DIRECTION('',(0.,1.,0.));
#608 = DIRECTION('',(0.,-0.,1.));
#609 = ADVANCED_FACE('',(#610),#628,.F.);
#610 = FACE_BOUND('',#611,.F.);
#611 = EDGE_LOOP('',(#612,#613,#614,#622));
#612 = ORIENTED_EDGE('',*,*,#583,.F.);
#613 = ORIENTED_EDGE('',*,*,#430,.T.);
#614 = ORIENTED_EDGE('',*,*,#615,.T.);
#615 = EDGE_CURVE('',#283,#616,#618,.T.);
#616 = VERTEX_POINT('',#617);
#617 = CARTESIAN_POINT('',(-0.5,0.4,0.45));
#618 = LINE('',#619,#620);
#619 = CARTESIAN_POINT('',(-0.5,0.4,0.405));
#620 = VECTOR('',#621,1.);
#621 = DIRECTION('',(0.,0.,1.));
#622 = ORIENTED_EDGE('',*,*,#623,.F.);
#623 = EDGE_CURVE('',#584,#616,#624,.T.);
#624 = LINE('',#625,#626);
#625 = CARTESIAN_POINT('',(-0.5,-0.4,0.45));
#626 = VECTOR('',#627,1.);
#627 = DIRECTION('',(0.,1.,0.));
#628 = PLANE('',#629);
#629 = AXIS2_PLACEMENT_3D('',#630,#631,#632);
#630 = CARTESIAN_POINT('',(-0.5,-0.4,0.405));
#631 = DIRECTION('',(1.,0.,0.));
#632 = DIRECTION('',(0.,0.,1.));
#633 = ADVANCED_FACE('',(#634),#697,.T.);
#634 = FACE_BOUND('',#635,.T.);
#635 = EDGE_LOOP('',(#636,#646,#653,#654,#655,#656,#665,#673,#682,#690)
  );
#636 = ORIENTED_EDGE('',*,*,#637,.F.);
#637 = EDGE_CURVE('',#638,#640,#642,.T.);
#638 = VERTEX_POINT('',#639);
#639 = CARTESIAN_POINT('',(0.545,0.4,-2.775557561563E-17));
#640 = VERTEX_POINT('',#641);
#641 = CARTESIAN_POINT('',(0.755,0.4,-2.775557561563E-17));
#642 = LINE('',#643,#644);
#643 = CARTESIAN_POINT('',(0.5,0.4,0.));
#644 = VECTOR('',#645,1.);
#645 = DIRECTION('',(1.,0.,0.));
#646 = ORIENTED_EDGE('',*,*,#647,.F.);
#647 = EDGE_CURVE('',#475,#638,#648,.T.);
#648 = CIRCLE('',#649,4.5E-02);
#649 = AXIS2_PLACEMENT_3D('',#650,#651,#652);
#650 = CARTESIAN_POINT('',(0.545,0.4,4.5E-02));
#651 = DIRECTION('',(0.,-1.,0.));
#652 = DIRECTION('',(0.,0.,1.));
#653 = ORIENTED_EDGE('',*,*,#474,.T.);
#654 = ORIENTED_EDGE('',*,*,#466,.T.);
#655 = ORIENTED_EDGE('',*,*,#458,.F.);
#656 = ORIENTED_EDGE('',*,*,#657,.T.);
#657 = EDGE_CURVE('',#451,#658,#660,.T.);
#658 = VERTEX_POINT('',#659);
#659 = CARTESIAN_POINT('',(0.545,0.4,0.45));
#660 = CIRCLE('',#661,4.5E-02);
#661 = AXIS2_PLACEMENT_3D('',#662,#663,#664);
#662 = CARTESIAN_POINT('',(0.545,0.4,0.405));
#663 = DIRECTION('',(0.,1.,0.));
#664 = DIRECTION('',(0.,-0.,1.));
#665 = ORIENTED_EDGE('',*,*,#666,.T.);
#666 = EDGE_CURVE('',#658,#667,#669,.T.);
#667 = VERTEX_POINT('',#668);
#668 = CARTESIAN_POINT('',(0.755,0.4,0.45));
#669 = LINE('',#670,#671);
#670 = CARTESIAN_POINT('',(0.5,0.4,0.45));
#671 = VECTOR('',#672,1.);
#672 = DIRECTION('',(1.,0.,0.));
#673 = ORIENTED_EDGE('',*,*,#674,.F.);
#674 = EDGE_CURVE('',#675,#667,#677,.T.);
#675 = VERTEX_POINT('',#676);
#676 = CARTESIAN_POINT('',(0.8,0.4,0.405));
#677 = CIRCLE('',#678,4.5E-02);
#678 = AXIS2_PLACEMENT_3D('',#679,#680,#681);
#679 = CARTESIAN_POINT('',(0.755,0.4,0.405));
#680 = DIRECTION('',(0.,-1.,0.));
#681 = DIRECTION('',(0.,0.,1.));
#682 = ORIENTED_EDGE('',*,*,#683,.F.);
#683 = EDGE_CURVE('',#684,#675,#686,.T.);
#684 = VERTEX_POINT('',#685);
#685 = CARTESIAN_POINT('',(0.8,0.4,4.5E-02));
#686 = LINE('',#687,#688);
#687 = CARTESIAN_POINT('',(0.8,0.4,0.));
#688 = VECTOR('',#689,1.);
#689 = DIRECTION('',(0.,0.,1.));
#690 = ORIENTED_EDGE('',*,*,#691,.T.);
#691 = EDGE_CURVE('',#684,#640,#692,.T.);
#692 = CIRCLE('',#693,4.5E-02);
#693 = AXIS2_PLACEMENT_3D('',#694,#695,#696);
#694 = CARTESIAN_POINT('',(0.755,0.4,4.5E-02));
#695 = DIRECTION('',(0.,1.,0.));
#696 = DIRECTION('',(0.,-0.,1.));
#697 = PLANE('',#698);
#698 = AXIS2_PLACEMENT_3D('',#699,#700,#701);
#699 = CARTESIAN_POINT('',(0.5,0.4,0.));
#700 = DIRECTION('',(0.,1.,0.));
#701 = DIRECTION('',(0.,-0.,1.));
#702 = ADVANCED_FACE('',(#703),#721,.T.);
#703 = FACE_BOUND('',#704,.T.);
#704 = EDGE_LOOP('',(#705,#706,#707,#715));
#705 = ORIENTED_EDGE('',*,*,#450,.F.);
#706 = ORIENTED_EDGE('',*,*,#615,.T.);
#707 = ORIENTED_EDGE('',*,*,#708,.T.);
#708 = EDGE_CURVE('',#616,#709,#711,.T.);
#709 = VERTEX_POINT('',#710);
#710 = CARTESIAN_POINT('',(0.5,0.4,0.45));
#711 = LINE('',#712,#713);
#712 = CARTESIAN_POINT('',(-0.5,0.4,0.45));
#713 = VECTOR('',#714,1.);
#714 = DIRECTION('',(1.,0.,0.));
#715 = ORIENTED_EDGE('',*,*,#716,.F.);
#716 = EDGE_CURVE('',#451,#709,#717,.T.);
#717 = LINE('',#718,#719);
#718 = CARTESIAN_POINT('',(0.5,0.4,0.405));
#719 = VECTOR('',#720,1.);
#720 = DIRECTION('',(0.,0.,1.));
#721 = PLANE('',#722);
#722 = AXIS2_PLACEMENT_3D('',#723,#724,#725);
#723 = CARTESIAN_POINT('',(-0.5,0.4,0.405));
#724 = DIRECTION('',(0.,1.,0.));
#725 = DIRECTION('',(0.,-0.,1.));
#726 = ADVANCED_FACE('',(#727),#738,.T.);
#727 = FACE_BOUND('',#728,.T.);
#728 = EDGE_LOOP('',(#729,#730,#731,#737));
#729 = ORIENTED_EDGE('',*,*,#498,.T.);
#730 = ORIENTED_EDGE('',*,*,#647,.T.);
#731 = ORIENTED_EDGE('',*,*,#732,.F.);
#732 = EDGE_CURVE('',#514,#638,#733,.T.);
#733 = LINE('',#734,#735);
#734 = CARTESIAN_POINT('',(0.545,-0.4,-2.775557561563E-17));
#735 = VECTOR('',#736,1.);
#736 = DIRECTION('',(0.,1.,0.));
#737 = ORIENTED_EDGE('',*,*,#523,.F.);
#738 = CYLINDRICAL_SURFACE('',#739,4.5E-02);
#739 = AXIS2_PLACEMENT_3D('',#740,#741,#742);
#740 = CARTESIAN_POINT('',(0.545,-0.4,4.5E-02));
#741 = DIRECTION('',(0.,1.,0.));
#742 = DIRECTION('',(-1.,0.,0.));
#743 = ADVANCED_FACE('',(#744),#755,.F.);
#744 = FACE_BOUND('',#745,.F.);
#745 = EDGE_LOOP('',(#746,#747,#748,#749));
#746 = ORIENTED_EDGE('',*,*,#637,.F.);
#747 = ORIENTED_EDGE('',*,*,#732,.F.);
#748 = ORIENTED_EDGE('',*,*,#513,.T.);
#749 = ORIENTED_EDGE('',*,*,#750,.T.);
#750 = EDGE_CURVE('',#516,#640,#751,.T.);
#751 = LINE('',#752,#753);
#752 = CARTESIAN_POINT('',(0.755,-0.4,-2.775557561563E-17));
#753 = VECTOR('',#754,1.);
#754 = DIRECTION('',(0.,1.,0.));
#755 = PLANE('',#756);
#756 = AXIS2_PLACEMENT_3D('',#757,#758,#759);
#757 = CARTESIAN_POINT('',(0.5,-0.4,0.));
#758 = DIRECTION('',(0.,0.,1.));
#759 = DIRECTION('',(1.,0.,-0.));
#760 = ADVANCED_FACE('',(#761),#772,.T.);
#761 = FACE_BOUND('',#762,.T.);
#762 = EDGE_LOOP('',(#763,#764,#765,#766));
#763 = ORIENTED_EDGE('',*,*,#567,.T.);
#764 = ORIENTED_EDGE('',*,*,#750,.T.);
#765 = ORIENTED_EDGE('',*,*,#691,.F.);
#766 = ORIENTED_EDGE('',*,*,#767,.F.);
#767 = EDGE_CURVE('',#560,#684,#768,.T.);
#768 = LINE('',#769,#770);
#769 = CARTESIAN_POINT('',(0.8,-0.4,4.5E-02));
#770 = VECTOR('',#771,1.);
#771 = DIRECTION('',(0.,1.,0.));
#772 = CYLINDRICAL_SURFACE('',#773,4.5E-02);
#773 = AXIS2_PLACEMENT_3D('',#774,#775,#776);
#774 = CARTESIAN_POINT('',(0.755,-0.4,4.5E-02));
#775 = DIRECTION('',(0.,1.,0.));
#776 = DIRECTION('',(1.,0.,0.));
#777 = ADVANCED_FACE('',(#778),#789,.T.);
#778 = FACE_BOUND('',#779,.T.);
#779 = EDGE_LOOP('',(#780,#781,#782,#783));
#780 = ORIENTED_EDGE('',*,*,#559,.F.);
#781 = ORIENTED_EDGE('',*,*,#767,.T.);
#782 = ORIENTED_EDGE('',*,*,#683,.T.);
#783 = ORIENTED_EDGE('',*,*,#784,.F.);
#784 = EDGE_CURVE('',#551,#675,#785,.T.);
#785 = LINE('',#786,#787);
#786 = CARTESIAN_POINT('',(0.8,-0.4,0.405));
#787 = VECTOR('',#788,1.);
#788 = DIRECTION('',(0.,1.,0.));
#789 = PLANE('',#790);
#790 = AXIS2_PLACEMENT_3D('',#791,#792,#793);
#791 = CARTESIAN_POINT('',(0.8,-0.4,0.));
#792 = DIRECTION('',(1.,0.,0.));
#793 = DIRECTION('',(0.,0.,1.));
#794 = ADVANCED_FACE('',(#795),#806,.T.);
#795 = FACE_BOUND('',#796,.T.);
#796 = EDGE_LOOP('',(#797,#798,#799,#805));
#797 = ORIENTED_EDGE('',*,*,#784,.T.);
#798 = ORIENTED_EDGE('',*,*,#674,.T.);
#799 = ORIENTED_EDGE('',*,*,#800,.F.);
#800 = EDGE_CURVE('',#543,#667,#801,.T.);
#801 = LINE('',#802,#803);
#802 = CARTESIAN_POINT('',(0.755,-0.4,0.45));
#803 = VECTOR('',#804,1.);
#804 = DIRECTION('',(0.,1.,0.));
#805 = ORIENTED_EDGE('',*,*,#550,.F.);
#806 = CYLINDRICAL_SURFACE('',#807,4.5E-02);
#807 = AXIS2_PLACEMENT_3D('',#808,#809,#810);
#808 = CARTESIAN_POINT('',(0.755,-0.4,0.405));
#809 = DIRECTION('',(0.,1.,0.));
#810 = DIRECTION('',(1.,0.,0.));
#811 = ADVANCED_FACE('',(#812),#823,.T.);
#812 = FACE_BOUND('',#813,.T.);
#813 = EDGE_LOOP('',(#814,#815,#821,#822));
#814 = ORIENTED_EDGE('',*,*,#666,.F.);
#815 = ORIENTED_EDGE('',*,*,#816,.F.);
#816 = EDGE_CURVE('',#534,#658,#817,.T.);
#817 = LINE('',#818,#819);
#818 = CARTESIAN_POINT('',(0.545,-0.4,0.45));
#819 = VECTOR('',#820,1.);
#820 = DIRECTION('',(0.,1.,0.));
#821 = ORIENTED_EDGE('',*,*,#542,.T.);
#822 = ORIENTED_EDGE('',*,*,#800,.T.);
#823 = PLANE('',#824);
#824 = AXIS2_PLACEMENT_3D('',#825,#826,#827);
#825 = CARTESIAN_POINT('',(0.5,-0.4,0.45));
#826 = DIRECTION('',(0.,0.,1.));
#827 = DIRECTION('',(1.,0.,-0.));
#828 = ADVANCED_FACE('',(#829),#840,.T.);
#829 = FACE_BOUND('',#830,.T.);
#830 = EDGE_LOOP('',(#831,#832,#833,#834));
#831 = ORIENTED_EDGE('',*,*,#533,.T.);
#832 = ORIENTED_EDGE('',*,*,#816,.T.);
#833 = ORIENTED_EDGE('',*,*,#657,.F.);
#834 = ORIENTED_EDGE('',*,*,#835,.F.);
#835 = EDGE_CURVE('',#368,#451,#836,.T.);
#836 = LINE('',#837,#838);
#837 = CARTESIAN_POINT('',(0.5,-0.4,0.405));
#838 = VECTOR('',#839,1.);
#839 = DIRECTION('',(0.,1.,0.));
#840 = CYLINDRICAL_SURFACE('',#841,4.5E-02);
#841 = AXIS2_PLACEMENT_3D('',#842,#843,#844);
#842 = CARTESIAN_POINT('',(0.545,-0.4,0.405));
#843 = DIRECTION('',(0.,1.,0.));
#844 = DIRECTION('',(-1.,0.,0.));
#845 = ADVANCED_FACE('',(#846),#857,.T.);
#846 = FACE_BOUND('',#847,.T.);
#847 = EDGE_LOOP('',(#848,#849,#850,#851));
#848 = ORIENTED_EDGE('',*,*,#599,.F.);
#849 = ORIENTED_EDGE('',*,*,#835,.T.);
#850 = ORIENTED_EDGE('',*,*,#716,.T.);
#851 = ORIENTED_EDGE('',*,*,#852,.F.);
#852 = EDGE_CURVE('',#592,#709,#853,.T.);
#853 = LINE('',#854,#855);
#854 = CARTESIAN_POINT('',(0.5,-0.4,0.45));
#855 = VECTOR('',#856,1.);
#856 = DIRECTION('',(0.,1.,0.));
#857 = PLANE('',#858);
#858 = AXIS2_PLACEMENT_3D('',#859,#860,#861);
#859 = CARTESIAN_POINT('',(0.5,-0.4,0.405));
#860 = DIRECTION('',(1.,0.,0.));
#861 = DIRECTION('',(0.,0.,1.));
#862 = ADVANCED_FACE('',(#863),#869,.T.);
#863 = FACE_BOUND('',#864,.T.);
#864 = EDGE_LOOP('',(#865,#866,#867,#868));
#865 = ORIENTED_EDGE('',*,*,#623,.F.);
#866 = ORIENTED_EDGE('',*,*,#591,.T.);
#867 = ORIENTED_EDGE('',*,*,#852,.T.);
#868 = ORIENTED_EDGE('',*,*,#708,.F.);
#869 = PLANE('',#870);
#870 = AXIS2_PLACEMENT_3D('',#871,#872,#873);
#871 = CARTESIAN_POINT('',(-0.5,-0.4,0.45));
#872 = DIRECTION('',(0.,0.,1.));
#873 = DIRECTION('',(1.,0.,-0.));
#874 = ( GEOMETRIC_REPRESENTATION_CONTEXT(3) 
GLOBAL_UNCERTAINTY_ASSIGNED_CONTEXT((#878)) GLOBAL_UNIT_ASSIGNED_CONTEXT
((#875,#876,#877)) REPRESENTATION_CONTEXT('Context #1',
  '3D Context with UNIT and UNCERTAINTY') );
#875 = ( LENGTH_UNIT() NAMED_UNIT(*) SI_UNIT(.MILLI.,.METRE.) );
#876 = ( NAMED_UNIT(*) PLANE_ANGLE_UNIT() SI_UNIT($,.RADIAN.) );
#877 = ( NAMED_UNIT(*) SI_UNIT($,.STERADIAN.) SOLID_ANGLE_UNIT() );
#878 = UNCERTAINTY_MEASURE_WITH_UNIT(LENGTH_MEASURE(1.E-07),#875,
  'distance_accuracy_value','confusion accuracy');
#879 = CONTEXT_DEPENDENT_SHAPE_REPRESENTATION(#880,#882);
#880 = ( REPRESENTATION_RELATIONSHIP('','',#83,#60) 
REPRESENTATION_RELATIONSHIP_WITH_TRANSFORMATION(#881) 
SHAPE_REPRESENTATION_RELATIONSHIP() );
#881 = ITEM_DEFINED_TRANSFORMATION('','',#11,#61);
#882 = PRODUCT_DEFINITION_SHAPE('Placement','Placement of an item',#883
  );
#883 = NEXT_ASSEMBLY_USAGE_OCCURRENCE('1','=>[0:1:1:3]','',#55,#78,$);
#884 = PRODUCT_RELATED_PRODUCT_CATEGORY('part',$,(#80));
#885 = CONTEXT_DEPENDENT_SHAPE_REPRESENTATION(#886,#888);
#886 = ( REPRESENTATION_RELATIONSHIP('','',#60,#10) 
REPRESENTATION_RELATIONSHIP_WITH_TRANSFORMATION(#887) 
SHAPE_REPRESENTATION_RELATIONSHIP() );
#887 = ITEM_DEFINED_TRANSFORMATION('','',#11,#19);
#888 = PRODUCT_DEFINITION_SHAPE('Placement','Placement of an item',#889
  );
#889 = NEXT_ASSEMBLY_USAGE_OCCURRENCE('3','R9','',#5,#55,$);
#890 = CONTEXT_DEPENDENT_SHAPE_REPRESENTATION(#891,#893);
#891 = ( REPRESENTATION_RELATIONSHIP('','',#60,#10) 
REPRESENTATION_RELATIONSHIP_WITH_TRANSFORMATION(#892) 
SHAPE_REPRESENTATION_RELATIONSHIP() );
#892 = ITEM_DEFINED_TRANSFORMATION('','',#11,#23);
#893 = PRODUCT_DEFINITION_SHAPE('Placement','Placement of an item',#894
  );
#894 = NEXT_ASSEMBLY_USAGE_OCCURRENCE('4','R1','',#5,#55,$);
#895 = CONTEXT_DEPENDENT_SHAPE_REPRESENTATION(#896,#898);
#896 = ( REPRESENTATION_RELATIONSHIP('','',#60,#10) 
REPRESENTATION_RELATIONSHIP_WITH_TRANSFORMATION(#897) 
SHAPE_REPRESENTATION_RELATIONSHIP() );
#897 = ITEM_DEFINED_TRANSFORMATION('','',#11,#27);
#898 = PRODUCT_DEFINITION_SHAPE('Placement','Placement of an item',#899
  );
#899 = NEXT_ASSEMBLY_USAGE_OCCURRENCE('5','R4','',#5,#55,$);
#900 = CONTEXT_DEPENDENT_SHAPE_REPRESENTATION(#901,#903);
#901 = ( REPRESENTATION_RELATIONSHIP('','',#60,#10) 
REPRESENTATION_RELATIONSHIP_WITH_TRANSFORMATION(#902) 
SHAPE_REPRESENTATION_RELATIONSHIP() );
#902 = ITEM_DEFINED_TRANSFORMATION('','',#11,#31);
#903 = PRODUCT_DEFINITION_SHAPE('Placement','Placement of an item',#904
  );
#904 = NEXT_ASSEMBLY_USAGE_OCCURRENCE('6','R5','',#5,#55,$);
#905 = CONTEXT_DEPENDENT_SHAPE_REPRESENTATION(#906,#908);
#906 = ( REPRESENTATION_RELATIONSHIP('','',#60,#10) 
REPRESENTATION_RELATIONSHIP_WITH_TRANSFORMATION(#907) 
SHAPE_REPRESENTATION_RELATIONSHIP() );
#907 = ITEM_DEFINED_TRANSFORMATION('','',#11,#35);
#908 = PRODUCT_DEFINITION_SHAPE('Placement','Placement of an item',#909
  );
#909 = NEXT_ASSEMBLY_USAGE_OCCURRENCE('7','R3','',#5,#55,$);
#910 = CONTEXT_DEPENDENT_SHAPE_REPRESENTATION(#911,#913);
#911 = ( REPRESENTATION_RELATIONSHIP('','',#60,#10) 
REPRESENTATION_RELATIONSHIP_WITH_TRANSFORMATION(#912) 
SHAPE_REPRESENTATION_RELATIONSHIP() );
#912 = ITEM_DEFINED_TRANSFORMATION('','',#11,#39);
#913 = PRODUCT_DEFINITION_SHAPE('Placement','Placement of an item',#914
  );
#914 = NEXT_ASSEMBLY_USAGE_OCCURRENCE('8','R2','',#5,#55,$);
#915 = SHAPE_DEFINITION_REPRESENTATION(#916,#922);
#916 = PRODUCT_DEFINITION_SHAPE('','',#917);
#917 = PRODUCT_DEFINITION('design','',#918,#921);
#918 = PRODUCT_DEFINITION_FORMATION('','',#919);
#919 = PRODUCT('Mot78B0_PCB','Mot78B0_PCB','',(#920));
#920 = PRODUCT_CONTEXT('',#2,'mechanical');
#921 = PRODUCT_DEFINITION_CONTEXT('part definition',#2,'design');
#922 = ADVANCED_BREP_SHAPE_REPRESENTATION('',(#11,#923),#1936);
#923 = MANIFOLD_SOLID_BREP('',#924);
#924 = CLOSED_SHELL('',(#925,#967,#998,#1029,#1264,#1499,#1516,#1533,
    #1550,#1567,#1584,#1601,#1618,#1635,#1652,#1669,#1686,#1703,#1720,
    #1737,#1754,#1771,#1788,#1805,#1822,#1839,#1856,#1873,#1890,#1902,
    #1919));
#925 = ADVANCED_FACE('',(#926),#962,.T.);
#926 = FACE_BOUND('',#927,.T.);
#927 = EDGE_LOOP('',(#928,#938,#947,#955));
#928 = ORIENTED_EDGE('',*,*,#929,.T.);
#929 = EDGE_CURVE('',#930,#932,#934,.T.);
#930 = VERTEX_POINT('',#931);
#931 = CARTESIAN_POINT('',(-5.762563,68.2626,0.));
#932 = VERTEX_POINT('',#933);
#933 = CARTESIAN_POINT('',(-5.762563,68.2626,1.51));
#934 = LINE('',#935,#936);
#935 = CARTESIAN_POINT('',(-5.762563,68.2626,0.));
#936 = VECTOR('',#937,1.);
#937 = DIRECTION('',(0.,0.,1.));
#938 = ORIENTED_EDGE('',*,*,#939,.T.);
#939 = EDGE_CURVE('',#932,#940,#942,.T.);
#940 = VERTEX_POINT('',#941);
#941 = CARTESIAN_POINT('',(-3.811742,70.000998,1.51));
#942 = CIRCLE('',#943,1.749993662435);
#943 = AXIS2_PLACEMENT_3D('',#944,#945,#946);
#944 = CARTESIAN_POINT('',(-4.012569337898,68.262565890623,1.51));
#945 = DIRECTION('',(0.,0.,-1.));
#946 = DIRECTION('',(-0.99999999981,1.949114339203E-05,0.));
#947 = ORIENTED_EDGE('',*,*,#948,.F.);
#948 = EDGE_CURVE('',#949,#940,#951,.T.);
#949 = VERTEX_POINT('',#950);
#950 = CARTESIAN_POINT('',(-3.811742,70.000998,0.));
#951 = LINE('',#952,#953);
#952 = CARTESIAN_POINT('',(-3.811742,70.000998,0.));
#953 = VECTOR('',#954,1.);
#954 = DIRECTION('',(0.,0.,1.));
#955 = ORIENTED_EDGE('',*,*,#956,.F.);
#956 = EDGE_CURVE('',#930,#949,#957,.T.);
#957 = CIRCLE('',#958,1.749993662435);
#958 = AXIS2_PLACEMENT_3D('',#959,#960,#961);
#959 = CARTESIAN_POINT('',(-4.012569337898,68.262565890623,0.));
#960 = DIRECTION('',(0.,0.,-1.));
#961 = DIRECTION('',(-0.99999999981,1.949114339203E-05,0.));
#962 = CYLINDRICAL_SURFACE('',#963,1.749993662435);
#963 = AXIS2_PLACEMENT_3D('',#964,#965,#966);
#964 = CARTESIAN_POINT('',(-4.012569337898,68.262565890623,0.));
#965 = DIRECTION('',(0.,0.,-1.));
#966 = DIRECTION('',(-0.99999999981,1.949114339203E-05,0.));
#967 = ADVANCED_FACE('',(#968),#993,.T.);
#968 = FACE_BOUND('',#969,.T.);
#969 = EDGE_LOOP('',(#970,#980,#986,#987));
#970 = ORIENTED_EDGE('',*,*,#971,.T.);
#971 = EDGE_CURVE('',#972,#974,#976,.T.);
#972 = VERTEX_POINT('',#973);
#973 = CARTESIAN_POINT('',(-5.762563,26.249284,0.));
#974 = VERTEX_POINT('',#975);
#975 = CARTESIAN_POINT('',(-5.762563,26.249284,1.51));
#976 = LINE('',#977,#978);
#977 = CARTESIAN_POINT('',(-5.762563,26.249284,0.));
#978 = VECTOR('',#979,1.);
#979 = DIRECTION('',(0.,0.,1.));
#980 = ORIENTED_EDGE('',*,*,#981,.T.);
#981 = EDGE_CURVE('',#974,#932,#982,.T.);
#982 = LINE('',#983,#984);
#983 = CARTESIAN_POINT('',(-5.762563,26.249284,1.51));
#984 = VECTOR('',#985,1.);
#985 = DIRECTION('',(0.,1.,0.));
#986 = ORIENTED_EDGE('',*,*,#929,.F.);
#987 = ORIENTED_EDGE('',*,*,#988,.F.);
#988 = EDGE_CURVE('',#972,#930,#989,.T.);
#989 = LINE('',#990,#991);
#990 = CARTESIAN_POINT('',(-5.762563,26.249284,0.));
#991 = VECTOR('',#992,1.);
#992 = DIRECTION('',(0.,1.,0.));
#993 = PLANE('',#994);
#994 = AXIS2_PLACEMENT_3D('',#995,#996,#997);
#995 = CARTESIAN_POINT('',(-5.762563,26.249284,0.));
#996 = DIRECTION('',(-1.,0.,0.));
#997 = DIRECTION('',(0.,1.,0.));
#998 = ADVANCED_FACE('',(#999),#1024,.T.);
#999 = FACE_BOUND('',#1000,.T.);
#1000 = EDGE_LOOP('',(#1001,#1002,#1010,#1018));
#1001 = ORIENTED_EDGE('',*,*,#948,.T.);
#1002 = ORIENTED_EDGE('',*,*,#1003,.T.);
#1003 = EDGE_CURVE('',#940,#1004,#1006,.T.);
#1004 = VERTEX_POINT('',#1005);
#1005 = CARTESIAN_POINT('',(-0.111216,70.009997,1.51));
#1006 = LINE('',#1007,#1008);
#1007 = CARTESIAN_POINT('',(-3.811742,70.000998,1.51));
#1008 = VECTOR('',#1009,1.);
#1009 = DIRECTION('',(0.999997043147,2.431809259356E-03,0.));
#1010 = ORIENTED_EDGE('',*,*,#1011,.F.);
#1011 = EDGE_CURVE('',#1012,#1004,#1014,.T.);
#1012 = VERTEX_POINT('',#1013);
#1013 = CARTESIAN_POINT('',(-0.111216,70.009997,0.));
#1014 = LINE('',#1015,#1016);
#1015 = CARTESIAN_POINT('',(-0.111216,70.009997,0.));
#1016 = VECTOR('',#1017,1.);
#1017 = DIRECTION('',(0.,0.,1.));
#1018 = ORIENTED_EDGE('',*,*,#1019,.F.);
#1019 = EDGE_CURVE('',#949,#1012,#1020,.T.);
#1020 = LINE('',#1021,#1022);
#1021 = CARTESIAN_POINT('',(-3.811742,70.000998,0.));
#1022 = VECTOR('',#1023,1.);
#1023 = DIRECTION('',(0.999997043147,2.431809259356E-03,0.));
#1024 = PLANE('',#1025);
#1025 = AXIS2_PLACEMENT_3D('',#1026,#1027,#1028);
#1026 = CARTESIAN_POINT('',(-3.811742,70.000998,0.));
#1027 = DIRECTION('',(-2.431809259356E-03,0.999997043147,0.));
#1028 = DIRECTION('',(0.999997043147,2.431809259356E-03,0.));
#1029 = ADVANCED_FACE('',(#1030,#1237,#1248),#1259,.F.);
#1030 = FACE_BOUND('',#1031,.F.);
#1031 = EDGE_LOOP('',(#1032,#1033,#1034,#1043,#1051,#1059,#1068,#1076,
    #1085,#1093,#1102,#1110,#1119,#1127,#1135,#1143,#1151,#1160,#1168,
    #1176,#1185,#1194,#1203,#1211,#1220,#1229,#1236));
#1032 = ORIENTED_EDGE('',*,*,#956,.F.);
#1033 = ORIENTED_EDGE('',*,*,#988,.F.);
#1034 = ORIENTED_EDGE('',*,*,#1035,.F.);
#1035 = EDGE_CURVE('',#1036,#972,#1038,.T.);
#1036 = VERTEX_POINT('',#1037);
#1037 = CARTESIAN_POINT('',(-4.5125,25.012565,0.));
#1038 = CIRCLE('',#1039,1.25013128199);
#1039 = AXIS2_PLACEMENT_3D('',#1040,#1041,#1042);
#1040 = CARTESIAN_POINT('',(-4.512503668248,26.262696281984,0.));
#1041 = DIRECTION('',(0.,0.,-1.));
#1042 = DIRECTION('',(2.934289911489E-06,-0.999999999996,0.));
#1043 = ORIENTED_EDGE('',*,*,#1044,.F.);
#1044 = EDGE_CURVE('',#1045,#1036,#1047,.T.);
#1045 = VERTEX_POINT('',#1046);
#1046 = CARTESIAN_POINT('',(-4.5125,25.006281,0.));
#1047 = LINE('',#1048,#1049);
#1048 = CARTESIAN_POINT('',(-4.5125,25.006281,0.));
#1049 = VECTOR('',#1050,1.);
#1050 = DIRECTION('',(0.,1.,0.));
#1051 = ORIENTED_EDGE('',*,*,#1052,.F.);
#1052 = EDGE_CURVE('',#1053,#1045,#1055,.T.);
#1053 = VERTEX_POINT('',#1054);
#1054 = CARTESIAN_POINT('',(9.588612,25.004848,0.));
#1055 = LINE('',#1056,#1057);
#1056 = CARTESIAN_POINT('',(9.588612,25.004848,0.));
#1057 = VECTOR('',#1058,1.);
#1058 = DIRECTION('',(-0.999999994836,1.01623190611E-04,0.));
#1059 = ORIENTED_EDGE('',*,*,#1060,.F.);
#1060 = EDGE_CURVE('',#1061,#1053,#1063,.T.);
#1061 = VERTEX_POINT('',#1062);
#1062 = CARTESIAN_POINT('',(10.598195,26.002078,0.));
#1063 = CIRCLE('',#1064,0.999995229147);
#1064 = AXIS2_PLACEMENT_3D('',#1065,#1066,#1067);
#1065 = CARTESIAN_POINT('',(9.598203467983,26.00479722974,0.));
#1066 = DIRECTION('',(0.,0.,-1.));
#1067 = DIRECTION('',(0.999996302853,-2.719242713143E-03,0.));
#1068 = ORIENTED_EDGE('',*,*,#1069,.F.);
#1069 = EDGE_CURVE('',#1070,#1061,#1072,.T.);
#1070 = VERTEX_POINT('',#1071);
#1071 = CARTESIAN_POINT('',(10.614653,32.048681,0.));
#1072 = LINE('',#1073,#1074);
#1073 = CARTESIAN_POINT('',(10.614653,32.048681,0.));
#1074 = VECTOR('',#1075,1.);
#1075 = DIRECTION('',(-2.721848786114E-03,-0.999996295763,0.));
#1076 = ORIENTED_EDGE('',*,*,#1077,.F.);
#1077 = EDGE_CURVE('',#1078,#1070,#1080,.T.);
#1078 = VERTEX_POINT('',#1079);
#1079 = CARTESIAN_POINT('',(11.623537,33.049708,0.));
#1080 = CIRCLE('',#1081,1.0000456271);
#1081 = AXIS2_PLACEMENT_3D('',#1082,#1083,#1084);
#1082 = CARTESIAN_POINT('',(11.61469810648,32.0497014349,0.));
#1083 = DIRECTION('',(0.,0.,1.));
#1084 = DIRECTION('',(8.838490245721E-03,0.999960939782,-0.));
#1085 = ORIENTED_EDGE('',*,*,#1086,.F.);
#1086 = EDGE_CURVE('',#1087,#1078,#1089,.T.);
#1087 = VERTEX_POINT('',#1088);
#1088 = CARTESIAN_POINT('',(18.852518,33.049666,0.));
#1089 = LINE('',#1090,#1091);
#1090 = CARTESIAN_POINT('',(18.852518,33.049666,0.));
#1091 = VECTOR('',#1092,1.);
#1092 = DIRECTION('',(-0.999999999983,5.809947487735E-06,0.));
#1093 = ORIENTED_EDGE('',*,*,#1094,.F.);
#1094 = EDGE_CURVE('',#1095,#1087,#1097,.T.);
#1095 = VERTEX_POINT('',#1096);
#1096 = CARTESIAN_POINT('',(19.86302,32.063827,0.));
#1097 = CIRCLE('',#1098,1.000120619987);
#1098 = AXIS2_PLACEMENT_3D('',#1099,#1100,#1101);
#1099 = CARTESIAN_POINT('',(18.86300057218,32.049600317055,0.));
#1100 = DIRECTION('',(0.,0.,1.));
#1101 = DIRECTION('',(0.999898820036,1.422496712979E-02,-0.));
#1102 = ORIENTED_EDGE('',*,*,#1103,.F.);
#1103 = EDGE_CURVE('',#1104,#1095,#1106,.T.);
#1104 = VERTEX_POINT('',#1105);
#1105 = CARTESIAN_POINT('',(19.892347,25.591603,0.));
#1106 = LINE('',#1107,#1108);
#1107 = CARTESIAN_POINT('',(19.892347,25.591603,0.));
#1108 = VECTOR('',#1109,1.);
#1109 = DIRECTION('',(-4.531162539457E-03,0.99998973423,0.));
#1110 = ORIENTED_EDGE('',*,*,#1111,.F.);
#1111 = EDGE_CURVE('',#1112,#1104,#1114,.T.);
#1112 = VERTEX_POINT('',#1113);
#1113 = CARTESIAN_POINT('',(20.350032,25.10138,0.));
#1114 = CIRCLE('',#1115,0.500111910066);
#1115 = AXIS2_PLACEMENT_3D('',#1116,#1117,#1118);
#1116 = CARTESIAN_POINT('',(20.392393446607,25.599694589824,0.));
#1117 = DIRECTION('',(0.,0.,-1.));
#1118 = DIRECTION('',(-8.470393476732E-02,-0.996406163888,-0.));
#1119 = ORIENTED_EDGE('',*,*,#1120,.F.);
#1120 = EDGE_CURVE('',#1121,#1112,#1123,.T.);
#1121 = VERTEX_POINT('',#1122);
#1122 = CARTESIAN_POINT('',(21.446121,25.09958,0.));
#1123 = LINE('',#1124,#1125);
#1124 = CARTESIAN_POINT('',(21.446121,25.09958,0.));
#1125 = VECTOR('',#1126,1.);
#1126 = DIRECTION('',(-0.999998651588,1.64220019803E-03,0.));
#1127 = ORIENTED_EDGE('',*,*,#1128,.F.);
#1128 = EDGE_CURVE('',#1129,#1121,#1131,.T.);
#1129 = VERTEX_POINT('',#1130);
#1130 = CARTESIAN_POINT('',(22.05,25.098588,0.));
#1131 = LINE('',#1132,#1133);
#1132 = CARTESIAN_POINT('',(22.05,25.098588,0.));
#1133 = VECTOR('',#1134,1.);
#1134 = DIRECTION('',(-0.999998650749,1.642710976112E-03,0.));
#1135 = ORIENTED_EDGE('',*,*,#1136,.F.);
#1136 = EDGE_CURVE('',#1137,#1129,#1139,.T.);
#1137 = VERTEX_POINT('',#1138);
#1138 = CARTESIAN_POINT('',(22.05,67.25,0.));
#1139 = LINE('',#1140,#1141);
#1140 = CARTESIAN_POINT('',(22.05,67.25,0.));
#1141 = VECTOR('',#1142,1.);
#1142 = DIRECTION('',(0.,-1.,0.));
#1143 = ORIENTED_EDGE('',*,*,#1144,.F.);
#1144 = EDGE_CURVE('',#1145,#1137,#1147,.T.);
#1145 = VERTEX_POINT('',#1146);
#1146 = CARTESIAN_POINT('',(22.05,68.25,0.));
#1147 = LINE('',#1148,#1149);
#1148 = CARTESIAN_POINT('',(22.05,68.25,0.));
#1149 = VECTOR('',#1150,1.);
#1150 = DIRECTION('',(0.,-1.,0.));
#1151 = ORIENTED_EDGE('',*,*,#1152,.F.);
#1152 = EDGE_CURVE('',#1153,#1145,#1155,.T.);
#1153 = VERTEX_POINT('',#1154);
#1154 = CARTESIAN_POINT('',(20.3,70.,0.));
#1155 = CIRCLE('',#1156,1.749999546171);
#1156 = AXIS2_PLACEMENT_3D('',#1157,#1158,#1159);
#1157 = CARTESIAN_POINT('',(20.300000453829,68.250000453829,0.));
#1158 = DIRECTION('',(0.,0.,-1.));
#1159 = DIRECTION('',(-2.593310478154E-07,1.,0.));
#1160 = ORIENTED_EDGE('',*,*,#1161,.F.);
#1161 = EDGE_CURVE('',#1162,#1153,#1164,.T.);
#1162 = VERTEX_POINT('',#1163);
#1163 = CARTESIAN_POINT('',(19.25,70.,0.));
#1164 = LINE('',#1165,#1166);
#1165 = CARTESIAN_POINT('',(19.25,70.,0.));
#1166 = VECTOR('',#1167,1.);
#1167 = DIRECTION('',(1.,0.,0.));
#1168 = ORIENTED_EDGE('',*,*,#1169,.F.);
#1169 = EDGE_CURVE('',#1170,#1162,#1172,.T.);
#1170 = VERTEX_POINT('',#1171);
#1171 = CARTESIAN_POINT('',(15.891488,70.009995,0.));
#1172 = LINE('',#1173,#1174);
#1173 = CARTESIAN_POINT('',(15.891488,70.009995,0.));
#1174 = VECTOR('',#1175,1.);
#1175 = DIRECTION('',(0.999995571681,-2.976007154047E-03,0.));
#1176 = ORIENTED_EDGE('',*,*,#1177,.F.);
#1177 = EDGE_CURVE('',#1178,#1170,#1180,.T.);
#1178 = VERTEX_POINT('',#1179);
#1179 = CARTESIAN_POINT('',(15.39,69.51,0.));
#1180 = CIRCLE('',#1181,0.499996595158);
#1181 = AXIS2_PLACEMENT_3D('',#1182,#1183,#1184);
#1182 = CARTESIAN_POINT('',(15.889996595158,69.51000062915,0.));
#1183 = DIRECTION('',(0.,0.,-1.));
#1184 = DIRECTION('',(-0.999999999999,-1.258308671019E-06,-0.));
#1185 = ORIENTED_EDGE('',*,*,#1186,.F.);
#1186 = EDGE_CURVE('',#1187,#1178,#1189,.T.);
#1187 = VERTEX_POINT('',#1188);
#1188 = CARTESIAN_POINT('',(12.389968,69.515846,0.));
#1189 = CIRCLE('',#1190,1.500021742975);
#1190 = AXIS2_PLACEMENT_3D('',#1191,#1192,#1193);
#1191 = CARTESIAN_POINT('',(13.889978257218,69.509975937248,0.));
#1192 = DIRECTION('',(0.,0.,1.));
#1193 = DIRECTION('',(-0.99999234294,3.913318443037E-03,-0.));
#1194 = ORIENTED_EDGE('',*,*,#1195,.F.);
#1195 = EDGE_CURVE('',#1196,#1187,#1198,.T.);
#1196 = VERTEX_POINT('',#1197);
#1197 = CARTESIAN_POINT('',(11.89,70.01,0.));
#1198 = CIRCLE('',#1199,0.500004982264);
#1199 = AXIS2_PLACEMENT_3D('',#1200,#1201,#1202);
#1200 = CARTESIAN_POINT('',(11.88999725256,69.509995017744,0.));
#1201 = DIRECTION('',(0.,0.,-1.));
#1202 = DIRECTION('',(5.494824361946E-06,0.999999999985,0.));
#1203 = ORIENTED_EDGE('',*,*,#1204,.F.);
#1204 = EDGE_CURVE('',#1205,#1196,#1207,.T.);
#1205 = VERTEX_POINT('',#1206);
#1206 = CARTESIAN_POINT('',(3.89,70.01,0.));
#1207 = LINE('',#1208,#1209);
#1208 = CARTESIAN_POINT('',(3.89,70.01,0.));
#1209 = VECTOR('',#1210,1.);
#1210 = DIRECTION('',(1.,0.,0.));
#1211 = ORIENTED_EDGE('',*,*,#1212,.F.);
#1212 = EDGE_CURVE('',#1213,#1205,#1215,.T.);
#1213 = VERTEX_POINT('',#1214);
#1214 = CARTESIAN_POINT('',(3.39,69.51,0.));
#1215 = CIRCLE('',#1216,0.500001333575);
#1216 = AXIS2_PLACEMENT_3D('',#1217,#1218,#1219);
#1217 = CARTESIAN_POINT('',(3.890001333573,69.509998666427,0.));
#1218 = DIRECTION('',(0.,0.,-1.));
#1219 = DIRECTION('',(-0.999999999996,2.667139191042E-06,0.));
#1220 = ORIENTED_EDGE('',*,*,#1221,.F.);
#1221 = EDGE_CURVE('',#1222,#1213,#1224,.T.);
#1222 = VERTEX_POINT('',#1223);
#1223 = CARTESIAN_POINT('',(0.39,69.51,0.));
#1224 = CIRCLE('',#1225,1.5);
#1225 = AXIS2_PLACEMENT_3D('',#1226,#1227,#1228);
#1226 = CARTESIAN_POINT('',(1.89,69.51,0.));
#1227 = DIRECTION('',(0.,0.,1.));
#1228 = DIRECTION('',(-1.,0.,-0.));
#1229 = ORIENTED_EDGE('',*,*,#1230,.F.);
#1230 = EDGE_CURVE('',#1012,#1222,#1231,.T.);
#1231 = CIRCLE('',#1232,0.499998741706);
#1232 = AXIS2_PLACEMENT_3D('',#1233,#1234,#1235);
#1233 = CARTESIAN_POINT('',(-0.109998741706,69.509999740017,0.));
#1234 = DIRECTION('',(0.,0.,-1.));
#1235 = DIRECTION('',(-2.434522714062E-03,0.999997036545,0.));
#1236 = ORIENTED_EDGE('',*,*,#1019,.F.);
#1237 = FACE_BOUND('',#1238,.F.);
#1238 = EDGE_LOOP('',(#1239));
#1239 = ORIENTED_EDGE('',*,*,#1240,.T.);
#1240 = EDGE_CURVE('',#1241,#1241,#1243,.T.);
#1241 = VERTEX_POINT('',#1242);
#1242 = CARTESIAN_POINT('',(-2.6,65.4,0.));
#1243 = CIRCLE('',#1244,1.6);
#1244 = AXIS2_PLACEMENT_3D('',#1245,#1246,#1247);
#1245 = CARTESIAN_POINT('',(-2.6,67.,0.));
#1246 = DIRECTION('',(-0.,0.,-1.));
#1247 = DIRECTION('',(-0.,-1.,0.));
#1248 = FACE_BOUND('',#1249,.F.);
#1249 = EDGE_LOOP('',(#1250));
#1250 = ORIENTED_EDGE('',*,*,#1251,.T.);
#1251 = EDGE_CURVE('',#1252,#1252,#1254,.T.);
#1252 = VERTEX_POINT('',#1253);
#1253 = CARTESIAN_POINT('',(18.5,65.8,0.));
#1254 = CIRCLE('',#1255,1.6);
#1255 = AXIS2_PLACEMENT_3D('',#1256,#1257,#1258);
#1256 = CARTESIAN_POINT('',(18.5,67.4,0.));
#1257 = DIRECTION('',(-0.,0.,-1.));
#1258 = DIRECTION('',(-0.,-1.,0.));
#1259 = PLANE('',#1260);
#1260 = AXIS2_PLACEMENT_3D('',#1261,#1262,#1263);
#1261 = CARTESIAN_POINT('',(0.,0.,0.));
#1262 = DIRECTION('',(0.,0.,1.));
#1263 = DIRECTION('',(1.,0.,-0.));
#1264 = ADVANCED_FACE('',(#1265,#1472,#1483),#1494,.T.);
#1265 = FACE_BOUND('',#1266,.T.);
#1266 = EDGE_LOOP('',(#1267,#1268,#1269,#1278,#1286,#1294,#1303,#1311,
    #1320,#1328,#1337,#1345,#1354,#1362,#1370,#1378,#1386,#1395,#1403,
    #1411,#1420,#1429,#1438,#1446,#1455,#1464,#1471));
#1267 = ORIENTED_EDGE('',*,*,#939,.F.);
#1268 = ORIENTED_EDGE('',*,*,#981,.F.);
#1269 = ORIENTED_EDGE('',*,*,#1270,.F.);
#1270 = EDGE_CURVE('',#1271,#974,#1273,.T.);
#1271 = VERTEX_POINT('',#1272);
#1272 = CARTESIAN_POINT('',(-4.5125,25.012565,1.51));
#1273 = CIRCLE('',#1274,1.25013128199);
#1274 = AXIS2_PLACEMENT_3D('',#1275,#1276,#1277);
#1275 = CARTESIAN_POINT('',(-4.512503668248,26.262696281984,1.51));
#1276 = DIRECTION('',(0.,0.,-1.));
#1277 = DIRECTION('',(2.934289911489E-06,-0.999999999996,0.));
#1278 = ORIENTED_EDGE('',*,*,#1279,.F.);
#1279 = EDGE_CURVE('',#1280,#1271,#1282,.T.);
#1280 = VERTEX_POINT('',#1281);
#1281 = CARTESIAN_POINT('',(-4.5125,25.006281,1.51));
#1282 = LINE('',#1283,#1284);
#1283 = CARTESIAN_POINT('',(-4.5125,25.006281,1.51));
#1284 = VECTOR('',#1285,1.);
#1285 = DIRECTION('',(0.,1.,0.));
#1286 = ORIENTED_EDGE('',*,*,#1287,.F.);
#1287 = EDGE_CURVE('',#1288,#1280,#1290,.T.);
#1288 = VERTEX_POINT('',#1289);
#1289 = CARTESIAN_POINT('',(9.588612,25.004848,1.51));
#1290 = LINE('',#1291,#1292);
#1291 = CARTESIAN_POINT('',(9.588612,25.004848,1.51));
#1292 = VECTOR('',#1293,1.);
#1293 = DIRECTION('',(-0.999999994836,1.01623190611E-04,0.));
#1294 = ORIENTED_EDGE('',*,*,#1295,.F.);
#1295 = EDGE_CURVE('',#1296,#1288,#1298,.T.);
#1296 = VERTEX_POINT('',#1297);
#1297 = CARTESIAN_POINT('',(10.598195,26.002078,1.51));
#1298 = CIRCLE('',#1299,0.999995229147);
#1299 = AXIS2_PLACEMENT_3D('',#1300,#1301,#1302);
#1300 = CARTESIAN_POINT('',(9.598203467983,26.00479722974,1.51));
#1301 = DIRECTION('',(0.,0.,-1.));
#1302 = DIRECTION('',(0.999996302853,-2.719242713143E-03,0.));
#1303 = ORIENTED_EDGE('',*,*,#1304,.F.);
#1304 = EDGE_CURVE('',#1305,#1296,#1307,.T.);
#1305 = VERTEX_POINT('',#1306);
#1306 = CARTESIAN_POINT('',(10.614653,32.048681,1.51));
#1307 = LINE('',#1308,#1309);
#1308 = CARTESIAN_POINT('',(10.614653,32.048681,1.51));
#1309 = VECTOR('',#1310,1.);
#1310 = DIRECTION('',(-2.721848786114E-03,-0.999996295763,0.));
#1311 = ORIENTED_EDGE('',*,*,#1312,.F.);
#1312 = EDGE_CURVE('',#1313,#1305,#1315,.T.);
#1313 = VERTEX_POINT('',#1314);
#1314 = CARTESIAN_POINT('',(11.623537,33.049708,1.51));
#1315 = CIRCLE('',#1316,1.0000456271);
#1316 = AXIS2_PLACEMENT_3D('',#1317,#1318,#1319);
#1317 = CARTESIAN_POINT('',(11.61469810648,32.0497014349,1.51));
#1318 = DIRECTION('',(0.,0.,1.));
#1319 = DIRECTION('',(8.838490245721E-03,0.999960939782,-0.));
#1320 = ORIENTED_EDGE('',*,*,#1321,.F.);
#1321 = EDGE_CURVE('',#1322,#1313,#1324,.T.);
#1322 = VERTEX_POINT('',#1323);
#1323 = CARTESIAN_POINT('',(18.852518,33.049666,1.51));
#1324 = LINE('',#1325,#1326);
#1325 = CARTESIAN_POINT('',(18.852518,33.049666,1.51));
#1326 = VECTOR('',#1327,1.);
#1327 = DIRECTION('',(-0.999999999983,5.809947487735E-06,0.));
#1328 = ORIENTED_EDGE('',*,*,#1329,.F.);
#1329 = EDGE_CURVE('',#1330,#1322,#1332,.T.);
#1330 = VERTEX_POINT('',#1331);
#1331 = CARTESIAN_POINT('',(19.86302,32.063827,1.51));
#1332 = CIRCLE('',#1333,1.000120619987);
#1333 = AXIS2_PLACEMENT_3D('',#1334,#1335,#1336);
#1334 = CARTESIAN_POINT('',(18.86300057218,32.049600317055,1.51));
#1335 = DIRECTION('',(0.,0.,1.));
#1336 = DIRECTION('',(0.999898820036,1.422496712979E-02,-0.));
#1337 = ORIENTED_EDGE('',*,*,#1338,.F.);
#1338 = EDGE_CURVE('',#1339,#1330,#1341,.T.);
#1339 = VERTEX_POINT('',#1340);
#1340 = CARTESIAN_POINT('',(19.892347,25.591603,1.51));
#1341 = LINE('',#1342,#1343);
#1342 = CARTESIAN_POINT('',(19.892347,25.591603,1.51));
#1343 = VECTOR('',#1344,1.);
#1344 = DIRECTION('',(-4.531162539457E-03,0.99998973423,0.));
#1345 = ORIENTED_EDGE('',*,*,#1346,.F.);
#1346 = EDGE_CURVE('',#1347,#1339,#1349,.T.);
#1347 = VERTEX_POINT('',#1348);
#1348 = CARTESIAN_POINT('',(20.350032,25.10138,1.51));
#1349 = CIRCLE('',#1350,0.500111910066);
#1350 = AXIS2_PLACEMENT_3D('',#1351,#1352,#1353);
#1351 = CARTESIAN_POINT('',(20.392393446607,25.599694589824,1.51));
#1352 = DIRECTION('',(0.,0.,-1.));
#1353 = DIRECTION('',(-8.470393476732E-02,-0.996406163888,-0.));
#1354 = ORIENTED_EDGE('',*,*,#1355,.F.);
#1355 = EDGE_CURVE('',#1356,#1347,#1358,.T.);
#1356 = VERTEX_POINT('',#1357);
#1357 = CARTESIAN_POINT('',(21.446121,25.09958,1.51));
#1358 = LINE('',#1359,#1360);
#1359 = CARTESIAN_POINT('',(21.446121,25.09958,1.51));
#1360 = VECTOR('',#1361,1.);
#1361 = DIRECTION('',(-0.999998651588,1.64220019803E-03,0.));
#1362 = ORIENTED_EDGE('',*,*,#1363,.F.);
#1363 = EDGE_CURVE('',#1364,#1356,#1366,.T.);
#1364 = VERTEX_POINT('',#1365);
#1365 = CARTESIAN_POINT('',(22.05,25.098588,1.51));
#1366 = LINE('',#1367,#1368);
#1367 = CARTESIAN_POINT('',(22.05,25.098588,1.51));
#1368 = VECTOR('',#1369,1.);
#1369 = DIRECTION('',(-0.999998650749,1.642710976112E-03,0.));
#1370 = ORIENTED_EDGE('',*,*,#1371,.F.);
#1371 = EDGE_CURVE('',#1372,#1364,#1374,.T.);
#1372 = VERTEX_POINT('',#1373);
#1373 = CARTESIAN_POINT('',(22.05,67.25,1.51));
#1374 = LINE('',#1375,#1376);
#1375 = CARTESIAN_POINT('',(22.05,67.25,1.51));
#1376 = VECTOR('',#1377,1.);
#1377 = DIRECTION('',(0.,-1.,0.));
#1378 = ORIENTED_EDGE('',*,*,#1379,.F.);
#1379 = EDGE_CURVE('',#1380,#1372,#1382,.T.);
#1380 = VERTEX_POINT('',#1381);
#1381 = CARTESIAN_POINT('',(22.05,68.25,1.51));
#1382 = LINE('',#1383,#1384);
#1383 = CARTESIAN_POINT('',(22.05,68.25,1.51));
#1384 = VECTOR('',#1385,1.);
#1385 = DIRECTION('',(0.,-1.,0.));
#1386 = ORIENTED_EDGE('',*,*,#1387,.F.);
#1387 = EDGE_CURVE('',#1388,#1380,#1390,.T.);
#1388 = VERTEX_POINT('',#1389);
#1389 = CARTESIAN_POINT('',(20.3,70.,1.51));
#1390 = CIRCLE('',#1391,1.749999546171);
#1391 = AXIS2_PLACEMENT_3D('',#1392,#1393,#1394);
#1392 = CARTESIAN_POINT('',(20.300000453829,68.250000453829,1.51));
#1393 = DIRECTION('',(0.,0.,-1.));
#1394 = DIRECTION('',(-2.593310478154E-07,1.,0.));
#1395 = ORIENTED_EDGE('',*,*,#1396,.F.);
#1396 = EDGE_CURVE('',#1397,#1388,#1399,.T.);
#1397 = VERTEX_POINT('',#1398);
#1398 = CARTESIAN_POINT('',(19.25,70.,1.51));
#1399 = LINE('',#1400,#1401);
#1400 = CARTESIAN_POINT('',(19.25,70.,1.51));
#1401 = VECTOR('',#1402,1.);
#1402 = DIRECTION('',(1.,0.,0.));
#1403 = ORIENTED_EDGE('',*,*,#1404,.F.);
#1404 = EDGE_CURVE('',#1405,#1397,#1407,.T.);
#1405 = VERTEX_POINT('',#1406);
#1406 = CARTESIAN_POINT('',(15.891488,70.009995,1.51));
#1407 = LINE('',#1408,#1409);
#1408 = CARTESIAN_POINT('',(15.891488,70.009995,1.51));
#1409 = VECTOR('',#1410,1.);
#1410 = DIRECTION('',(0.999995571681,-2.976007154047E-03,0.));
#1411 = ORIENTED_EDGE('',*,*,#1412,.F.);
#1412 = EDGE_CURVE('',#1413,#1405,#1415,.T.);
#1413 = VERTEX_POINT('',#1414);
#1414 = CARTESIAN_POINT('',(15.39,69.51,1.51));
#1415 = CIRCLE('',#1416,0.499996595158);
#1416 = AXIS2_PLACEMENT_3D('',#1417,#1418,#1419);
#1417 = CARTESIAN_POINT('',(15.889996595158,69.51000062915,1.51));
#1418 = DIRECTION('',(0.,0.,-1.));
#1419 = DIRECTION('',(-0.999999999999,-1.258308671019E-06,-0.));
#1420 = ORIENTED_EDGE('',*,*,#1421,.F.);
#1421 = EDGE_CURVE('',#1422,#1413,#1424,.T.);
#1422 = VERTEX_POINT('',#1423);
#1423 = CARTESIAN_POINT('',(12.389968,69.515846,1.51));
#1424 = CIRCLE('',#1425,1.500021742975);
#1425 = AXIS2_PLACEMENT_3D('',#1426,#1427,#1428);
#1426 = CARTESIAN_POINT('',(13.889978257218,69.509975937248,1.51));
#1427 = DIRECTION('',(0.,0.,1.));
#1428 = DIRECTION('',(-0.99999234294,3.913318443037E-03,-0.));
#1429 = ORIENTED_EDGE('',*,*,#1430,.F.);
#1430 = EDGE_CURVE('',#1431,#1422,#1433,.T.);
#1431 = VERTEX_POINT('',#1432);
#1432 = CARTESIAN_POINT('',(11.89,70.01,1.51));
#1433 = CIRCLE('',#1434,0.500004982264);
#1434 = AXIS2_PLACEMENT_3D('',#1435,#1436,#1437);
#1435 = CARTESIAN_POINT('',(11.88999725256,69.509995017744,1.51));
#1436 = DIRECTION('',(0.,0.,-1.));
#1437 = DIRECTION('',(5.494824361946E-06,0.999999999985,0.));
#1438 = ORIENTED_EDGE('',*,*,#1439,.F.);
#1439 = EDGE_CURVE('',#1440,#1431,#1442,.T.);
#1440 = VERTEX_POINT('',#1441);
#1441 = CARTESIAN_POINT('',(3.89,70.01,1.51));
#1442 = LINE('',#1443,#1444);
#1443 = CARTESIAN_POINT('',(3.89,70.01,1.51));
#1444 = VECTOR('',#1445,1.);
#1445 = DIRECTION('',(1.,0.,0.));
#1446 = ORIENTED_EDGE('',*,*,#1447,.F.);
#1447 = EDGE_CURVE('',#1448,#1440,#1450,.T.);
#1448 = VERTEX_POINT('',#1449);
#1449 = CARTESIAN_POINT('',(3.39,69.51,1.51));
#1450 = CIRCLE('',#1451,0.500001333575);
#1451 = AXIS2_PLACEMENT_3D('',#1452,#1453,#1454);
#1452 = CARTESIAN_POINT('',(3.890001333573,69.509998666427,1.51));
#1453 = DIRECTION('',(0.,0.,-1.));
#1454 = DIRECTION('',(-0.999999999996,2.667139191042E-06,0.));
#1455 = ORIENTED_EDGE('',*,*,#1456,.F.);
#1456 = EDGE_CURVE('',#1457,#1448,#1459,.T.);
#1457 = VERTEX_POINT('',#1458);
#1458 = CARTESIAN_POINT('',(0.39,69.51,1.51));
#1459 = CIRCLE('',#1460,1.5);
#1460 = AXIS2_PLACEMENT_3D('',#1461,#1462,#1463);
#1461 = CARTESIAN_POINT('',(1.89,69.51,1.51));
#1462 = DIRECTION('',(0.,0.,1.));
#1463 = DIRECTION('',(-1.,0.,-0.));
#1464 = ORIENTED_EDGE('',*,*,#1465,.F.);
#1465 = EDGE_CURVE('',#1004,#1457,#1466,.T.);
#1466 = CIRCLE('',#1467,0.499998741706);
#1467 = AXIS2_PLACEMENT_3D('',#1468,#1469,#1470);
#1468 = CARTESIAN_POINT('',(-0.109998741706,69.509999740017,1.51));
#1469 = DIRECTION('',(0.,0.,-1.));
#1470 = DIRECTION('',(-2.434522714062E-03,0.999997036545,0.));
#1471 = ORIENTED_EDGE('',*,*,#1003,.F.);
#1472 = FACE_BOUND('',#1473,.T.);
#1473 = EDGE_LOOP('',(#1474));
#1474 = ORIENTED_EDGE('',*,*,#1475,.T.);
#1475 = EDGE_CURVE('',#1476,#1476,#1478,.T.);
#1476 = VERTEX_POINT('',#1477);
#1477 = CARTESIAN_POINT('',(-2.6,65.4,1.51));
#1478 = CIRCLE('',#1479,1.6);
#1479 = AXIS2_PLACEMENT_3D('',#1480,#1481,#1482);
#1480 = CARTESIAN_POINT('',(-2.6,67.,1.51));
#1481 = DIRECTION('',(-0.,0.,-1.));
#1482 = DIRECTION('',(-0.,-1.,0.));
#1483 = FACE_BOUND('',#1484,.T.);
#1484 = EDGE_LOOP('',(#1485));
#1485 = ORIENTED_EDGE('',*,*,#1486,.T.);
#1486 = EDGE_CURVE('',#1487,#1487,#1489,.T.);
#1487 = VERTEX_POINT('',#1488);
#1488 = CARTESIAN_POINT('',(18.5,65.8,1.51));
#1489 = CIRCLE('',#1490,1.6);
#1490 = AXIS2_PLACEMENT_3D('',#1491,#1492,#1493);
#1491 = CARTESIAN_POINT('',(18.5,67.4,1.51));
#1492 = DIRECTION('',(-0.,0.,-1.));
#1493 = DIRECTION('',(-0.,-1.,0.));
#1494 = PLANE('',#1495);
#1495 = AXIS2_PLACEMENT_3D('',#1496,#1497,#1498);
#1496 = CARTESIAN_POINT('',(0.,0.,1.51));
#1497 = DIRECTION('',(0.,0.,1.));
#1498 = DIRECTION('',(1.,0.,-0.));
#1499 = ADVANCED_FACE('',(#1500),#1511,.T.);
#1500 = FACE_BOUND('',#1501,.T.);
#1501 = EDGE_LOOP('',(#1502,#1508,#1509,#1510));
#1502 = ORIENTED_EDGE('',*,*,#1503,.T.);
#1503 = EDGE_CURVE('',#1036,#1271,#1504,.T.);
#1504 = LINE('',#1505,#1506);
#1505 = CARTESIAN_POINT('',(-4.5125,25.012565,0.));
#1506 = VECTOR('',#1507,1.);
#1507 = DIRECTION('',(0.,0.,1.));
#1508 = ORIENTED_EDGE('',*,*,#1270,.T.);
#1509 = ORIENTED_EDGE('',*,*,#971,.F.);
#1510 = ORIENTED_EDGE('',*,*,#1035,.F.);
#1511 = CYLINDRICAL_SURFACE('',#1512,1.25013128199);
#1512 = AXIS2_PLACEMENT_3D('',#1513,#1514,#1515);
#1513 = CARTESIAN_POINT('',(-4.512503668248,26.262696281984,0.));
#1514 = DIRECTION('',(0.,0.,-1.));
#1515 = DIRECTION('',(2.934289911489E-06,-0.999999999996,0.));
#1516 = ADVANCED_FACE('',(#1517),#1528,.T.);
#1517 = FACE_BOUND('',#1518,.T.);
#1518 = EDGE_LOOP('',(#1519,#1520,#1521,#1527));
#1519 = ORIENTED_EDGE('',*,*,#1011,.T.);
#1520 = ORIENTED_EDGE('',*,*,#1465,.T.);
#1521 = ORIENTED_EDGE('',*,*,#1522,.F.);
#1522 = EDGE_CURVE('',#1222,#1457,#1523,.T.);
#1523 = LINE('',#1524,#1525);
#1524 = CARTESIAN_POINT('',(0.39,69.51,0.));
#1525 = VECTOR('',#1526,1.);
#1526 = DIRECTION('',(0.,0.,1.));
#1527 = ORIENTED_EDGE('',*,*,#1230,.F.);
#1528 = CYLINDRICAL_SURFACE('',#1529,0.499998741706);
#1529 = AXIS2_PLACEMENT_3D('',#1530,#1531,#1532);
#1530 = CARTESIAN_POINT('',(-0.109998741706,69.509999740017,0.));
#1531 = DIRECTION('',(0.,0.,-1.));
#1532 = DIRECTION('',(-2.434522714062E-03,0.999997036545,0.));
#1533 = ADVANCED_FACE('',(#1534),#1545,.T.);
#1534 = FACE_BOUND('',#1535,.T.);
#1535 = EDGE_LOOP('',(#1536,#1542,#1543,#1544));
#1536 = ORIENTED_EDGE('',*,*,#1537,.T.);
#1537 = EDGE_CURVE('',#1045,#1280,#1538,.T.);
#1538 = LINE('',#1539,#1540);
#1539 = CARTESIAN_POINT('',(-4.5125,25.006281,0.));
#1540 = VECTOR('',#1541,1.);
#1541 = DIRECTION('',(0.,0.,1.));
#1542 = ORIENTED_EDGE('',*,*,#1279,.T.);
#1543 = ORIENTED_EDGE('',*,*,#1503,.F.);
#1544 = ORIENTED_EDGE('',*,*,#1044,.F.);
#1545 = PLANE('',#1546);
#1546 = AXIS2_PLACEMENT_3D('',#1547,#1548,#1549);
#1547 = CARTESIAN_POINT('',(-4.5125,25.006281,0.));
#1548 = DIRECTION('',(-1.,0.,0.));
#1549 = DIRECTION('',(0.,1.,0.));
#1550 = ADVANCED_FACE('',(#1551),#1562,.F.);
#1551 = FACE_BOUND('',#1552,.T.);
#1552 = EDGE_LOOP('',(#1553,#1554,#1555,#1561));
#1553 = ORIENTED_EDGE('',*,*,#1522,.T.);
#1554 = ORIENTED_EDGE('',*,*,#1456,.T.);
#1555 = ORIENTED_EDGE('',*,*,#1556,.F.);
#1556 = EDGE_CURVE('',#1213,#1448,#1557,.T.);
#1557 = LINE('',#1558,#1559);
#1558 = CARTESIAN_POINT('',(3.39,69.51,0.));
#1559 = VECTOR('',#1560,1.);
#1560 = DIRECTION('',(0.,0.,1.));
#1561 = ORIENTED_EDGE('',*,*,#1221,.F.);
#1562 = CYLINDRICAL_SURFACE('',#1563,1.5);
#1563 = AXIS2_PLACEMENT_3D('',#1564,#1565,#1566);
#1564 = CARTESIAN_POINT('',(1.89,69.51,0.));
#1565 = DIRECTION('',(-0.,-0.,-1.));
#1566 = DIRECTION('',(-1.,0.,-0.));
#1567 = ADVANCED_FACE('',(#1568),#1579,.T.);
#1568 = FACE_BOUND('',#1569,.T.);
#1569 = EDGE_LOOP('',(#1570,#1576,#1577,#1578));
#1570 = ORIENTED_EDGE('',*,*,#1571,.T.);
#1571 = EDGE_CURVE('',#1053,#1288,#1572,.T.);
#1572 = LINE('',#1573,#1574);
#1573 = CARTESIAN_POINT('',(9.588612,25.004848,0.));
#1574 = VECTOR('',#1575,1.);
#1575 = DIRECTION('',(0.,0.,1.));
#1576 = ORIENTED_EDGE('',*,*,#1287,.T.);
#1577 = ORIENTED_EDGE('',*,*,#1537,.F.);
#1578 = ORIENTED_EDGE('',*,*,#1052,.F.);
#1579 = PLANE('',#1580);
#1580 = AXIS2_PLACEMENT_3D('',#1581,#1582,#1583);
#1581 = CARTESIAN_POINT('',(9.588612,25.004848,0.));
#1582 = DIRECTION('',(-1.01623190611E-04,-0.999999994836,0.));
#1583 = DIRECTION('',(-0.999999994836,1.01623190611E-04,0.));
#1584 = ADVANCED_FACE('',(#1585),#1596,.T.);
#1585 = FACE_BOUND('',#1586,.T.);
#1586 = EDGE_LOOP('',(#1587,#1588,#1589,#1595));
#1587 = ORIENTED_EDGE('',*,*,#1556,.T.);
#1588 = ORIENTED_EDGE('',*,*,#1447,.T.);
#1589 = ORIENTED_EDGE('',*,*,#1590,.F.);
#1590 = EDGE_CURVE('',#1205,#1440,#1591,.T.);
#1591 = LINE('',#1592,#1593);
#1592 = CARTESIAN_POINT('',(3.89,70.01,0.));
#1593 = VECTOR('',#1594,1.);
#1594 = DIRECTION('',(0.,0.,1.));
#1595 = ORIENTED_EDGE('',*,*,#1212,.F.);
#1596 = CYLINDRICAL_SURFACE('',#1597,0.500001333575);
#1597 = AXIS2_PLACEMENT_3D('',#1598,#1599,#1600);
#1598 = CARTESIAN_POINT('',(3.890001333573,69.509998666427,0.));
#1599 = DIRECTION('',(0.,0.,-1.));
#1600 = DIRECTION('',(-0.999999999996,2.667139191042E-06,0.));
#1601 = ADVANCED_FACE('',(#1602),#1613,.T.);
#1602 = FACE_BOUND('',#1603,.T.);
#1603 = EDGE_LOOP('',(#1604,#1610,#1611,#1612));
#1604 = ORIENTED_EDGE('',*,*,#1605,.T.);
#1605 = EDGE_CURVE('',#1061,#1296,#1606,.T.);
#1606 = LINE('',#1607,#1608);
#1607 = CARTESIAN_POINT('',(10.598195,26.002078,0.));
#1608 = VECTOR('',#1609,1.);
#1609 = DIRECTION('',(0.,0.,1.));
#1610 = ORIENTED_EDGE('',*,*,#1295,.T.);
#1611 = ORIENTED_EDGE('',*,*,#1571,.F.);
#1612 = ORIENTED_EDGE('',*,*,#1060,.F.);
#1613 = CYLINDRICAL_SURFACE('',#1614,0.999995229147);
#1614 = AXIS2_PLACEMENT_3D('',#1615,#1616,#1617);
#1615 = CARTESIAN_POINT('',(9.598203467983,26.00479722974,0.));
#1616 = DIRECTION('',(0.,0.,-1.));
#1617 = DIRECTION('',(0.999996302853,-2.719242713143E-03,0.));
#1618 = ADVANCED_FACE('',(#1619),#1630,.T.);
#1619 = FACE_BOUND('',#1620,.T.);
#1620 = EDGE_LOOP('',(#1621,#1622,#1623,#1629));
#1621 = ORIENTED_EDGE('',*,*,#1590,.T.);
#1622 = ORIENTED_EDGE('',*,*,#1439,.T.);
#1623 = ORIENTED_EDGE('',*,*,#1624,.F.);
#1624 = EDGE_CURVE('',#1196,#1431,#1625,.T.);
#1625 = LINE('',#1626,#1627);
#1626 = CARTESIAN_POINT('',(11.89,70.01,0.));
#1627 = VECTOR('',#1628,1.);
#1628 = DIRECTION('',(0.,0.,1.));
#1629 = ORIENTED_EDGE('',*,*,#1204,.F.);
#1630 = PLANE('',#1631);
#1631 = AXIS2_PLACEMENT_3D('',#1632,#1633,#1634);
#1632 = CARTESIAN_POINT('',(3.89,70.01,0.));
#1633 = DIRECTION('',(0.,1.,0.));
#1634 = DIRECTION('',(1.,0.,0.));
#1635 = ADVANCED_FACE('',(#1636),#1647,.T.);
#1636 = FACE_BOUND('',#1637,.T.);
#1637 = EDGE_LOOP('',(#1638,#1644,#1645,#1646));
#1638 = ORIENTED_EDGE('',*,*,#1639,.T.);
#1639 = EDGE_CURVE('',#1070,#1305,#1640,.T.);
#1640 = LINE('',#1641,#1642);
#1641 = CARTESIAN_POINT('',(10.614653,32.048681,0.));
#1642 = VECTOR('',#1643,1.);
#1643 = DIRECTION('',(0.,0.,1.));
#1644 = ORIENTED_EDGE('',*,*,#1304,.T.);
#1645 = ORIENTED_EDGE('',*,*,#1605,.F.);
#1646 = ORIENTED_EDGE('',*,*,#1069,.F.);
#1647 = PLANE('',#1648);
#1648 = AXIS2_PLACEMENT_3D('',#1649,#1650,#1651);
#1649 = CARTESIAN_POINT('',(10.614653,32.048681,0.));
#1650 = DIRECTION('',(0.999996295763,-2.721848786114E-03,0.));
#1651 = DIRECTION('',(-2.721848786114E-03,-0.999996295763,0.));
#1652 = ADVANCED_FACE('',(#1653),#1664,.T.);
#1653 = FACE_BOUND('',#1654,.T.);
#1654 = EDGE_LOOP('',(#1655,#1656,#1657,#1663));
#1655 = ORIENTED_EDGE('',*,*,#1624,.T.);
#1656 = ORIENTED_EDGE('',*,*,#1430,.T.);
#1657 = ORIENTED_EDGE('',*,*,#1658,.F.);
#1658 = EDGE_CURVE('',#1187,#1422,#1659,.T.);
#1659 = LINE('',#1660,#1661);
#1660 = CARTESIAN_POINT('',(12.389968,69.515846,0.));
#1661 = VECTOR('',#1662,1.);
#1662 = DIRECTION('',(0.,0.,1.));
#1663 = ORIENTED_EDGE('',*,*,#1195,.F.);
#1664 = CYLINDRICAL_SURFACE('',#1665,0.500004982264);
#1665 = AXIS2_PLACEMENT_3D('',#1666,#1667,#1668);
#1666 = CARTESIAN_POINT('',(11.88999725256,69.509995017744,0.));
#1667 = DIRECTION('',(0.,0.,-1.));
#1668 = DIRECTION('',(5.494824361946E-06,0.999999999985,0.));
#1669 = ADVANCED_FACE('',(#1670),#1681,.F.);
#1670 = FACE_BOUND('',#1671,.T.);
#1671 = EDGE_LOOP('',(#1672,#1678,#1679,#1680));
#1672 = ORIENTED_EDGE('',*,*,#1673,.T.);
#1673 = EDGE_CURVE('',#1078,#1313,#1674,.T.);
#1674 = LINE('',#1675,#1676);
#1675 = CARTESIAN_POINT('',(11.623537,33.049708,0.));
#1676 = VECTOR('',#1677,1.);
#1677 = DIRECTION('',(0.,0.,1.));
#1678 = ORIENTED_EDGE('',*,*,#1312,.T.);
#1679 = ORIENTED_EDGE('',*,*,#1639,.F.);
#1680 = ORIENTED_EDGE('',*,*,#1077,.F.);
#1681 = CYLINDRICAL_SURFACE('',#1682,1.0000456271);
#1682 = AXIS2_PLACEMENT_3D('',#1683,#1684,#1685);
#1683 = CARTESIAN_POINT('',(11.61469810648,32.0497014349,0.));
#1684 = DIRECTION('',(-0.,-0.,-1.));
#1685 = DIRECTION('',(8.838490245721E-03,0.999960939782,-0.));
#1686 = ADVANCED_FACE('',(#1687),#1698,.F.);
#1687 = FACE_BOUND('',#1688,.T.);
#1688 = EDGE_LOOP('',(#1689,#1690,#1691,#1697));
#1689 = ORIENTED_EDGE('',*,*,#1658,.T.);
#1690 = ORIENTED_EDGE('',*,*,#1421,.T.);
#1691 = ORIENTED_EDGE('',*,*,#1692,.F.);
#1692 = EDGE_CURVE('',#1178,#1413,#1693,.T.);
#1693 = LINE('',#1694,#1695);
#1694 = CARTESIAN_POINT('',(15.39,69.51,0.));
#1695 = VECTOR('',#1696,1.);
#1696 = DIRECTION('',(0.,0.,1.));
#1697 = ORIENTED_EDGE('',*,*,#1186,.F.);
#1698 = CYLINDRICAL_SURFACE('',#1699,1.500021742975);
#1699 = AXIS2_PLACEMENT_3D('',#1700,#1701,#1702);
#1700 = CARTESIAN_POINT('',(13.889978257218,69.509975937248,0.));
#1701 = DIRECTION('',(-0.,-0.,-1.));
#1702 = DIRECTION('',(-0.99999234294,3.913318443037E-03,-0.));
#1703 = ADVANCED_FACE('',(#1704),#1715,.T.);
#1704 = FACE_BOUND('',#1705,.T.);
#1705 = EDGE_LOOP('',(#1706,#1712,#1713,#1714));
#1706 = ORIENTED_EDGE('',*,*,#1707,.T.);
#1707 = EDGE_CURVE('',#1087,#1322,#1708,.T.);
#1708 = LINE('',#1709,#1710);
#1709 = CARTESIAN_POINT('',(18.852518,33.049666,0.));
#1710 = VECTOR('',#1711,1.);
#1711 = DIRECTION('',(0.,0.,1.));
#1712 = ORIENTED_EDGE('',*,*,#1321,.T.);
#1713 = ORIENTED_EDGE('',*,*,#1673,.F.);
#1714 = ORIENTED_EDGE('',*,*,#1086,.F.);
#1715 = PLANE('',#1716);
#1716 = AXIS2_PLACEMENT_3D('',#1717,#1718,#1719);
#1717 = CARTESIAN_POINT('',(18.852518,33.049666,0.));
#1718 = DIRECTION('',(-5.809947487735E-06,-0.999999999983,0.));
#1719 = DIRECTION('',(-0.999999999983,5.809947487735E-06,0.));
#1720 = ADVANCED_FACE('',(#1721),#1732,.T.);
#1721 = FACE_BOUND('',#1722,.T.);
#1722 = EDGE_LOOP('',(#1723,#1724,#1725,#1731));
#1723 = ORIENTED_EDGE('',*,*,#1692,.T.);
#1724 = ORIENTED_EDGE('',*,*,#1412,.T.);
#1725 = ORIENTED_EDGE('',*,*,#1726,.F.);
#1726 = EDGE_CURVE('',#1170,#1405,#1727,.T.);
#1727 = LINE('',#1728,#1729);
#1728 = CARTESIAN_POINT('',(15.891488,70.009995,0.));
#1729 = VECTOR('',#1730,1.);
#1730 = DIRECTION('',(0.,0.,1.));
#1731 = ORIENTED_EDGE('',*,*,#1177,.F.);
#1732 = CYLINDRICAL_SURFACE('',#1733,0.499996595158);
#1733 = AXIS2_PLACEMENT_3D('',#1734,#1735,#1736);
#1734 = CARTESIAN_POINT('',(15.889996595158,69.51000062915,0.));
#1735 = DIRECTION('',(0.,0.,-1.));
#1736 = DIRECTION('',(-0.999999999999,-1.258308671019E-06,-0.));
#1737 = ADVANCED_FACE('',(#1738),#1749,.F.);
#1738 = FACE_BOUND('',#1739,.T.);
#1739 = EDGE_LOOP('',(#1740,#1746,#1747,#1748));
#1740 = ORIENTED_EDGE('',*,*,#1741,.T.);
#1741 = EDGE_CURVE('',#1095,#1330,#1742,.T.);
#1742 = LINE('',#1743,#1744);
#1743 = CARTESIAN_POINT('',(19.86302,32.063827,0.));
#1744 = VECTOR('',#1745,1.);
#1745 = DIRECTION('',(0.,0.,1.));
#1746 = ORIENTED_EDGE('',*,*,#1329,.T.);
#1747 = ORIENTED_EDGE('',*,*,#1707,.F.);
#1748 = ORIENTED_EDGE('',*,*,#1094,.F.);
#1749 = CYLINDRICAL_SURFACE('',#1750,1.000120619987);
#1750 = AXIS2_PLACEMENT_3D('',#1751,#1752,#1753);
#1751 = CARTESIAN_POINT('',(18.86300057218,32.049600317055,0.));
#1752 = DIRECTION('',(-0.,-0.,-1.));
#1753 = DIRECTION('',(0.999898820036,1.422496712979E-02,-0.));
#1754 = ADVANCED_FACE('',(#1755),#1766,.T.);
#1755 = FACE_BOUND('',#1756,.T.);
#1756 = EDGE_LOOP('',(#1757,#1758,#1759,#1765));
#1757 = ORIENTED_EDGE('',*,*,#1726,.T.);
#1758 = ORIENTED_EDGE('',*,*,#1404,.T.);
#1759 = ORIENTED_EDGE('',*,*,#1760,.F.);
#1760 = EDGE_CURVE('',#1162,#1397,#1761,.T.);
#1761 = LINE('',#1762,#1763);
#1762 = CARTESIAN_POINT('',(19.25,70.,0.));
#1763 = VECTOR('',#1764,1.);
#1764 = DIRECTION('',(0.,0.,1.));
#1765 = ORIENTED_EDGE('',*,*,#1169,.F.);
#1766 = PLANE('',#1767);
#1767 = AXIS2_PLACEMENT_3D('',#1768,#1769,#1770);
#1768 = CARTESIAN_POINT('',(15.891488,70.009995,0.));
#1769 = DIRECTION('',(2.976007154047E-03,0.999995571681,-0.));
#1770 = DIRECTION('',(0.999995571681,-2.976007154047E-03,0.));
#1771 = ADVANCED_FACE('',(#1772),#1783,.T.);
#1772 = FACE_BOUND('',#1773,.T.);
#1773 = EDGE_LOOP('',(#1774,#1780,#1781,#1782));
#1774 = ORIENTED_EDGE('',*,*,#1775,.T.);
#1775 = EDGE_CURVE('',#1104,#1339,#1776,.T.);
#1776 = LINE('',#1777,#1778);
#1777 = CARTESIAN_POINT('',(19.892347,25.591603,0.));
#1778 = VECTOR('',#1779,1.);
#1779 = DIRECTION('',(0.,0.,1.));
#1780 = ORIENTED_EDGE('',*,*,#1338,.T.);
#1781 = ORIENTED_EDGE('',*,*,#1741,.F.);
#1782 = ORIENTED_EDGE('',*,*,#1103,.F.);
#1783 = PLANE('',#1784);
#1784 = AXIS2_PLACEMENT_3D('',#1785,#1786,#1787);
#1785 = CARTESIAN_POINT('',(19.892347,25.591603,0.));
#1786 = DIRECTION('',(-0.99998973423,-4.531162539457E-03,0.));
#1787 = DIRECTION('',(-4.531162539457E-03,0.99998973423,0.));
#1788 = ADVANCED_FACE('',(#1789),#1800,.T.);
#1789 = FACE_BOUND('',#1790,.T.);
#1790 = EDGE_LOOP('',(#1791,#1792,#1793,#1799));
#1791 = ORIENTED_EDGE('',*,*,#1760,.T.);
#1792 = ORIENTED_EDGE('',*,*,#1396,.T.);
#1793 = ORIENTED_EDGE('',*,*,#1794,.F.);
#1794 = EDGE_CURVE('',#1153,#1388,#1795,.T.);
#1795 = LINE('',#1796,#1797);
#1796 = CARTESIAN_POINT('',(20.3,70.,0.));
#1797 = VECTOR('',#1798,1.);
#1798 = DIRECTION('',(0.,0.,1.));
#1799 = ORIENTED_EDGE('',*,*,#1161,.F.);
#1800 = PLANE('',#1801);
#1801 = AXIS2_PLACEMENT_3D('',#1802,#1803,#1804);
#1802 = CARTESIAN_POINT('',(19.25,70.,0.));
#1803 = DIRECTION('',(0.,1.,0.));
#1804 = DIRECTION('',(1.,0.,0.));
#1805 = ADVANCED_FACE('',(#1806),#1817,.T.);
#1806 = FACE_BOUND('',#1807,.T.);
#1807 = EDGE_LOOP('',(#1808,#1814,#1815,#1816));
#1808 = ORIENTED_EDGE('',*,*,#1809,.T.);
#1809 = EDGE_CURVE('',#1112,#1347,#1810,.T.);
#1810 = LINE('',#1811,#1812);
#1811 = CARTESIAN_POINT('',(20.350032,25.10138,0.));
#1812 = VECTOR('',#1813,1.);
#1813 = DIRECTION('',(0.,0.,1.));
#1814 = ORIENTED_EDGE('',*,*,#1346,.T.);
#1815 = ORIENTED_EDGE('',*,*,#1775,.F.);
#1816 = ORIENTED_EDGE('',*,*,#1111,.F.);
#1817 = CYLINDRICAL_SURFACE('',#1818,0.500111910066);
#1818 = AXIS2_PLACEMENT_3D('',#1819,#1820,#1821);
#1819 = CARTESIAN_POINT('',(20.392393446607,25.599694589824,0.));
#1820 = DIRECTION('',(0.,0.,-1.));
#1821 = DIRECTION('',(-8.470393476732E-02,-0.996406163888,-0.));
#1822 = ADVANCED_FACE('',(#1823),#1834,.T.);
#1823 = FACE_BOUND('',#1824,.T.);
#1824 = EDGE_LOOP('',(#1825,#1826,#1827,#1833));
#1825 = ORIENTED_EDGE('',*,*,#1794,.T.);
#1826 = ORIENTED_EDGE('',*,*,#1387,.T.);
#1827 = ORIENTED_EDGE('',*,*,#1828,.F.);
#1828 = EDGE_CURVE('',#1145,#1380,#1829,.T.);
#1829 = LINE('',#1830,#1831);
#1830 = CARTESIAN_POINT('',(22.05,68.25,0.));
#1831 = VECTOR('',#1832,1.);
#1832 = DIRECTION('',(0.,0.,1.));
#1833 = ORIENTED_EDGE('',*,*,#1152,.F.);
#1834 = CYLINDRICAL_SURFACE('',#1835,1.749999546171);
#1835 = AXIS2_PLACEMENT_3D('',#1836,#1837,#1838);
#1836 = CARTESIAN_POINT('',(20.300000453829,68.250000453829,0.));
#1837 = DIRECTION('',(0.,0.,-1.));
#1838 = DIRECTION('',(-2.593310478154E-07,1.,0.));
#1839 = ADVANCED_FACE('',(#1840),#1851,.T.);
#1840 = FACE_BOUND('',#1841,.T.);
#1841 = EDGE_LOOP('',(#1842,#1848,#1849,#1850));
#1842 = ORIENTED_EDGE('',*,*,#1843,.T.);
#1843 = EDGE_CURVE('',#1121,#1356,#1844,.T.);
#1844 = LINE('',#1845,#1846);
#1845 = CARTESIAN_POINT('',(21.446121,25.09958,0.));
#1846 = VECTOR('',#1847,1.);
#1847 = DIRECTION('',(0.,0.,1.));
#1848 = ORIENTED_EDGE('',*,*,#1355,.T.);
#1849 = ORIENTED_EDGE('',*,*,#1809,.F.);
#1850 = ORIENTED_EDGE('',*,*,#1120,.F.);
#1851 = PLANE('',#1852);
#1852 = AXIS2_PLACEMENT_3D('',#1853,#1854,#1855);
#1853 = CARTESIAN_POINT('',(21.446121,25.09958,0.));
#1854 = DIRECTION('',(-1.64220019803E-03,-0.999998651588,0.));
#1855 = DIRECTION('',(-0.999998651588,1.64220019803E-03,0.));
#1856 = ADVANCED_FACE('',(#1857),#1868,.T.);
#1857 = FACE_BOUND('',#1858,.T.);
#1858 = EDGE_LOOP('',(#1859,#1860,#1861,#1867));
#1859 = ORIENTED_EDGE('',*,*,#1828,.T.);
#1860 = ORIENTED_EDGE('',*,*,#1379,.T.);
#1861 = ORIENTED_EDGE('',*,*,#1862,.F.);
#1862 = EDGE_CURVE('',#1137,#1372,#1863,.T.);
#1863 = LINE('',#1864,#1865);
#1864 = CARTESIAN_POINT('',(22.05,67.25,0.));
#1865 = VECTOR('',#1866,1.);
#1866 = DIRECTION('',(0.,0.,1.));
#1867 = ORIENTED_EDGE('',*,*,#1144,.F.);
#1868 = PLANE('',#1869);
#1869 = AXIS2_PLACEMENT_3D('',#1870,#1871,#1872);
#1870 = CARTESIAN_POINT('',(22.05,68.25,0.));
#1871 = DIRECTION('',(1.,0.,-0.));
#1872 = DIRECTION('',(0.,-1.,0.));
#1873 = ADVANCED_FACE('',(#1874),#1885,.T.);
#1874 = FACE_BOUND('',#1875,.T.);
#1875 = EDGE_LOOP('',(#1876,#1882,#1883,#1884));
#1876 = ORIENTED_EDGE('',*,*,#1877,.T.);
#1877 = EDGE_CURVE('',#1129,#1364,#1878,.T.);
#1878 = LINE('',#1879,#1880);
#1879 = CARTESIAN_POINT('',(22.05,25.098588,0.));
#1880 = VECTOR('',#1881,1.);
#1881 = DIRECTION('',(0.,0.,1.));
#1882 = ORIENTED_EDGE('',*,*,#1363,.T.);
#1883 = ORIENTED_EDGE('',*,*,#1843,.F.);
#1884 = ORIENTED_EDGE('',*,*,#1128,.F.);
#1885 = PLANE('',#1886);
#1886 = AXIS2_PLACEMENT_3D('',#1887,#1888,#1889);
#1887 = CARTESIAN_POINT('',(22.05,25.098588,0.));
#1888 = DIRECTION('',(-1.642710976112E-03,-0.999998650749,0.));
#1889 = DIRECTION('',(-0.999998650749,1.642710976112E-03,0.));
#1890 = ADVANCED_FACE('',(#1891),#1897,.T.);
#1891 = FACE_BOUND('',#1892,.T.);
#1892 = EDGE_LOOP('',(#1893,#1894,#1895,#1896));
#1893 = ORIENTED_EDGE('',*,*,#1862,.T.);
#1894 = ORIENTED_EDGE('',*,*,#1371,.T.);
#1895 = ORIENTED_EDGE('',*,*,#1877,.F.);
#1896 = ORIENTED_EDGE('',*,*,#1136,.F.);
#1897 = PLANE('',#1898);
#1898 = AXIS2_PLACEMENT_3D('',#1899,#1900,#1901);
#1899 = CARTESIAN_POINT('',(22.05,67.25,0.));
#1900 = DIRECTION('',(1.,0.,-0.));
#1901 = DIRECTION('',(0.,-1.,0.));
#1902 = ADVANCED_FACE('',(#1903),#1914,.F.);
#1903 = FACE_BOUND('',#1904,.T.);
#1904 = EDGE_LOOP('',(#1905,#1906,#1912,#1913));
#1905 = ORIENTED_EDGE('',*,*,#1240,.T.);
#1906 = ORIENTED_EDGE('',*,*,#1907,.T.);
#1907 = EDGE_CURVE('',#1241,#1476,#1908,.T.);
#1908 = LINE('',#1909,#1910);
#1909 = CARTESIAN_POINT('',(-2.6,65.4,-4.6E-02));
#1910 = VECTOR('',#1911,1.);
#1911 = DIRECTION('',(0.,0.,1.));
#1912 = ORIENTED_EDGE('',*,*,#1475,.F.);
#1913 = ORIENTED_EDGE('',*,*,#1907,.F.);
#1914 = CYLINDRICAL_SURFACE('',#1915,1.6);
#1915 = AXIS2_PLACEMENT_3D('',#1916,#1917,#1918);
#1916 = CARTESIAN_POINT('',(-2.6,67.,-4.6E-02));
#1917 = DIRECTION('',(-0.,-0.,-1.));
#1918 = DIRECTION('',(-0.,-1.,0.));
#1919 = ADVANCED_FACE('',(#1920),#1931,.F.);
#1920 = FACE_BOUND('',#1921,.T.);
#1921 = EDGE_LOOP('',(#1922,#1923,#1929,#1930));
#1922 = ORIENTED_EDGE('',*,*,#1251,.T.);
#1923 = ORIENTED_EDGE('',*,*,#1924,.T.);
#1924 = EDGE_CURVE('',#1252,#1487,#1925,.T.);
#1925 = LINE('',#1926,#1927);
#1926 = CARTESIAN_POINT('',(18.5,65.8,-4.6E-02));
#1927 = VECTOR('',#1928,1.);
#1928 = DIRECTION('',(0.,0.,1.));
#1929 = ORIENTED_EDGE('',*,*,#1486,.F.);
#1930 = ORIENTED_EDGE('',*,*,#1924,.F.);
#1931 = CYLINDRICAL_SURFACE('',#1932,1.6);
#1932 = AXIS2_PLACEMENT_3D('',#1933,#1934,#1935);
#1933 = CARTESIAN_POINT('',(18.5,67.4,-4.6E-02));
#1934 = DIRECTION('',(-0.,-0.,-1.));
#1935 = DIRECTION('',(-0.,-1.,0.));
#1936 = ( GEOMETRIC_REPRESENTATION_CONTEXT(3) 
GLOBAL_UNCERTAINTY_ASSIGNED_CONTEXT((#1940)) 
GLOBAL_UNIT_ASSIGNED_CONTEXT((#1937,#1938,#1939)) REPRESENTATION_CONTEXT
('Context #1','3D Context with UNIT and UNCERTAINTY') );
#1937 = ( LENGTH_UNIT() NAMED_UNIT(*) SI_UNIT(.MILLI.,.METRE.) );
#1938 = ( NAMED_UNIT(*) PLANE_ANGLE_UNIT() SI_UNIT($,.RADIAN.) );
#1939 = ( NAMED_UNIT(*) SI_UNIT($,.STERADIAN.) SOLID_ANGLE_UNIT() );
#1940 = UNCERTAINTY_MEASURE_WITH_UNIT(LENGTH_MEASURE(1.E-07),#1937,
  'distance_accuracy_value','confusion accuracy');
#1941 = CONTEXT_DEPENDENT_SHAPE_REPRESENTATION(#1942,#1944);
#1942 = ( REPRESENTATION_RELATIONSHIP('','',#922,#10) 
REPRESENTATION_RELATIONSHIP_WITH_TRANSFORMATION(#1943) 
SHAPE_REPRESENTATION_RELATIONSHIP() );
#1943 = ITEM_DEFINED_TRANSFORMATION('','',#11,#43);
#1944 = PRODUCT_DEFINITION_SHAPE('Placement','Placement of an item',
  #1945);
#1945 = NEXT_ASSEMBLY_USAGE_OCCURRENCE('9','=>[0:1:1:4]','',#5,#917,$);
#1946 = PRODUCT_RELATED_PRODUCT_CATEGORY('part',$,(#919));
#1947 = MECHANICAL_DESIGN_GEOMETRIC_PRESENTATION_REPRESENTATION('',(
    #1948,#1956,#1963,#1970,#1977,#1984,#1991,#1998,#2006,#2013,#2020,
    #2027,#2034,#2041,#2049,#2056,#2063,#2070,#2077,#2084,#2091,#2098,
    #2105,#2112,#2119,#2126),#874);
#1948 = STYLED_ITEM('color',(#1949),#86);
#1949 = PRESENTATION_STYLE_ASSIGNMENT((#1950));
#1950 = SURFACE_STYLE_USAGE(.BOTH.,#1951);
#1951 = SURFACE_SIDE_STYLE('',(#1952));
#1952 = SURFACE_STYLE_FILL_AREA(#1953);
#1953 = FILL_AREA_STYLE('',(#1954));
#1954 = FILL_AREA_STYLE_COLOUR('',#1955);
#1955 = COLOUR_RGB('',0.823999987314,0.819999987296,0.781000009244);
#1956 = STYLED_ITEM('color',(#1957),#126);
#1957 = PRESENTATION_STYLE_ASSIGNMENT((#1958));
#1958 = SURFACE_STYLE_USAGE(.BOTH.,#1959);
#1959 = SURFACE_SIDE_STYLE('',(#1960));
#1960 = SURFACE_STYLE_FILL_AREA(#1961);
#1961 = FILL_AREA_STYLE('',(#1962));
#1962 = FILL_AREA_STYLE_COLOUR('',#1955);
#1963 = STYLED_ITEM('color',(#1964),#209);
#1964 = PRESENTATION_STYLE_ASSIGNMENT((#1965));
#1965 = SURFACE_STYLE_USAGE(.BOTH.,#1966);
#1966 = SURFACE_SIDE_STYLE('',(#1967));
#1967 = SURFACE_STYLE_FILL_AREA(#1968);
#1968 = FILL_AREA_STYLE('',(#1969));
#1969 = FILL_AREA_STYLE_COLOUR('',#1955);
#1970 = STYLED_ITEM('color',(#1971),#234);
#1971 = PRESENTATION_STYLE_ASSIGNMENT((#1972));
#1972 = SURFACE_STYLE_USAGE(.BOTH.,#1973);
#1973 = SURFACE_SIDE_STYLE('',(#1974));
#1974 = SURFACE_STYLE_FILL_AREA(#1975);
#1975 = FILL_AREA_STYLE('',(#1976));
#1976 = FILL_AREA_STYLE_COLOUR('',#1955);
#1977 = STYLED_ITEM('color',(#1978),#259);
#1978 = PRESENTATION_STYLE_ASSIGNMENT((#1979));
#1979 = SURFACE_STYLE_USAGE(.BOTH.,#1980);
#1980 = SURFACE_SIDE_STYLE('',(#1981));
#1981 = SURFACE_STYLE_FILL_AREA(#1982);
#1982 = FILL_AREA_STYLE('',(#1983));
#1983 = FILL_AREA_STYLE_COLOUR('',#1955);
#1984 = STYLED_ITEM('color',(#1985),#326);
#1985 = PRESENTATION_STYLE_ASSIGNMENT((#1986));
#1986 = SURFACE_STYLE_USAGE(.BOTH.,#1987);
#1987 = SURFACE_SIDE_STYLE('',(#1988));
#1988 = SURFACE_STYLE_FILL_AREA(#1989);
#1989 = FILL_AREA_STYLE('',(#1990));
#1990 = FILL_AREA_STYLE_COLOUR('',#1955);
#1991 = STYLED_ITEM('color',(#1992),#343);
#1992 = PRESENTATION_STYLE_ASSIGNMENT((#1993));
#1993 = SURFACE_STYLE_USAGE(.BOTH.,#1994);
#1994 = SURFACE_SIDE_STYLE('',(#1995));
#1995 = SURFACE_STYLE_FILL_AREA(#1996);
#1996 = FILL_AREA_STYLE('',(#1997));
#1997 = FILL_AREA_STYLE_COLOUR('',#1955);
#1998 = STYLED_ITEM('color',(#1999),#360);
#1999 = PRESENTATION_STYLE_ASSIGNMENT((#2000));
#2000 = SURFACE_STYLE_USAGE(.BOTH.,#2001);
#2001 = SURFACE_SIDE_STYLE('',(#2002));
#2002 = SURFACE_STYLE_FILL_AREA(#2003);
#2003 = FILL_AREA_STYLE('',(#2004));
#2004 = FILL_AREA_STYLE_COLOUR('',#2005);
#2005 = COLOUR_RGB('',0.894999966383,0.890999961016,0.813000030345);
#2006 = STYLED_ITEM('color',(#2007),#409);
#2007 = PRESENTATION_STYLE_ASSIGNMENT((#2008));
#2008 = SURFACE_STYLE_USAGE(.BOTH.,#2009);
#2009 = SURFACE_SIDE_STYLE('',(#2010));
#2010 = SURFACE_STYLE_FILL_AREA(#2011);
#2011 = FILL_AREA_STYLE('',(#2012));
#2012 = FILL_AREA_STYLE_COLOUR('',#1955);
#2013 = STYLED_ITEM('color',(#2014),#426);
#2014 = PRESENTATION_STYLE_ASSIGNMENT((#2015));
#2015 = SURFACE_STYLE_USAGE(.BOTH.,#2016);
#2016 = SURFACE_SIDE_STYLE('',(#2017));
#2017 = SURFACE_STYLE_FILL_AREA(#2018);
#2018 = FILL_AREA_STYLE('',(#2019));
#2019 = FILL_AREA_STYLE_COLOUR('',#1955);
#2020 = STYLED_ITEM('color',(#2021),#443);
#2021 = PRESENTATION_STYLE_ASSIGNMENT((#2022));
#2022 = SURFACE_STYLE_USAGE(.BOTH.,#2023);
#2023 = SURFACE_SIDE_STYLE('',(#2024));
#2024 = SURFACE_STYLE_FILL_AREA(#2025);
#2025 = FILL_AREA_STYLE('',(#2026));
#2026 = FILL_AREA_STYLE_COLOUR('',#2005);
#2027 = STYLED_ITEM('color',(#2028),#492);
#2028 = PRESENTATION_STYLE_ASSIGNMENT((#2029));
#2029 = SURFACE_STYLE_USAGE(.BOTH.,#2030);
#2030 = SURFACE_SIDE_STYLE('',(#2031));
#2031 = SURFACE_STYLE_FILL_AREA(#2032);
#2032 = FILL_AREA_STYLE('',(#2033));
#2033 = FILL_AREA_STYLE_COLOUR('',#2005);
#2034 = STYLED_ITEM('color',(#2035),#509);
#2035 = PRESENTATION_STYLE_ASSIGNMENT((#2036));
#2036 = SURFACE_STYLE_USAGE(.BOTH.,#2037);
#2037 = SURFACE_SIDE_STYLE('',(#2038));
#2038 = SURFACE_STYLE_FILL_AREA(#2039);
#2039 = FILL_AREA_STYLE('',(#2040));
#2040 = FILL_AREA_STYLE_COLOUR('',#1955);
#2041 = STYLED_ITEM('color',(#2042),#578);
#2042 = PRESENTATION_STYLE_ASSIGNMENT((#2043));
#2043 = SURFACE_STYLE_USAGE(.BOTH.,#2044);
#2044 = SURFACE_SIDE_STYLE('',(#2045));
#2045 = SURFACE_STYLE_FILL_AREA(#2046);
#2046 = FILL_AREA_STYLE('',(#2047));
#2047 = FILL_AREA_STYLE_COLOUR('',#2048);
#2048 = COLOUR_RGB('',8.200000279077E-02,8.600000121357E-02,
  9.399999706163E-02);
#2049 = STYLED_ITEM('color',(#2050),#609);
#2050 = PRESENTATION_STYLE_ASSIGNMENT((#2051));
#2051 = SURFACE_STYLE_USAGE(.BOTH.,#2052);
#2052 = SURFACE_SIDE_STYLE('',(#2053));
#2053 = SURFACE_STYLE_FILL_AREA(#2054);
#2054 = FILL_AREA_STYLE('',(#2055));
#2055 = FILL_AREA_STYLE_COLOUR('',#2048);
#2056 = STYLED_ITEM('color',(#2057),#633);
#2057 = PRESENTATION_STYLE_ASSIGNMENT((#2058));
#2058 = SURFACE_STYLE_USAGE(.BOTH.,#2059);
#2059 = SURFACE_SIDE_STYLE('',(#2060));
#2060 = SURFACE_STYLE_FILL_AREA(#2061);
#2061 = FILL_AREA_STYLE('',(#2062));
#2062 = FILL_AREA_STYLE_COLOUR('',#1955);
#2063 = STYLED_ITEM('color',(#2064),#702);
#2064 = PRESENTATION_STYLE_ASSIGNMENT((#2065));
#2065 = SURFACE_STYLE_USAGE(.BOTH.,#2066);
#2066 = SURFACE_SIDE_STYLE('',(#2067));
#2067 = SURFACE_STYLE_FILL_AREA(#2068);
#2068 = FILL_AREA_STYLE('',(#2069));
#2069 = FILL_AREA_STYLE_COLOUR('',#2048);
#2070 = STYLED_ITEM('color',(#2071),#726);
#2071 = PRESENTATION_STYLE_ASSIGNMENT((#2072));
#2072 = SURFACE_STYLE_USAGE(.BOTH.,#2073);
#2073 = SURFACE_SIDE_STYLE('',(#2074));
#2074 = SURFACE_STYLE_FILL_AREA(#2075);
#2075 = FILL_AREA_STYLE('',(#2076));
#2076 = FILL_AREA_STYLE_COLOUR('',#1955);
#2077 = STYLED_ITEM('color',(#2078),#743);
#2078 = PRESENTATION_STYLE_ASSIGNMENT((#2079));
#2079 = SURFACE_STYLE_USAGE(.BOTH.,#2080);
#2080 = SURFACE_SIDE_STYLE('',(#2081));
#2081 = SURFACE_STYLE_FILL_AREA(#2082);
#2082 = FILL_AREA_STYLE('',(#2083));
#2083 = FILL_AREA_STYLE_COLOUR('',#1955);
#2084 = STYLED_ITEM('color',(#2085),#760);
#2085 = PRESENTATION_STYLE_ASSIGNMENT((#2086));
#2086 = SURFACE_STYLE_USAGE(.BOTH.,#2087);
#2087 = SURFACE_SIDE_STYLE('',(#2088));
#2088 = SURFACE_STYLE_FILL_AREA(#2089);
#2089 = FILL_AREA_STYLE('',(#2090));
#2090 = FILL_AREA_STYLE_COLOUR('',#1955);
#2091 = STYLED_ITEM('color',(#2092),#777);
#2092 = PRESENTATION_STYLE_ASSIGNMENT((#2093));
#2093 = SURFACE_STYLE_USAGE(.BOTH.,#2094);
#2094 = SURFACE_SIDE_STYLE('',(#2095));
#2095 = SURFACE_STYLE_FILL_AREA(#2096);
#2096 = FILL_AREA_STYLE('',(#2097));
#2097 = FILL_AREA_STYLE_COLOUR('',#1955);
#2098 = STYLED_ITEM('color',(#2099),#794);
#2099 = PRESENTATION_STYLE_ASSIGNMENT((#2100));
#2100 = SURFACE_STYLE_USAGE(.BOTH.,#2101);
#2101 = SURFACE_SIDE_STYLE('',(#2102));
#2102 = SURFACE_STYLE_FILL_AREA(#2103);
#2103 = FILL_AREA_STYLE('',(#2104));
#2104 = FILL_AREA_STYLE_COLOUR('',#1955);
#2105 = STYLED_ITEM('color',(#2106),#811);
#2106 = PRESENTATION_STYLE_ASSIGNMENT((#2107));
#2107 = SURFACE_STYLE_USAGE(.BOTH.,#2108);
#2108 = SURFACE_SIDE_STYLE('',(#2109));
#2109 = SURFACE_STYLE_FILL_AREA(#2110);
#2110 = FILL_AREA_STYLE('',(#2111));
#2111 = FILL_AREA_STYLE_COLOUR('',#1955);
#2112 = STYLED_ITEM('color',(#2113),#828);
#2113 = PRESENTATION_STYLE_ASSIGNMENT((#2114));
#2114 = SURFACE_STYLE_USAGE(.BOTH.,#2115);
#2115 = SURFACE_SIDE_STYLE('',(#2116));
#2116 = SURFACE_STYLE_FILL_AREA(#2117);
#2117 = FILL_AREA_STYLE('',(#2118));
#2118 = FILL_AREA_STYLE_COLOUR('',#1955);
#2119 = STYLED_ITEM('color',(#2120),#845);
#2120 = PRESENTATION_STYLE_ASSIGNMENT((#2121));
#2121 = SURFACE_STYLE_USAGE(.BOTH.,#2122);
#2122 = SURFACE_SIDE_STYLE('',(#2123));
#2123 = SURFACE_STYLE_FILL_AREA(#2124);
#2124 = FILL_AREA_STYLE('',(#2125));
#2125 = FILL_AREA_STYLE_COLOUR('',#2048);
#2126 = STYLED_ITEM('color',(#2127),#862);
#2127 = PRESENTATION_STYLE_ASSIGNMENT((#2128));
#2128 = SURFACE_STYLE_USAGE(.BOTH.,#2129);
#2129 = SURFACE_SIDE_STYLE('',(#2130));
#2130 = SURFACE_STYLE_FILL_AREA(#2131);
#2131 = FILL_AREA_STYLE('',(#2132));
#2132 = FILL_AREA_STYLE_COLOUR('',#2048);
#2133 = MECHANICAL_DESIGN_GEOMETRIC_PRESENTATION_REPRESENTATION('',(
    #2134),#1936);
#2134 = STYLED_ITEM('color',(#2135),#923);
#2135 = PRESENTATION_STYLE_ASSIGNMENT((#2136));
#2136 = SURFACE_STYLE_USAGE(.BOTH.,#2137);
#2137 = SURFACE_SIDE_STYLE('',(#2138));
#2138 = SURFACE_STYLE_FILL_AREA(#2139);
#2139 = FILL_AREA_STYLE('',(#2140));
#2140 = FILL_AREA_STYLE_COLOUR('',#2141);
#2141 = COLOUR_RGB('',0.313304153717,0.484529207832,0.410020903123);
ENDSEC;
END-ISO-10303-21;
